<ttFont>
<head>
    <!-- Most of this table will be recalculated by the compiler -->
    <tableVersion value="1.0"/>
    <fontRevision value="1.5"/>
    <checkSumAdjustment value="0x5ff15362"/>
    <magicNumber value="0x5f0f3cf5"/>
    <flags value="00000000 00000101"/>
    <unitsPerEm value="2000"/>
    <created value="Fri Jun  6 07:58:38 2014"/>
    <modified value="Sat Dec 22 16:51:49 2018"/>
    <xMin value="-340"/>
    <yMin value="-495"/>
    <xMax value="2310"/>
    <yMax value="1923"/>
    <macStyle value="00000000 00000000"/>
    <lowestRecPPEM value="6"/>
    <fontDirectionHint value="2"/>
    <indexToLocFormat value="0"/>
    <glyphDataFormat value="0"/>
  </head>
    <TTGlyph name="A" xMin="52" yMin="-12" xMax="1141" yMax="1372">
      <contour>
        <pt x="509" y="1366" on="1"/>
        <pt x="527" y="1369" on="0"/>
        <pt x="579" y="1372" on="0"/>
        <pt x="599" y="1372" on="1"/>
        <pt x="616" y="1372" on="0"/>
        <pt x="669" y="1369" on="0"/>
        <pt x="682" y="1366" on="1"/>
        <pt x="1141" y="9" on="1"/>
        <pt x="1123" y="-2" on="0"/>
        <pt x="1077" y="-12" on="0"/>
        <pt x="1050" y="-12" on="1"/>
        <pt x="1013" y="-12" on="0"/>
        <pt x="974" y="20" on="0"/>
        <pt x="958" y="67" on="1"/>
        <pt x="695" y="866" on="1"/>
        <pt x="665" y="955" on="0"/>
        <pt x="611" y="1133" on="0"/>
        <pt x="592" y="1201" on="1"/>
        <pt x="582" y="1201" on="1"/>
        <pt x="572" y="1162" on="0"/>
        <pt x="547" y="1071" on="0"/>
        <pt x="523" y="989" on="0"/>
        <pt x="515" y="963" on="1"/>
        <pt x="199" y="-2" on="1"/>
        <pt x="185" y="-5" on="0"/>
        <pt x="149" y="-8" on="0"/>
        <pt x="131" y="-8" on="1"/>
        <pt x="108" y="-8" on="0"/>
        <pt x="74" y="-2" on="0"/>
        <pt x="56" y="2" on="1"/>
        <pt x="52" y="9" on="1"/>
      </contour>
      <contour>
        <pt x="454" y="354" on="1"/>
        <pt x="447" y="354" on="0"/>
        <pt x="379" y="355" on="0"/>
        <pt x="310" y="356" on="0"/>
        <pt x="303" y="356" on="1"/>
        <pt x="242" y="356" on="1"/>
        <pt x="291" y="487" on="1"/>
        <pt x="345" y="487" on="1"/>
        <pt x="352" y="487" on="0"/>
        <pt x="410" y="488" on="0"/>
        <pt x="468" y="489" on="0"/>
        <pt x="475" y="489" on="1"/>
        <pt x="704" y="489" on="1"/>
        <pt x="710" y="489" on="0"/>
        <pt x="770" y="488" on="0"/>
        <pt x="831" y="487" on="0"/>
        <pt x="838" y="487" on="1"/>
        <pt x="892" y="487" on="1"/>
        <pt x="936" y="356" on="1"/>
        <pt x="876" y="356" on="1"/>
        <pt x="868" y="356" on="0"/>
        <pt x="798" y="355" on="0"/>
        <pt x="729" y="354" on="0"/>
        <pt x="723" y="354" on="1"/>
      </contour>
    </TTGlyph>
    <TTGlyph name="AE" xMin="42" yMin="-8" xMax="1632" yMax="1366">
      <contour>
        <pt x="734" y="1349" on="1"/>
        <pt x="753" y="1359" on="0"/>
        <pt x="807" y="1366" on="0"/>
        <pt x="826" y="1366" on="1"/>
        <pt x="954" y="1366" on="1"/>
        <pt x="812" y="1201" on="1"/>
        <pt x="802" y="1201" on="1"/>
        <pt x="778" y="1142" on="0"/>
        <pt x="717" y="1013" on="0"/>
        <pt x="692" y="962" on="1"/>
        <pt x="200" y="-2" on="1"/>
        <pt x="183" y="-5" on="0"/>
        <pt x="137" y="-8" on="0"/>
        <pt x="120" y="-8" on="1"/>
        <pt x="96" y="-8" on="0"/>
        <pt x="64" y="-2" on="0"/>
        <pt x="47" y="2" on="1"/>
        <pt x="42" y="9" on="1"/>
      </contour>
      <contour>
        <pt x="504" y="354" on="1"/>
        <pt x="497" y="354" on="0"/>
        <pt x="436" y="355" on="0"/>
        <pt x="375" y="356" on="0"/>
        <pt x="367" y="356" on="1"/>
        <pt x="309" y="356" on="1"/>
        <pt x="376" y="487" on="1"/>
        <pt x="428" y="487" on="1"/>
        <pt x="435" y="487" on="0"/>
        <pt x="486" y="488" on="0"/>
        <pt x="536" y="489" on="0"/>
        <pt x="543" y="489" on="1"/>
        <pt x="685" y="489" on="1"/>
        <pt x="692" y="489" on="0"/>
        <pt x="756" y="488" on="0"/>
        <pt x="822" y="487" on="0"/>
        <pt x="829" y="487" on="1"/>
        <pt x="881" y="487" on="1"/>
        <pt x="881" y="356" on="1"/>
        <pt x="827" y="356" on="1"/>
        <pt x="820" y="356" on="0"/>
        <pt x="755" y="355" on="0"/>
        <pt x="690" y="354" on="0"/>
        <pt x="684" y="354" on="1"/>
      </contour>
      <contour>
        <pt x="814" y="1354" on="1"/>
        <pt x="826" y="1366" on="1"/>
        <pt x="961" y="1366" on="1"/>
        <pt x="961" y="1240" on="1"/>
        <pt x="961" y="1198" on="0"/>
        <pt x="963" y="1152" on="0"/>
        <pt x="963" y="1111" on="1"/>
        <pt x="963" y="206" on="1"/>
        <pt x="963" y="185" on="0"/>
        <pt x="961" y="150" on="0"/>
        <pt x="961" y="128" on="1"/>
        <pt x="961" y="0" on="1"/>
        <pt x="901" y="0" on="1"/>
        <pt x="861" y="0" on="0"/>
        <pt x="814" y="53" on="0"/>
        <pt x="814" y="101" on="1"/>
      </contour>
      <contour>
        <pt x="1496" y="757" on="1"/>
        <pt x="1500" y="740" on="0"/>
        <pt x="1503" y="704" on="0"/>
        <pt x="1503" y="692" on="1"/>
        <pt x="1503" y="679" on="0"/>
        <pt x="1500" y="643" on="0"/>
        <pt x="1496" y="626" on="1"/>
        <pt x="1082" y="626" on="1"/>
        <pt x="1060" y="626" on="0"/>
        <pt x="1002" y="627" on="0"/>
        <pt x="939" y="628" on="0"/>
        <pt x="910" y="628" on="1"/>
        <pt x="910" y="755" on="1"/>
        <pt x="939" y="755" on="0"/>
        <pt x="1002" y="756" on="0"/>
        <pt x="1060" y="757" on="0"/>
        <pt x="1082" y="757" on="1"/>
      </contour>
      <contour>
        <pt x="1599" y="1366" on="1"/>
        <pt x="1602" y="1348" on="0"/>
        <pt x="1604" y="1317" on="0"/>
        <pt x="1604" y="1304" on="1"/>
        <pt x="1604" y="1291" on="0"/>
        <pt x="1599" y="1252" on="0"/>
        <pt x="1593" y="1234" on="1"/>
        <pt x="1082" y="1234" on="1"/>
        <pt x="1060" y="1234" on="0"/>
        <pt x="1002" y="1234" on="0"/>
        <pt x="939" y="1235" on="0"/>
        <pt x="910" y="1236" on="1"/>
        <pt x="910" y="1366" on="1"/>
      </contour>
      <contour>
        <pt x="1632" y="133" on="1"/>
        <pt x="1632" y="55" on="0"/>
        <pt x="1586" y="0" on="0"/>
        <pt x="1530" y="0" on="1"/>
        <pt x="910" y="0" on="1"/>
        <pt x="910" y="125" on="1"/>
        <pt x="949" y="128" on="0"/>
        <pt x="1030" y="133" on="0"/>
        <pt x="1085" y="133" on="1"/>
      </contour>
    </TTGlyph>
    <TTGlyph name="Aacute" xMin="52" yMin="-12" xMax="1141" yMax="1765">
      <component glyphName="A" x="0" y="0" flags="0x4"/>
      <component glyphName="glyph00128" x="199" y="0" flags="0x4"/>
    </TTGlyph>
    <TTGlyph name="Abreve" xMin="52" yMin="-12" xMax="1141" yMax="1731">
      <component glyphName="A" x="0" y="0" flags="0x4"/>
      <component glyphName="glyph00136" x="199" y="0" flags="0x4"/>
    </TTGlyph>
    <TTGlyph name="Acircumflex" xMin="52" yMin="-12" xMax="1141" yMax="1757">
      <component glyphName="A" x="0" y="0" flags="0x4"/>
      <component glyphName="glyph00129" x="199" y="0" flags="0x4"/>
    </TTGlyph>
    <TTGlyph name="Adieresis" xMin="52" yMin="-12" xMax="1141" yMax="1653">
      <component glyphName="A" x="0" y="0" flags="0x4"/>
      <component glyphName="glyph00130" x="199" y="0" flags="0x4"/>
    </TTGlyph>
    <TTGlyph name="Agrave" xMin="52" yMin="-12" xMax="1141" yMax="1765">
      <component glyphName="A" x="0" y="0" flags="0x4"/>
      <component glyphName="glyph00127" x="199" y="0" flags="0x4"/>
    </TTGlyph>
    <TTGlyph name="Amacron" xMin="52" yMin="-12" xMax="1141" yMax="1645">
      <component glyphName="A" x="0" y="0" flags="0x4"/>
      <component glyphName="glyph00135" x="199" y="0" flags="0x4"/>
    </TTGlyph>
    <TTGlyph name="Aogonek" xMin="52" yMin="-434" xMax="1230" yMax="1372">
      <contour>
        <pt x="1193" y="-290" on="1"/>
        <pt x="1208" y="-302" on="0"/>
        <pt x="1230" y="-343" on="0"/>
        <pt x="1230" y="-369" on="1"/>
        <pt x="1197" y="-396" on="0"/>
        <pt x="1088" y="-434" on="0"/>
        <pt x="1032" y="-434" on="1"/>
        <pt x="945" y="-434" on="0"/>
        <pt x="830" y="-340" on="0"/>
        <pt x="830" y="-253" on="1"/>
        <pt x="830" y="-194" on="0"/>
        <pt x="887" y="-83" on="0"/>
        <pt x="981" y="14" on="0"/>
        <pt x="1038" y="49" on="1"/>
        <pt x="1141" y="9" on="1"/>
        <pt x="1067" y="-40" on="0"/>
        <pt x="961" y="-155" on="0"/>
        <pt x="961" y="-225" on="1"/>
        <pt x="961" y="-274" on="0"/>
        <pt x="1020" y="-325" on="0"/>
        <pt x="1066" y="-325" on="1"/>
        <pt x="1102" y="-325" on="0"/>
        <pt x="1169" y="-303" on="0"/>
      </contour>
      <contour>
        <pt x="509" y="1366" on="1"/>
        <pt x="527" y="1369" on="0"/>
        <pt x="579" y="1372" on="0"/>
        <pt x="599" y="1372" on="1"/>
        <pt x="616" y="1372" on="0"/>
        <pt x="669" y="1369" on="0"/>
        <pt x="682" y="1366" on="1"/>
        <pt x="1141" y="9" on="1"/>
        <pt x="1123" y="-2" on="0"/>
        <pt x="1077" y="-12" on="0"/>
        <pt x="1050" y="-12" on="1"/>
        <pt x="1013" y="-12" on="0"/>
        <pt x="974" y="20" on="0"/>
        <pt x="958" y="67" on="1"/>
        <pt x="695" y="866" on="1"/>
        <pt x="665" y="955" on="0"/>
        <pt x="611" y="1133" on="0"/>
        <pt x="592" y="1201" on="1"/>
        <pt x="582" y="1201" on="1"/>
        <pt x="572" y="1162" on="0"/>
        <pt x="547" y="1071" on="0"/>
        <pt x="523" y="989" on="0"/>
        <pt x="515" y="963" on="1"/>
        <pt x="199" y="-2" on="1"/>
        <pt x="185" y="-5" on="0"/>
        <pt x="149" y="-8" on="0"/>
        <pt x="131" y="-8" on="1"/>
        <pt x="108" y="-8" on="0"/>
        <pt x="74" y="-2" on="0"/>
        <pt x="56" y="2" on="1"/>
        <pt x="52" y="9" on="1"/>
      </contour>
      <contour>
        <pt x="454" y="354" on="1"/>
        <pt x="447" y="354" on="0"/>
        <pt x="379" y="355" on="0"/>
        <pt x="310" y="356" on="0"/>
        <pt x="303" y="356" on="1"/>
        <pt x="242" y="356" on="1"/>
        <pt x="291" y="487" on="1"/>
        <pt x="345" y="487" on="1"/>
        <pt x="352" y="487" on="0"/>
        <pt x="410" y="488" on="0"/>
        <pt x="468" y="489" on="0"/>
        <pt x="475" y="489" on="1"/>
        <pt x="704" y="489" on="1"/>
        <pt x="710" y="489" on="0"/>
        <pt x="770" y="488" on="0"/>
        <pt x="831" y="487" on="0"/>
        <pt x="838" y="487" on="1"/>
        <pt x="892" y="487" on="1"/>
        <pt x="936" y="356" on="1"/>
        <pt x="876" y="356" on="1"/>
        <pt x="868" y="356" on="0"/>
        <pt x="798" y="355" on="0"/>
        <pt x="729" y="354" on="0"/>
        <pt x="723" y="354" on="1"/>
      </contour>
    </TTGlyph>
    <TTGlyph name="Aring" xMin="52" yMin="-12" xMax="1141" yMax="1764">
      <component glyphName="A" x="0" y="0" flags="0x4"/>
      <component glyphName="glyph00132" x="199" y="0" flags="0x4"/>
    </TTGlyph>
    <TTGlyph name="Atilde" xMin="52" yMin="-12" xMax="1141" yMax="1720">
      <component glyphName="A" x="0" y="0" flags="0x4"/>
      <component glyphName="glyph00133" x="199" y="0" flags="0x4"/>
    </TTGlyph>
    <TTGlyph name="B" xMin="197" yMin="-6" xMax="1086" yMax="1372">
      <contour>
        <pt x="210" y="1366" on="1"/>
        <pt x="314" y="1368" on="0"/>
        <pt x="504" y="1372" on="0"/>
        <pt x="600" y="1372" on="1"/>
        <pt x="752" y="1372" on="0"/>
        <pt x="937" y="1280" on="0"/>
        <pt x="1020" y="1117" on="0"/>
        <pt x="1020" y="1012" on="1"/>
        <pt x="1020" y="934" on="0"/>
        <pt x="953" y="804" on="0"/>
        <pt x="831" y="720" on="0"/>
        <pt x="748" y="711" on="1"/>
        <pt x="748" y="739" on="1"/>
        <pt x="832" y="739" on="0"/>
        <pt x="987" y="646" on="0"/>
        <pt x="1086" y="483" on="0"/>
        <pt x="1086" y="377" on="1"/>
        <pt x="1086" y="281" on="0"/>
        <pt x="999" y="106" on="0"/>
        <pt x="796" y="-6" on="0"/>
        <pt x="622" y="-6" on="1"/>
        <pt x="498" y="-6" on="0"/>
        <pt x="314" y="-2" on="0"/>
        <pt x="210" y="0" on="1"/>
        <pt x="197" y="12" on="1"/>
        <pt x="197" y="1354" on="1"/>
      </contour>
      <contour>
        <pt x="351" y="119" on="1"/>
        <pt x="421" y="119" on="0"/>
        <pt x="564" y="121" on="0"/>
        <pt x="634" y="121" on="1"/>
        <pt x="726" y="121" on="0"/>
        <pt x="841" y="172" on="0"/>
        <pt x="902" y="253" on="0"/>
        <pt x="925" y="346" on="0"/>
        <pt x="925" y="387" on="1"/>
        <pt x="925" y="441" on="0"/>
        <pt x="872" y="565" on="0"/>
        <pt x="738" y="653" on="0"/>
        <pt x="615" y="653" on="1"/>
        <pt x="287" y="653" on="1"/>
        <pt x="287" y="783" on="1"/>
        <pt x="597" y="783" on="1"/>
        <pt x="705" y="783" on="0"/>
        <pt x="819" y="855" on="0"/>
        <pt x="860" y="962" on="0"/>
        <pt x="860" y="1015" on="1"/>
        <pt x="860" y="1069" on="0"/>
        <pt x="822" y="1175" on="0"/>
        <pt x="712" y="1245" on="0"/>
        <pt x="603" y="1245" on="1"/>
        <pt x="553" y="1245" on="0"/>
        <pt x="405" y="1245" on="0"/>
        <pt x="351" y="1247" on="1"/>
      </contour>
    </TTGlyph>
    <TTGlyph name="C" xMin="114" yMin="-24" xMax="1106" yMax="1390">
      <contour>
        <pt x="951" y="934" on="1"/>
        <pt x="951" y="1005" on="0"/>
        <pt x="894" y="1157" on="0"/>
        <pt x="759" y="1261" on="0"/>
        <pt x="640" y="1261" on="1"/>
        <pt x="466" y="1261" on="0"/>
        <pt x="276" y="964" on="0"/>
        <pt x="276" y="676" on="1"/>
        <pt x="276" y="409" on="0"/>
        <pt x="470" y="110" on="0"/>
        <pt x="639" y="110" on="1"/>
        <pt x="726" y="110" on="0"/>
        <pt x="909" y="185" on="0"/>
        <pt x="1005" y="269" on="1"/>
        <pt x="1033" y="252" on="0"/>
        <pt x="1080" y="196" on="0"/>
        <pt x="1089" y="169" on="1"/>
        <pt x="1035" y="115" on="0"/>
        <pt x="890" y="27" on="0"/>
        <pt x="714" y="-24" on="0"/>
        <pt x="616" y="-24" on="1"/>
        <pt x="480" y="-24" on="0"/>
        <pt x="289" y="91" on="0"/>
        <pt x="169" y="290" on="0"/>
        <pt x="114" y="541" on="0"/>
        <pt x="114" y="676" on="1"/>
        <pt x="114" y="923" on="0"/>
        <pt x="260" y="1239" on="0"/>
        <pt x="500" y="1390" on="0"/>
        <pt x="641" y="1390" on="1"/>
        <pt x="786" y="1390" on="0"/>
        <pt x="994" y="1279" on="0"/>
        <pt x="1106" y="1106" on="0"/>
        <pt x="1106" y="1014" on="1"/>
        <pt x="1106" y="981" on="0"/>
        <pt x="1073" y="923" on="0"/>
        <pt x="1020" y="923" on="1"/>
        <pt x="1001" y="923" on="0"/>
        <pt x="973" y="928" on="0"/>
      </contour>
    </TTGlyph>
    <TTGlyph name="Cacute" xMin="114" yMin="-24" xMax="1106" yMax="1767">
      <component glyphName="C" x="0" y="0" flags="0x204"/>
      <component glyphName="glyph00128" x="239" y="2" flags="0x4"/>
    </TTGlyph>
    <TTGlyph name="Ccaron" xMin="114" yMin="-24" xMax="1106" yMax="1757">
      <component glyphName="C" x="0" y="0" flags="0x204"/>
      <component glyphName="glyph00131" x="239" y="2" flags="0x4"/>
    </TTGlyph>
    <TTGlyph name="Ccedilla" xMin="114" yMin="-437" xMax="1106" yMax="1390">
      <component glyphName="C" x="0" y="0" flags="0x204"/>
      <component glyphName="cedilla" x="231" y="0" flags="0x4"/>
    </TTGlyph>
    <TTGlyph name="Ccircumflex" xMin="114" yMin="-24" xMax="1106" yMax="1759">
      <component glyphName="C" x="0" y="0" flags="0x204"/>
      <component glyphName="glyph00129" x="239" y="2" flags="0x4"/>
    </TTGlyph>
    <TTGlyph name="Cdotaccent" xMin="114" yMin="-24" xMax="1106" yMax="1680">
      <component glyphName="C" x="0" y="0" flags="0x204"/>
      <component glyphName="glyph00134" x="239" y="2" flags="0x4"/>
    </TTGlyph>
    <TTGlyph name="D" xMin="197" yMin="-8" xMax="1158" yMax="1372">
      <contour>
        <pt x="1158" y="682" on="1"/>
        <pt x="1158" y="565" on="0"/>
        <pt x="1128" y="352" on="0"/>
        <pt x="1040" y="168" on="0"/>
        <pt x="953" y="94" on="1"/>
        <pt x="911" y="58" on="0"/>
        <pt x="791" y="13" on="0"/>
        <pt x="666" y="-8" on="0"/>
        <pt x="615" y="-8" on="1"/>
        <pt x="537" y="-8" on="0"/>
        <pt x="419" y="-6" on="0"/>
        <pt x="297" y="-2" on="0"/>
        <pt x="210" y="0" on="1"/>
        <pt x="197" y="12" on="1"/>
        <pt x="197" y="1354" on="1"/>
        <pt x="210" y="1366" on="1"/>
        <pt x="296" y="1369" on="0"/>
        <pt x="419" y="1372" on="0"/>
        <pt x="537" y="1372" on="0"/>
        <pt x="615" y="1372" on="1"/>
        <pt x="666" y="1372" on="0"/>
        <pt x="791" y="1351" on="0"/>
        <pt x="911" y="1306" on="0"/>
        <pt x="953" y="1270" on="1"/>
        <pt x="1039" y="1196" on="0"/>
        <pt x="1127" y="1011" on="0"/>
        <pt x="1158" y="798" on="0"/>
      </contour>
      <contour>
        <pt x="996" y="682" on="1"/>
        <pt x="996" y="779" on="0"/>
        <pt x="969" y="977" on="0"/>
        <pt x="891" y="1143" on="0"/>
        <pt x="738" y="1243" on="0"/>
        <pt x="613" y="1243" on="1"/>
        <pt x="544" y="1243" on="0"/>
        <pt x="428" y="1245" on="0"/>
        <pt x="351" y="1245" on="1"/>
        <pt x="351" y="123" on="1"/>
        <pt x="428" y="123" on="0"/>
        <pt x="544" y="121" on="0"/>
        <pt x="613" y="121" on="1"/>
        <pt x="738" y="121" on="0"/>
        <pt x="891" y="222" on="0"/>
        <pt x="969" y="388" on="0"/>
        <pt x="996" y="586" on="0"/>
      </contour>
    </TTGlyph>
    <TTGlyph name="Dcaron" xMin="197" yMin="-8" xMax="1158" yMax="1755">
      <component glyphName="D" x="0" y="0" flags="0x204"/>
      <component glyphName="glyph00131" x="206" y="0" flags="0x4"/>
    </TTGlyph>
    <TTGlyph name="Dcroat" xMin="59" yMin="-8" xMax="1190" yMax="1372">
      <component glyphName="Eth" x="0" y="0" flags="0x204"/>
    </TTGlyph>
    <TTGlyph name="Delta" xMin="51" yMin="0" xMax="1141" yMax="1372">
      <contour>
        <pt x="74" y="0" on="1"/>
        <pt x="64" y="33" on="0"/>
        <pt x="54" y="71" on="0"/>
        <pt x="51" y="94" on="0"/>
        <pt x="51" y="103" on="1"/>
        <pt x="51" y="117" on="0"/>
        <pt x="56" y="139" on="0"/>
        <pt x="60" y="150" on="1"/>
        <pt x="509" y="1366" on="1"/>
        <pt x="527" y="1369" on="0"/>
        <pt x="579" y="1372" on="0"/>
        <pt x="599" y="1372" on="1"/>
        <pt x="616" y="1372" on="0"/>
        <pt x="669" y="1369" on="0"/>
        <pt x="682" y="1366" on="1"/>
        <pt x="1133" y="150" on="1"/>
        <pt x="1136" y="139" on="0"/>
        <pt x="1141" y="117" on="0"/>
        <pt x="1141" y="103" on="1"/>
        <pt x="1141" y="94" on="0"/>
        <pt x="1139" y="71" on="0"/>
        <pt x="1129" y="33" on="0"/>
        <pt x="1119" y="0" on="1"/>
      </contour>
      <contour>
        <pt x="969" y="146" on="1"/>
        <pt x="705" y="866" on="1"/>
        <pt x="676" y="944" on="0"/>
        <pt x="612" y="1134" on="0"/>
        <pt x="592" y="1202" on="1"/>
        <pt x="582" y="1202" on="1"/>
        <pt x="571" y="1162" on="0"/>
        <pt x="541" y="1072" on="0"/>
        <pt x="513" y="991" on="0"/>
        <pt x="504" y="965" on="1"/>
        <pt x="204" y="146" on="1"/>
        <pt x="210" y="138" on="1"/>
        <pt x="256" y="141" on="0"/>
        <pt x="373" y="144" on="0"/>
        <pt x="416" y="144" on="1"/>
        <pt x="766" y="144" on="1"/>
        <pt x="808" y="144" on="0"/>
        <pt x="920" y="139" on="0"/>
        <pt x="963" y="138" on="1"/>
      </contour>
    </TTGlyph>
    <TTGlyph name="E" xMin="197" yMin="0" xMax="1016" yMax="1366">
      <contour>
        <pt x="197" y="1354" on="1"/>
        <pt x="209" y="1366" on="1"/>
        <pt x="345" y="1366" on="1"/>
        <pt x="345" y="1240" on="1"/>
        <pt x="345" y="1198" on="0"/>
        <pt x="347" y="1152" on="0"/>
        <pt x="347" y="1111" on="1"/>
        <pt x="347" y="205" on="1"/>
        <pt x="347" y="185" on="0"/>
        <pt x="345" y="150" on="0"/>
        <pt x="345" y="128" on="1"/>
        <pt x="345" y="0" on="1"/>
        <pt x="285" y="0" on="1"/>
        <pt x="245" y="0" on="0"/>
        <pt x="197" y="53" on="0"/>
        <pt x="197" y="101" on="1"/>
      </contour>
      <contour>
        <pt x="880" y="757" on="1"/>
        <pt x="883" y="740" on="0"/>
        <pt x="886" y="704" on="0"/>
        <pt x="886" y="692" on="1"/>
        <pt x="886" y="679" on="0"/>
        <pt x="883" y="643" on="0"/>
        <pt x="880" y="626" on="1"/>
        <pt x="466" y="626" on="1"/>
        <pt x="444" y="626" on="0"/>
        <pt x="386" y="627" on="0"/>
        <pt x="323" y="628" on="0"/>
        <pt x="294" y="628" on="1"/>
        <pt x="294" y="755" on="1"/>
        <pt x="323" y="755" on="0"/>
        <pt x="386" y="756" on="0"/>
        <pt x="444" y="757" on="0"/>
        <pt x="466" y="757" on="1"/>
      </contour>
      <contour>
        <pt x="983" y="1366" on="1"/>
        <pt x="986" y="1348" on="0"/>
        <pt x="987" y="1317" on="0"/>
        <pt x="987" y="1304" on="1"/>
        <pt x="987" y="1291" on="0"/>
        <pt x="982" y="1252" on="0"/>
        <pt x="976" y="1234" on="1"/>
        <pt x="466" y="1234" on="1"/>
        <pt x="444" y="1234" on="0"/>
        <pt x="386" y="1234" on="0"/>
        <pt x="323" y="1235" on="0"/>
        <pt x="294" y="1236" on="1"/>
        <pt x="294" y="1366" on="1"/>
      </contour>
      <contour>
        <pt x="1016" y="133" on="1"/>
        <pt x="1016" y="55" on="0"/>
        <pt x="968" y="0" on="0"/>
        <pt x="913" y="0" on="1"/>
        <pt x="294" y="0" on="1"/>
        <pt x="294" y="125" on="1"/>
        <pt x="333" y="128" on="0"/>
        <pt x="413" y="133" on="0"/>
        <pt x="468" y="133" on="1"/>
      </contour>
    </TTGlyph>
    <TTGlyph name="Eacute" xMin="197" yMin="0" xMax="1016" yMax="1765">
      <component glyphName="E" x="0" y="0" flags="0x204"/>
      <component glyphName="glyph00128" x="200" y="0" flags="0x4"/>
    </TTGlyph>
    <TTGlyph name="Ebreve" xMin="197" yMin="0" xMax="1016" yMax="1731">
      <component glyphName="E" x="0" y="0" flags="0x204"/>
      <component glyphName="glyph00136" x="200" y="0" flags="0x4"/>
    </TTGlyph>
    <TTGlyph name="Ecaron" xMin="197" yMin="0" xMax="1016" yMax="1755">
      <component glyphName="E" x="0" y="0" flags="0x204"/>
      <component glyphName="glyph00131" x="200" y="0" flags="0x4"/>
    </TTGlyph>
    <TTGlyph name="Ecircumflex" xMin="197" yMin="0" xMax="1016" yMax="1757">
      <component glyphName="E" x="0" y="0" flags="0x204"/>
      <component glyphName="glyph00129" x="200" y="0" flags="0x4"/>
    </TTGlyph>
    <TTGlyph name="Edieresis" xMin="197" yMin="0" xMax="1016" yMax="1653">
      <component glyphName="E" x="0" y="0" flags="0x204"/>
      <component glyphName="glyph00130" x="200" y="0" flags="0x4"/>
    </TTGlyph>
    <TTGlyph name="Edotaccent" xMin="197" yMin="0" xMax="1016" yMax="1678">
      <component glyphName="E" x="0" y="0" flags="0x204"/>
      <component glyphName="glyph00134" x="200" y="0" flags="0x4"/>
    </TTGlyph>
    <TTGlyph name="Egrave" xMin="197" yMin="0" xMax="1016" yMax="1765">
      <component glyphName="E" x="0" y="0" flags="0x204"/>
      <component glyphName="glyph00127" x="200" y="0" flags="0x4"/>
    </TTGlyph>
    <TTGlyph name="Emacron" xMin="197" yMin="0" xMax="1016" yMax="1645">
      <component glyphName="E" x="0" y="0" flags="0x204"/>
      <component glyphName="glyph00135" x="200" y="0" flags="0x4"/>
    </TTGlyph>
    <TTGlyph name="Eng" xMin="197" yMin="-448" xMax="1145" yMax="1372">
      <contour>
        <pt x="659" y="-287" on="1"/>
        <pt x="739" y="-321" on="0"/>
        <pt x="806" y="-321" on="1"/>
        <pt x="910" y="-321" on="0"/>
        <pt x="1007" y="-172" on="0"/>
        <pt x="1007" y="-29" on="1"/>
        <pt x="1007" y="76" on="1"/>
        <pt x="1022" y="79" on="0"/>
        <pt x="1059" y="83" on="0"/>
        <pt x="1079" y="83" on="1"/>
        <pt x="1096" y="83" on="0"/>
        <pt x="1132" y="80" on="0"/>
        <pt x="1145" y="76" on="1"/>
        <pt x="1145" y="0" on="1"/>
        <pt x="1145" y="-146" on="0"/>
        <pt x="1071" y="-346" on="0"/>
        <pt x="920" y="-448" on="0"/>
        <pt x="805" y="-448" on="1"/>
        <pt x="767" y="-448" on="0"/>
        <pt x="656" y="-425" on="0"/>
        <pt x="611" y="-403" on="1"/>
        <pt x="623" y="-336" on="0"/>
      </contour>
      <contour>
        <pt x="197" y="1366" on="1"/>
        <pt x="210" y="1368" on="0"/>
        <pt x="247" y="1371" on="0"/>
        <pt x="280" y="1372" on="0"/>
        <pt x="289" y="1372" on="1"/>
        <pt x="305" y="1372" on="0"/>
        <pt x="364" y="1369" on="0"/>
        <pt x="384" y="1366" on="1"/>
        <pt x="342" y="1182" on="1"/>
        <pt x="328" y="1181" on="1"/>
        <pt x="330" y="1120" on="0"/>
        <pt x="336" y="973" on="0"/>
        <pt x="340" y="820" on="0"/>
        <pt x="340" y="750" on="1"/>
        <pt x="340" y="0" on="1"/>
        <pt x="320" y="-3" on="0"/>
        <pt x="284" y="-6" on="0"/>
        <pt x="268" y="-6" on="1"/>
        <pt x="252" y="-6" on="0"/>
        <pt x="216" y="-3" on="0"/>
        <pt x="197" y="0" on="1"/>
      </contour>
      <contour>
        <pt x="470" y="907" on="1"/>
        <pt x="432" y="979" on="0"/>
        <pt x="366" y="1115" on="0"/>
        <pt x="334" y="1182" on="1"/>
        <pt x="197" y="1345" on="1"/>
        <pt x="384" y="1366" on="1"/>
        <pt x="870" y="459" on="1"/>
        <pt x="909" y="386" on="0"/>
        <pt x="977" y="243" on="0"/>
        <pt x="1009" y="178" on="1"/>
        <pt x="1145" y="40" on="1"/>
        <pt x="957" y="0" on="1"/>
      </contour>
      <contour>
        <pt x="1145" y="1362" on="1"/>
        <pt x="1145" y="0" on="1"/>
        <pt x="1133" y="-2" on="0"/>
        <pt x="1096" y="-5" on="0"/>
        <pt x="1061" y="-6" on="0"/>
        <pt x="1052" y="-6" on="1"/>
        <pt x="1037" y="-6" on="0"/>
        <pt x="976" y="-3" on="0"/>
        <pt x="957" y="0" on="1"/>
        <pt x="1001" y="178" on="1"/>
        <pt x="1015" y="178" on="1"/>
        <pt x="1012" y="251" on="0"/>
        <pt x="1006" y="409" on="0"/>
        <pt x="1003" y="565" on="0"/>
        <pt x="1003" y="634" on="1"/>
        <pt x="1003" y="1273" on="1"/>
        <pt x="1003" y="1323" on="0"/>
        <pt x="1032" y="1372" on="0"/>
        <pt x="1082" y="1372" on="1"/>
        <pt x="1133" y="1372" on="1"/>
      </contour>
    </TTGlyph>
    <TTGlyph name="Eogonek" xMin="197" yMin="-434" xMax="1026" yMax="1366">
      <contour>
        <pt x="988" y="-290" on="1"/>
        <pt x="1003" y="-302" on="0"/>
        <pt x="1025" y="-343" on="0"/>
        <pt x="1026" y="-369" on="1"/>
        <pt x="992" y="-396" on="0"/>
        <pt x="884" y="-434" on="0"/>
        <pt x="827" y="-434" on="1"/>
        <pt x="741" y="-434" on="0"/>
        <pt x="625" y="-340" on="0"/>
        <pt x="625" y="-253" on="1"/>
        <pt x="625" y="-165" on="0"/>
        <pt x="748" y="-10" on="0"/>
        <pt x="841" y="35" on="1"/>
        <pt x="870" y="41" on="0"/>
        <pt x="945" y="22" on="0"/>
        <pt x="960" y="6" on="1"/>
        <pt x="869" y="-32" on="0"/>
        <pt x="757" y="-163" on="0"/>
        <pt x="757" y="-225" on="1"/>
        <pt x="757" y="-274" on="0"/>
        <pt x="816" y="-325" on="0"/>
        <pt x="861" y="-325" on="1"/>
        <pt x="897" y="-325" on="0"/>
        <pt x="963" y="-303" on="0"/>
      </contour>
      <contour>
        <pt x="197" y="1354" on="1"/>
        <pt x="209" y="1366" on="1"/>
        <pt x="345" y="1366" on="1"/>
        <pt x="345" y="1240" on="1"/>
        <pt x="345" y="1198" on="0"/>
        <pt x="347" y="1152" on="0"/>
        <pt x="347" y="1111" on="1"/>
        <pt x="347" y="205" on="1"/>
        <pt x="347" y="185" on="0"/>
        <pt x="345" y="150" on="0"/>
        <pt x="345" y="128" on="1"/>
        <pt x="345" y="0" on="1"/>
        <pt x="285" y="0" on="1"/>
        <pt x="245" y="0" on="0"/>
        <pt x="197" y="53" on="0"/>
        <pt x="197" y="101" on="1"/>
      </contour>
      <contour>
        <pt x="880" y="757" on="1"/>
        <pt x="883" y="740" on="0"/>
        <pt x="886" y="704" on="0"/>
        <pt x="886" y="692" on="1"/>
        <pt x="886" y="679" on="0"/>
        <pt x="883" y="643" on="0"/>
        <pt x="880" y="626" on="1"/>
        <pt x="466" y="626" on="1"/>
        <pt x="444" y="626" on="0"/>
        <pt x="386" y="627" on="0"/>
        <pt x="323" y="628" on="0"/>
        <pt x="294" y="628" on="1"/>
        <pt x="294" y="755" on="1"/>
        <pt x="323" y="755" on="0"/>
        <pt x="386" y="756" on="0"/>
        <pt x="444" y="757" on="0"/>
        <pt x="466" y="757" on="1"/>
      </contour>
      <contour>
        <pt x="983" y="1366" on="1"/>
        <pt x="986" y="1348" on="0"/>
        <pt x="987" y="1317" on="0"/>
        <pt x="987" y="1304" on="1"/>
        <pt x="987" y="1291" on="0"/>
        <pt x="982" y="1252" on="0"/>
        <pt x="976" y="1234" on="1"/>
        <pt x="466" y="1234" on="1"/>
        <pt x="444" y="1234" on="0"/>
        <pt x="386" y="1234" on="0"/>
        <pt x="323" y="1235" on="0"/>
        <pt x="294" y="1236" on="1"/>
        <pt x="294" y="1366" on="1"/>
      </contour>
      <contour>
        <pt x="1016" y="133" on="1"/>
        <pt x="1016" y="69" on="0"/>
        <pt x="988" y="18" on="0"/>
        <pt x="960" y="6" on="1"/>
        <pt x="941" y="0" on="0"/>
        <pt x="913" y="0" on="1"/>
        <pt x="294" y="0" on="1"/>
        <pt x="294" y="125" on="1"/>
        <pt x="333" y="128" on="0"/>
        <pt x="413" y="133" on="0"/>
        <pt x="468" y="133" on="1"/>
      </contour>
    </TTGlyph>
    <TTGlyph name="Eth" xMin="59" yMin="-8" xMax="1190" yMax="1372">
      <contour>
        <pt x="1190" y="684" on="1"/>
        <pt x="1190" y="567" on="0"/>
        <pt x="1160" y="353" on="0"/>
        <pt x="1072" y="168" on="0"/>
        <pt x="985" y="94" on="1"/>
        <pt x="942" y="58" on="0"/>
        <pt x="823" y="13" on="0"/>
        <pt x="698" y="-8" on="0"/>
        <pt x="647" y="-8" on="1"/>
        <pt x="569" y="-8" on="0"/>
        <pt x="451" y="-6" on="0"/>
        <pt x="328" y="-2" on="0"/>
        <pt x="241" y="0" on="1"/>
        <pt x="229" y="12" on="1"/>
        <pt x="229" y="1354" on="1"/>
        <pt x="241" y="1366" on="1"/>
        <pt x="328" y="1369" on="0"/>
        <pt x="451" y="1372" on="0"/>
        <pt x="569" y="1372" on="0"/>
        <pt x="647" y="1372" on="1"/>
        <pt x="698" y="1372" on="0"/>
        <pt x="823" y="1351" on="0"/>
        <pt x="942" y="1306" on="0"/>
        <pt x="985" y="1270" on="1"/>
        <pt x="1071" y="1196" on="0"/>
        <pt x="1159" y="1012" on="0"/>
        <pt x="1190" y="800" on="0"/>
      </contour>
      <contour>
        <pt x="1028" y="684" on="1"/>
        <pt x="1028" y="781" on="0"/>
        <pt x="1001" y="978" on="0"/>
        <pt x="923" y="1143" on="0"/>
        <pt x="770" y="1243" on="0"/>
        <pt x="645" y="1243" on="1"/>
        <pt x="576" y="1243" on="0"/>
        <pt x="459" y="1245" on="0"/>
        <pt x="382" y="1245" on="1"/>
        <pt x="382" y="123" on="1"/>
        <pt x="459" y="123" on="0"/>
        <pt x="576" y="121" on="0"/>
        <pt x="645" y="121" on="1"/>
        <pt x="770" y="121" on="0"/>
        <pt x="923" y="223" on="0"/>
        <pt x="1001" y="389" on="0"/>
        <pt x="1028" y="588" on="0"/>
      </contour>
      <contour>
        <pt x="65" y="626" on="1"/>
        <pt x="62" y="641" on="0"/>
        <pt x="59" y="670" on="0"/>
        <pt x="59" y="690" on="1"/>
        <pt x="59" y="711" on="0"/>
        <pt x="62" y="742" on="0"/>
        <pt x="65" y="758" on="1"/>
        <pt x="722" y="758" on="1"/>
        <pt x="725" y="742" on="0"/>
        <pt x="728" y="712" on="0"/>
        <pt x="728" y="690" on="1"/>
        <pt x="728" y="670" on="0"/>
        <pt x="725" y="641" on="0"/>
        <pt x="722" y="626" on="1"/>
      </contour>
    </TTGlyph>
    <TTGlyph name="Euro" xMin="59" yMin="-24" xMax="1076" yMax="1320">
      <contour>
        <pt x="66" y="731" on="1"/>
        <pt x="62" y="745" on="0"/>
        <pt x="59" y="766" on="0"/>
        <pt x="59" y="785" on="1"/>
        <pt x="59" y="806" on="0"/>
        <pt x="62" y="828" on="0"/>
        <pt x="66" y="844" on="1"/>
        <pt x="832" y="844" on="1"/>
        <pt x="835" y="828" on="0"/>
        <pt x="838" y="806" on="0"/>
        <pt x="838" y="785" on="1"/>
        <pt x="838" y="766" on="0"/>
        <pt x="835" y="745" on="0"/>
        <pt x="832" y="731" on="1"/>
      </contour>
      <contour>
        <pt x="66" y="445" on="1"/>
        <pt x="62" y="459" on="0"/>
        <pt x="59" y="480" on="0"/>
        <pt x="59" y="499" on="1"/>
        <pt x="59" y="520" on="0"/>
        <pt x="62" y="542" on="0"/>
        <pt x="66" y="557" on="1"/>
        <pt x="832" y="557" on="1"/>
        <pt x="835" y="542" on="0"/>
        <pt x="838" y="520" on="0"/>
        <pt x="838" y="499" on="1"/>
        <pt x="838" y="480" on="0"/>
        <pt x="835" y="459" on="0"/>
        <pt x="832" y="445" on="1"/>
      </contour>
      <contour>
        <pt x="997" y="1066" on="1"/>
        <pt x="921" y="1123" on="0"/>
        <pt x="756" y="1186" on="0"/>
        <pt x="687" y="1186" on="1"/>
        <pt x="521" y="1186" on="0"/>
        <pt x="363" y="915" on="0"/>
        <pt x="363" y="648" on="1"/>
        <pt x="363" y="381" on="0"/>
        <pt x="521" y="110" on="0"/>
        <pt x="687" y="110" on="1"/>
        <pt x="756" y="110" on="0"/>
        <pt x="921" y="173" on="0"/>
        <pt x="997" y="230" on="1"/>
        <pt x="1025" y="213" on="0"/>
        <pt x="1067" y="156" on="0"/>
        <pt x="1076" y="129" on="1"/>
        <pt x="982" y="51" on="0"/>
        <pt x="768" y="-24" on="0"/>
        <pt x="669" y="-24" on="1"/>
        <pt x="536" y="-24" on="0"/>
        <pt x="357" y="83" on="0"/>
        <pt x="251" y="270" on="0"/>
        <pt x="206" y="513" on="0"/>
        <pt x="206" y="648" on="1"/>
        <pt x="206" y="783" on="0"/>
        <pt x="251" y="1026" on="0"/>
        <pt x="357" y="1213" on="0"/>
        <pt x="536" y="1320" on="0"/>
        <pt x="669" y="1320" on="1"/>
        <pt x="768" y="1320" on="0"/>
        <pt x="983" y="1242" on="0"/>
        <pt x="1076" y="1167" on="1"/>
        <pt x="1067" y="1140" on="0"/>
        <pt x="1025" y="1083" on="0"/>
      </contour>
    </TTGlyph>
    <TTGlyph name="F" xMin="197" yMin="-6" xMax="977" yMax="1366">
      <contour>
        <pt x="351" y="0" on="1"/>
        <pt x="335" y="-3" on="0"/>
        <pt x="294" y="-6" on="0"/>
        <pt x="273" y="-6" on="1"/>
        <pt x="252" y="-6" on="0"/>
        <pt x="212" y="-3" on="0"/>
        <pt x="197" y="0" on="1"/>
        <pt x="197" y="1354" on="1"/>
        <pt x="210" y="1366" on="1"/>
        <pt x="349" y="1366" on="1"/>
        <pt x="349" y="1255" on="1"/>
        <pt x="349" y="1181" on="0"/>
        <pt x="351" y="1031" on="0"/>
        <pt x="351" y="957" on="1"/>
      </contour>
      <contour>
        <pt x="967" y="1366" on="1"/>
        <pt x="972" y="1352" on="0"/>
        <pt x="977" y="1318" on="0"/>
        <pt x="977" y="1303" on="1"/>
        <pt x="977" y="1266" on="0"/>
        <pt x="932" y="1232" on="0"/>
        <pt x="885" y="1232" on="1"/>
        <pt x="567" y="1232" on="1"/>
        <pt x="480" y="1232" on="0"/>
        <pt x="345" y="1236" on="0"/>
        <pt x="293" y="1240" on="1"/>
        <pt x="293" y="1366" on="1"/>
      </contour>
      <contour>
        <pt x="870" y="757" on="1"/>
        <pt x="873" y="740" on="0"/>
        <pt x="876" y="704" on="0"/>
        <pt x="876" y="691" on="1"/>
        <pt x="876" y="679" on="0"/>
        <pt x="873" y="643" on="0"/>
        <pt x="870" y="626" on="1"/>
        <pt x="461" y="626" on="1"/>
        <pt x="427" y="626" on="0"/>
        <pt x="336" y="628" on="0"/>
        <pt x="293" y="628" on="1"/>
        <pt x="293" y="755" on="1"/>
        <pt x="336" y="755" on="0"/>
        <pt x="427" y="757" on="0"/>
        <pt x="461" y="757" on="1"/>
      </contour>
    </TTGlyph>
    <TTGlyph name="G" xMin="114" yMin="-24" xMax="1134" yMax="1390">
      <contour>
        <pt x="1132" y="1241" on="1"/>
        <pt x="1123" y="1202" on="0"/>
        <pt x="1074" y="1138" on="0"/>
        <pt x="1051" y="1122" on="1"/>
        <pt x="976" y="1182" on="0"/>
        <pt x="784" y="1253" on="0"/>
        <pt x="673" y="1253" on="1"/>
        <pt x="569" y="1253" on="0"/>
        <pt x="388" y="1144" on="0"/>
        <pt x="275" y="890" on="0"/>
        <pt x="275" y="672" on="1"/>
        <pt x="275" y="394" on="0"/>
        <pt x="482" y="110" on="0"/>
        <pt x="687" y="110" on="1"/>
        <pt x="821" y="110" on="0"/>
        <pt x="1007" y="163" on="0"/>
        <pt x="1057" y="187" on="1"/>
        <pt x="1134" y="63" on="1"/>
        <pt x="1043" y="26" on="0"/>
        <pt x="797" y="-24" on="0"/>
        <pt x="659" y="-24" on="1"/>
        <pt x="503" y="-24" on="0"/>
        <pt x="293" y="96" on="0"/>
        <pt x="168" y="297" on="0"/>
        <pt x="114" y="545" on="0"/>
        <pt x="114" y="674" on="1"/>
        <pt x="114" y="869" on="0"/>
        <pt x="211" y="1142" on="0"/>
        <pt x="375" y="1312" on="0"/>
        <pt x="578" y="1390" on="0"/>
        <pt x="683" y="1390" on="1"/>
        <pt x="804" y="1390" on="0"/>
        <pt x="1048" y="1311" on="0"/>
      </contour>
      <contour>
        <pt x="984" y="429" on="1"/>
        <pt x="984" y="498" on="0"/>
        <pt x="990" y="595" on="0"/>
        <pt x="998" y="630" on="1"/>
        <pt x="1134" y="582" on="1"/>
        <pt x="1134" y="63" on="1"/>
        <pt x="984" y="59" on="1"/>
      </contour>
      <contour>
        <pt x="1015" y="687" on="1"/>
        <pt x="1081" y="687" on="0"/>
        <pt x="1134" y="636" on="0"/>
        <pt x="1134" y="582" on="1"/>
        <pt x="1134" y="554" on="1"/>
        <pt x="1077" y="553" on="0"/>
        <pt x="945" y="551" on="0"/>
        <pt x="819" y="550" on="0"/>
        <pt x="768" y="550" on="1"/>
        <pt x="733" y="550" on="0"/>
        <pt x="698" y="585" on="0"/>
        <pt x="698" y="621" on="1"/>
        <pt x="698" y="634" on="0"/>
        <pt x="705" y="673" on="0"/>
        <pt x="710" y="687" on="1"/>
      </contour>
    </TTGlyph>
    <TTGlyph name="Gbreve" xMin="114" yMin="-24" xMax="1134" yMax="1731">
      <component glyphName="G" x="0" y="0" flags="0x204"/>
      <component glyphName="glyph00136" x="285" y="0" flags="0x4"/>
    </TTGlyph>
    <TTGlyph name="Gcircumflex" xMin="114" yMin="-24" xMax="1134" yMax="1757">
      <component glyphName="G" x="0" y="0" flags="0x204"/>
      <component glyphName="glyph00129" x="285" y="0" flags="0x4"/>
    </TTGlyph>
    <TTGlyph name="Gdotaccent" xMin="114" yMin="-24" xMax="1134" yMax="1678">
      <component glyphName="G" x="0" y="0" flags="0x204"/>
      <component glyphName="glyph00134" x="285" y="0" flags="0x4"/>
    </TTGlyph>
    <TTGlyph name="H" xMin="197" yMin="-6" xMax="1139" yMax="1372">
      <contour>
        <pt x="470" y="638" on="1"/>
        <pt x="463" y="638" on="0"/>
        <pt x="410" y="639" on="0"/>
        <pt x="356" y="640" on="0"/>
        <pt x="349" y="640" on="1"/>
        <pt x="327" y="640" on="0"/>
        <pt x="282" y="638" on="0"/>
        <pt x="259" y="638" on="1"/>
        <pt x="259" y="774" on="1"/>
        <pt x="282" y="774" on="0"/>
        <pt x="327" y="772" on="0"/>
        <pt x="349" y="772" on="1"/>
        <pt x="356" y="772" on="0"/>
        <pt x="410" y="773" on="0"/>
        <pt x="463" y="774" on="0"/>
        <pt x="470" y="774" on="1"/>
        <pt x="866" y="774" on="1"/>
        <pt x="873" y="774" on="0"/>
        <pt x="926" y="773" on="0"/>
        <pt x="980" y="772" on="0"/>
        <pt x="987" y="772" on="1"/>
        <pt x="1010" y="772" on="0"/>
        <pt x="1055" y="774" on="0"/>
        <pt x="1077" y="774" on="1"/>
        <pt x="1077" y="638" on="1"/>
        <pt x="1055" y="638" on="0"/>
        <pt x="1010" y="640" on="0"/>
        <pt x="987" y="640" on="1"/>
        <pt x="980" y="640" on="0"/>
        <pt x="926" y="639" on="0"/>
        <pt x="873" y="638" on="0"/>
        <pt x="866" y="638" on="1"/>
      </contour>
      <contour>
        <pt x="351" y="0" on="1"/>
        <pt x="335" y="-3" on="0"/>
        <pt x="294" y="-6" on="0"/>
        <pt x="272" y="-6" on="1"/>
        <pt x="252" y="-6" on="0"/>
        <pt x="212" y="-3" on="0"/>
        <pt x="197" y="0" on="1"/>
        <pt x="197" y="1366" on="1"/>
        <pt x="212" y="1369" on="0"/>
        <pt x="252" y="1372" on="0"/>
        <pt x="272" y="1372" on="1"/>
        <pt x="294" y="1372" on="0"/>
        <pt x="335" y="1369" on="0"/>
        <pt x="351" y="1366" on="1"/>
        <pt x="351" y="920" on="1"/>
        <pt x="351" y="878" on="0"/>
        <pt x="349" y="812" on="0"/>
        <pt x="349" y="772" on="1"/>
        <pt x="349" y="640" on="1"/>
        <pt x="349" y="600" on="0"/>
        <pt x="351" y="534" on="0"/>
        <pt x="351" y="492" on="1"/>
      </contour>
      <contour>
        <pt x="985" y="492" on="1"/>
        <pt x="985" y="534" on="0"/>
        <pt x="987" y="600" on="0"/>
        <pt x="987" y="640" on="1"/>
        <pt x="987" y="772" on="1"/>
        <pt x="987" y="812" on="0"/>
        <pt x="985" y="878" on="0"/>
        <pt x="985" y="920" on="1"/>
        <pt x="985" y="1366" on="1"/>
        <pt x="1000" y="1369" on="0"/>
        <pt x="1040" y="1372" on="0"/>
        <pt x="1060" y="1372" on="1"/>
        <pt x="1081" y="1372" on="0"/>
        <pt x="1122" y="1369" on="0"/>
        <pt x="1139" y="1366" on="1"/>
        <pt x="1139" y="0" on="1"/>
        <pt x="1122" y="-3" on="0"/>
        <pt x="1082" y="-6" on="0"/>
        <pt x="1060" y="-6" on="1"/>
        <pt x="1040" y="-6" on="0"/>
        <pt x="1000" y="-3" on="0"/>
        <pt x="985" y="0" on="1"/>
      </contour>
    </TTGlyph>
    <TTGlyph name="Hbar" xMin="52" yMin="-6" xMax="1304" yMax="1372">
      <contour>
        <pt x="58" y="995" on="1"/>
        <pt x="52" y="1023" on="0"/>
        <pt x="52" y="1058" on="1"/>
        <pt x="52" y="1079" on="0"/>
        <pt x="55" y="1109" on="0"/>
        <pt x="58" y="1125" on="1"/>
        <pt x="1298" y="1125" on="1"/>
        <pt x="1301" y="1109" on="0"/>
        <pt x="1304" y="1080" on="0"/>
        <pt x="1304" y="1058" on="1"/>
        <pt x="1304" y="1023" on="0"/>
        <pt x="1298" y="995" on="1"/>
      </contour>
      <contour>
        <pt x="480" y="638" on="1"/>
        <pt x="473" y="638" on="0"/>
        <pt x="420" y="639" on="0"/>
        <pt x="366" y="640" on="0"/>
        <pt x="359" y="640" on="1"/>
        <pt x="336" y="640" on="0"/>
        <pt x="291" y="638" on="0"/>
        <pt x="269" y="638" on="1"/>
        <pt x="269" y="773" on="1"/>
        <pt x="291" y="773" on="0"/>
        <pt x="336" y="771" on="0"/>
        <pt x="359" y="771" on="1"/>
        <pt x="366" y="771" on="0"/>
        <pt x="420" y="772" on="0"/>
        <pt x="473" y="773" on="0"/>
        <pt x="480" y="773" on="1"/>
        <pt x="876" y="773" on="1"/>
        <pt x="883" y="773" on="0"/>
        <pt x="936" y="772" on="0"/>
        <pt x="990" y="771" on="0"/>
        <pt x="997" y="771" on="1"/>
        <pt x="1019" y="771" on="0"/>
        <pt x="1064" y="773" on="0"/>
        <pt x="1087" y="773" on="1"/>
        <pt x="1087" y="638" on="1"/>
        <pt x="1064" y="638" on="0"/>
        <pt x="1019" y="640" on="0"/>
        <pt x="997" y="640" on="1"/>
        <pt x="990" y="640" on="0"/>
        <pt x="936" y="639" on="0"/>
        <pt x="883" y="638" on="0"/>
        <pt x="876" y="638" on="1"/>
      </contour>
      <contour>
        <pt x="361" y="0" on="1"/>
        <pt x="345" y="-3" on="0"/>
        <pt x="304" y="-6" on="0"/>
        <pt x="282" y="-6" on="1"/>
        <pt x="262" y="-6" on="0"/>
        <pt x="222" y="-3" on="0"/>
        <pt x="207" y="0" on="1"/>
        <pt x="207" y="1366" on="1"/>
        <pt x="222" y="1369" on="0"/>
        <pt x="262" y="1372" on="0"/>
        <pt x="282" y="1372" on="1"/>
        <pt x="304" y="1372" on="0"/>
        <pt x="345" y="1369" on="0"/>
        <pt x="361" y="1366" on="1"/>
        <pt x="361" y="919" on="1"/>
        <pt x="361" y="877" on="0"/>
        <pt x="359" y="812" on="0"/>
        <pt x="359" y="771" on="1"/>
        <pt x="359" y="640" on="1"/>
        <pt x="359" y="599" on="0"/>
        <pt x="361" y="534" on="0"/>
        <pt x="361" y="492" on="1"/>
      </contour>
      <contour>
        <pt x="995" y="492" on="1"/>
        <pt x="995" y="534" on="0"/>
        <pt x="997" y="599" on="0"/>
        <pt x="997" y="640" on="1"/>
        <pt x="997" y="771" on="1"/>
        <pt x="997" y="812" on="0"/>
        <pt x="995" y="877" on="0"/>
        <pt x="995" y="919" on="1"/>
        <pt x="995" y="1366" on="1"/>
        <pt x="1010" y="1369" on="0"/>
        <pt x="1050" y="1372" on="0"/>
        <pt x="1070" y="1372" on="1"/>
        <pt x="1091" y="1372" on="0"/>
        <pt x="1132" y="1369" on="0"/>
        <pt x="1149" y="1366" on="1"/>
        <pt x="1149" y="0" on="1"/>
        <pt x="1132" y="-3" on="0"/>
        <pt x="1092" y="-6" on="0"/>
        <pt x="1070" y="-6" on="1"/>
        <pt x="1050" y="-6" on="0"/>
        <pt x="1010" y="-3" on="0"/>
        <pt x="995" y="0" on="1"/>
      </contour>
    </TTGlyph>
    <TTGlyph name="Hcircumflex" xMin="197" yMin="-6" xMax="1139" yMax="1757">
      <component glyphName="H" x="0" y="0" flags="0x204"/>
      <component glyphName="glyph00129" x="269" y="0" flags="0x4"/>
    </TTGlyph>
    <TTGlyph name="I" xMin="205" yMin="-6" xMax="359" yMax="1372">
      <contour>
        <pt x="205" y="1366" on="1"/>
        <pt x="220" y="1369" on="0"/>
        <pt x="260" y="1372" on="0"/>
        <pt x="280" y="1372" on="1"/>
        <pt x="302" y="1372" on="0"/>
        <pt x="342" y="1369" on="0"/>
        <pt x="359" y="1366" on="1"/>
        <pt x="359" y="0" on="1"/>
        <pt x="342" y="-3" on="0"/>
        <pt x="302" y="-6" on="0"/>
        <pt x="280" y="-6" on="1"/>
        <pt x="260" y="-6" on="0"/>
        <pt x="220" y="-3" on="0"/>
        <pt x="205" y="0" on="1"/>
      </contour>
    </TTGlyph>
    <TTGlyph name="IJ" xMin="205" yMin="-20" xMax="1265" yMax="1372">
      <component glyphName="I" x="0" y="0" flags="0x4"/>
      <component glyphName="J" x="563" y="0" flags="0x4"/>
    </TTGlyph>
    <TTGlyph name="Iacute" xMin="106" yMin="-6" xMax="564" yMax="1765">
      <component glyphName="I" x="0" y="0" flags="0x204"/>
      <component glyphName="glyph00128" x="-116" y="0" flags="0x4"/>
    </TTGlyph>
    <TTGlyph name="Ibreve" xMin="-31" yMin="-6" xMax="595" yMax="1731">
      <component glyphName="I" x="0" y="0" flags="0x204"/>
      <component glyphName="glyph00136" x="-116" y="0" flags="0x4"/>
    </TTGlyph>
    <TTGlyph name="Icircumflex" xMin="-10" yMin="-6" xMax="574" yMax="1757">
      <component glyphName="I" x="0" y="0" flags="0x204"/>
      <component glyphName="glyph00129" x="-116" y="0" flags="0x4"/>
    </TTGlyph>
    <TTGlyph name="Idieresis" xMin="-13" yMin="-6" xMax="577" yMax="1653">
      <component glyphName="I" x="0" y="0" flags="0x204"/>
      <component glyphName="glyph00130" x="-116" y="0" flags="0x4"/>
    </TTGlyph>
    <TTGlyph name="Idotaccent" xMin="178" yMin="-6" xMax="386" yMax="1678">
      <component glyphName="I" x="0" y="0" flags="0x204"/>
      <component glyphName="glyph00134" x="-116" y="0" flags="0x4"/>
    </TTGlyph>
    <TTGlyph name="Igrave" xMin="29" yMin="-6" xMax="488" yMax="1765">
      <component glyphName="I" x="0" y="0" flags="0x204"/>
      <component glyphName="glyph00127" x="-116" y="0" flags="0x4"/>
    </TTGlyph>
    <TTGlyph name="Imacron" xMin="-7" yMin="-6" xMax="571" yMax="1645">
      <component glyphName="I" x="0" y="0" flags="0x204"/>
      <component glyphName="glyph00135" x="-116" y="0" flags="0x4"/>
    </TTGlyph>
    <TTGlyph name="Iogonek" xMin="69" yMin="-434" xMax="470" yMax="1372">
      <component glyphName="I" x="0" y="0" flags="0x204"/>
      <component glyphName="glyph00140" x="-122" y="0" flags="0x4"/>
    </TTGlyph>
    <TTGlyph name="Itilde" xMin="-57" yMin="-6" xMax="622" yMax="1720">
      <component glyphName="I" x="0" y="0" flags="0x204"/>
      <component glyphName="glyph00133" x="-116" y="0" flags="0x4"/>
    </TTGlyph>
    <TTGlyph name="J" xMin="20" yMin="-20" xMax="702" yMax="1372">
      <contour>
        <pt x="83" y="179" on="1"/>
        <pt x="129" y="151" on="0"/>
        <pt x="256" y="112" on="0"/>
        <pt x="316" y="112" on="1"/>
        <pt x="446" y="112" on="0"/>
        <pt x="549" y="269" on="0"/>
        <pt x="549" y="452" on="1"/>
        <pt x="549" y="1366" on="1"/>
        <pt x="565" y="1369" on="0"/>
        <pt x="606" y="1372" on="0"/>
        <pt x="627" y="1372" on="1"/>
        <pt x="647" y="1372" on="0"/>
        <pt x="687" y="1369" on="0"/>
        <pt x="702" y="1366" on="1"/>
        <pt x="702" y="482" on="1"/>
        <pt x="702" y="377" on="0"/>
        <pt x="676" y="195" on="0"/>
        <pt x="598" y="57" on="0"/>
        <pt x="447" y="-20" on="0"/>
        <pt x="323" y="-20" on="1"/>
        <pt x="247" y="-20" on="0"/>
        <pt x="82" y="24" on="0"/>
        <pt x="20" y="62" on="1"/>
        <pt x="28" y="97" on="0"/>
        <pt x="59" y="155" on="0"/>
      </contour>
    </TTGlyph>
    <TTGlyph name="Jcircumflex" xMin="20" yMin="-20" xMax="919" yMax="1757">
      <component glyphName="J" x="0" y="0" flags="0x204"/>
      <component glyphName="glyph00129" x="229" y="0" flags="0x4"/>
    </TTGlyph>
    <TTGlyph name="K" xMin="197" yMin="-10" xMax="1122" yMax="1372">
      <contour>
        <pt x="197" y="1366" on="1"/>
        <pt x="212" y="1369" on="0"/>
        <pt x="252" y="1372" on="0"/>
        <pt x="272" y="1372" on="1"/>
        <pt x="294" y="1372" on="0"/>
        <pt x="335" y="1369" on="0"/>
        <pt x="351" y="1366" on="1"/>
        <pt x="351" y="0" on="1"/>
        <pt x="335" y="-3" on="0"/>
        <pt x="294" y="-6" on="0"/>
        <pt x="272" y="-6" on="1"/>
        <pt x="252" y="-6" on="0"/>
        <pt x="212" y="-3" on="0"/>
        <pt x="197" y="0" on="1"/>
      </contour>
      <contour>
        <pt x="1122" y="42" on="1"/>
        <pt x="1106" y="17" on="0"/>
        <pt x="1042" y="-10" on="0"/>
        <pt x="1016" y="-10" on="1"/>
        <pt x="966" y="-10" on="0"/>
        <pt x="924" y="41" on="0"/>
        <pt x="905" y="90" on="1"/>
        <pt x="778" y="415" on="1"/>
        <pt x="730" y="539" on="0"/>
        <pt x="612" y="636" on="0"/>
        <pt x="513" y="636" on="1"/>
        <pt x="489" y="636" on="0"/>
        <pt x="369" y="634" on="0"/>
        <pt x="270" y="630" on="1"/>
        <pt x="270" y="739" on="1"/>
        <pt x="583" y="739" on="1"/>
        <pt x="680" y="739" on="0"/>
        <pt x="801" y="683" on="0"/>
        <pt x="882" y="567" on="0"/>
        <pt x="917" y="476" on="1"/>
        <pt x="1041" y="164" on="1"/>
        <pt x="1054" y="130" on="0"/>
        <pt x="1080" y="85" on="0"/>
        <pt x="1108" y="54" on="0"/>
      </contour>
      <contour>
        <pt x="859" y="1296" on="1"/>
        <pt x="880" y="1332" on="0"/>
        <pt x="921" y="1370" on="0"/>
        <pt x="966" y="1370" on="1"/>
        <pt x="987" y="1370" on="0"/>
        <pt x="1026" y="1368" on="0"/>
        <pt x="1048" y="1366" on="1"/>
        <pt x="1061" y="1350" on="1"/>
        <pt x="724" y="807" on="1"/>
        <pt x="687" y="747" on="0"/>
        <pt x="578" y="675" on="0"/>
        <pt x="503" y="675" on="1"/>
        <pt x="270" y="675" on="1"/>
        <pt x="270" y="766" on="1"/>
        <pt x="319" y="769" on="0"/>
        <pt x="449" y="772" on="0"/>
        <pt x="496" y="772" on="1"/>
        <pt x="522" y="772" on="0"/>
        <pt x="549" y="796" on="0"/>
        <pt x="565" y="821" on="1"/>
      </contour>
    </TTGlyph>
    <TTGlyph name="L" xMin="197" yMin="0" xMax="949" yMax="1372">
      <contour>
        <pt x="351" y="0" on="1"/>
        <pt x="287" y="0" on="1"/>
        <pt x="250" y="0" on="0"/>
        <pt x="197" y="51" on="0"/>
        <pt x="197" y="103" on="1"/>
        <pt x="197" y="1360" on="1"/>
        <pt x="209" y="1372" on="1"/>
        <pt x="271" y="1372" on="1"/>
        <pt x="321" y="1372" on="0"/>
        <pt x="351" y="1322" on="0"/>
        <pt x="351" y="1273" on="1"/>
      </contour>
      <contour>
        <pt x="949" y="136" on="1"/>
        <pt x="949" y="53" on="0"/>
        <pt x="901" y="0" on="0"/>
        <pt x="847" y="0" on="1"/>
        <pt x="287" y="0" on="1"/>
        <pt x="211" y="114" on="1"/>
        <pt x="282" y="126" on="0"/>
        <pt x="454" y="136" on="0"/>
        <pt x="524" y="136" on="1"/>
      </contour>
    </TTGlyph>
    <TTGlyph name="Lacute" xMin="96" yMin="0" xMax="949" yMax="1765">
      <component glyphName="L" x="0" y="0" flags="0x204"/>
      <component glyphName="glyph00128" x="-126" y="0" flags="0x4"/>
    </TTGlyph>
    <TTGlyph name="Lcaron" xMin="197" yMin="0" xMax="949" yMax="1430">
      <component glyphName="L" x="0" y="0" flags="0x204"/>
      <component glyphName="glyph00114" x="174" y="-110" flags="0x4"/>
    </TTGlyph>
    <TTGlyph name="Ldot" xMin="197" yMin="0" xMax="949" yMax="1372">
      <component glyphName="L" x="0" y="0" flags="0x204"/>
      <component glyphName="glyph00123" x="375" y="0" flags="0x4"/>
    </TTGlyph>
    <TTGlyph name="Lslash" xMin="51" yMin="0" xMax="958" yMax="1372">
      <contour>
        <pt x="338" y="633" on="1"/>
        <pt x="338" y="633" on="0"/>
        <pt x="310" y="625" on="0"/>
        <pt x="274" y="616" on="0"/>
        <pt x="247" y="609" on="0"/>
        <pt x="247" y="609" on="1"/>
        <pt x="70" y="548" on="1"/>
        <pt x="59" y="554" on="1"/>
        <pt x="51" y="582" on="0"/>
        <pt x="51" y="649" on="0"/>
        <pt x="57" y="677" on="1"/>
        <pt x="247" y="740" on="1"/>
        <pt x="338" y="763" on="1"/>
        <pt x="736" y="893" on="1"/>
        <pt x="746" y="887" on="1"/>
        <pt x="754" y="859" on="0"/>
        <pt x="755" y="792" on="0"/>
        <pt x="749" y="765" on="1"/>
      </contour>
      <contour>
        <pt x="360" y="0" on="1"/>
        <pt x="296" y="0" on="1"/>
        <pt x="258" y="0" on="0"/>
        <pt x="206" y="51" on="0"/>
        <pt x="206" y="103" on="1"/>
        <pt x="206" y="1360" on="1"/>
        <pt x="218" y="1372" on="1"/>
        <pt x="279" y="1372" on="1"/>
        <pt x="330" y="1372" on="0"/>
        <pt x="360" y="1322" on="0"/>
        <pt x="360" y="1273" on="1"/>
      </contour>
      <contour>
        <pt x="958" y="136" on="1"/>
        <pt x="958" y="53" on="0"/>
        <pt x="909" y="0" on="0"/>
        <pt x="855" y="0" on="1"/>
        <pt x="296" y="0" on="1"/>
        <pt x="220" y="114" on="1"/>
        <pt x="291" y="126" on="0"/>
        <pt x="463" y="136" on="0"/>
        <pt x="532" y="136" on="1"/>
      </contour>
    </TTGlyph>
    <TTGlyph name="M" xMin="169" yMin="-8" xMax="1418" yMax="1372">
      <contour>
        <pt x="275" y="1366" on="1"/>
        <pt x="303" y="1371" on="0"/>
        <pt x="364" y="1372" on="0"/>
        <pt x="379" y="1372" on="1"/>
        <pt x="396" y="1372" on="0"/>
        <pt x="450" y="1371" on="0"/>
        <pt x="477" y="1366" on="1"/>
        <pt x="707" y="664" on="1"/>
        <pt x="715" y="638" on="0"/>
        <pt x="741" y="551" on="0"/>
        <pt x="767" y="457" on="0"/>
        <pt x="786" y="383" on="0"/>
        <pt x="788" y="372" on="1"/>
        <pt x="798" y="372" on="1"/>
        <pt x="800" y="383" on="0"/>
        <pt x="819" y="457" on="0"/>
        <pt x="845" y="551" on="0"/>
        <pt x="871" y="638" on="0"/>
        <pt x="880" y="664" on="1"/>
        <pt x="1110" y="1366" on="1"/>
        <pt x="1141" y="1371" on="0"/>
        <pt x="1191" y="1372" on="0"/>
        <pt x="1208" y="1372" on="1"/>
        <pt x="1223" y="1372" on="0"/>
        <pt x="1281" y="1371" on="0"/>
        <pt x="1312" y="1366" on="1"/>
        <pt x="1418" y="2" on="1"/>
        <pt x="1402" y="-3" on="0"/>
        <pt x="1358" y="-8" on="0"/>
        <pt x="1339" y="-8" on="1"/>
        <pt x="1320" y="-8" on="0"/>
        <pt x="1287" y="-5" on="0"/>
        <pt x="1269" y="-2" on="1"/>
        <pt x="1213" y="826" on="1"/>
        <pt x="1210" y="872" on="0"/>
        <pt x="1204" y="1006" on="0"/>
        <pt x="1199" y="1147" on="0"/>
        <pt x="1197" y="1203" on="1"/>
        <pt x="1187" y="1203" on="1"/>
        <pt x="869" y="213" on="1"/>
        <pt x="852" y="210" on="0"/>
        <pt x="811" y="207" on="0"/>
        <pt x="792" y="207" on="1"/>
        <pt x="772" y="207" on="0"/>
        <pt x="733" y="210" on="0"/>
        <pt x="717" y="213" on="1"/>
        <pt x="400" y="1203" on="1"/>
        <pt x="390" y="1203" on="1"/>
        <pt x="387" y="1147" on="0"/>
        <pt x="382" y="1006" on="0"/>
        <pt x="377" y="872" on="0"/>
        <pt x="374" y="826" on="1"/>
        <pt x="317" y="-2" on="1"/>
        <pt x="300" y="-5" on="0"/>
        <pt x="263" y="-8" on="0"/>
        <pt x="244" y="-8" on="1"/>
        <pt x="224" y="-8" on="0"/>
        <pt x="183" y="-3" on="0"/>
        <pt x="169" y="2" on="1"/>
      </contour>
    </TTGlyph>
    <TTGlyph name="N" xMin="197" yMin="-6" xMax="1145" yMax="1372">
      <contour>
        <pt x="197" y="1366" on="1"/>
        <pt x="210" y="1368" on="0"/>
        <pt x="247" y="1371" on="0"/>
        <pt x="280" y="1372" on="0"/>
        <pt x="289" y="1372" on="1"/>
        <pt x="305" y="1372" on="0"/>
        <pt x="364" y="1369" on="0"/>
        <pt x="384" y="1366" on="1"/>
        <pt x="342" y="1182" on="1"/>
        <pt x="328" y="1181" on="1"/>
        <pt x="330" y="1120" on="0"/>
        <pt x="336" y="973" on="0"/>
        <pt x="340" y="820" on="0"/>
        <pt x="340" y="750" on="1"/>
        <pt x="340" y="0" on="1"/>
        <pt x="320" y="-3" on="0"/>
        <pt x="284" y="-6" on="0"/>
        <pt x="268" y="-6" on="1"/>
        <pt x="252" y="-6" on="0"/>
        <pt x="216" y="-3" on="0"/>
        <pt x="197" y="0" on="1"/>
      </contour>
      <contour>
        <pt x="470" y="907" on="1"/>
        <pt x="432" y="979" on="0"/>
        <pt x="366" y="1115" on="0"/>
        <pt x="334" y="1182" on="1"/>
        <pt x="197" y="1345" on="1"/>
        <pt x="384" y="1366" on="1"/>
        <pt x="870" y="459" on="1"/>
        <pt x="909" y="386" on="0"/>
        <pt x="977" y="243" on="0"/>
        <pt x="1009" y="178" on="1"/>
        <pt x="1145" y="40" on="1"/>
        <pt x="957" y="0" on="1"/>
      </contour>
      <contour>
        <pt x="1145" y="1362" on="1"/>
        <pt x="1145" y="0" on="1"/>
        <pt x="1133" y="-2" on="0"/>
        <pt x="1096" y="-5" on="0"/>
        <pt x="1061" y="-6" on="0"/>
        <pt x="1052" y="-6" on="1"/>
        <pt x="1037" y="-6" on="0"/>
        <pt x="976" y="-3" on="0"/>
        <pt x="957" y="0" on="1"/>
        <pt x="1001" y="178" on="1"/>
        <pt x="1015" y="178" on="1"/>
        <pt x="1012" y="251" on="0"/>
        <pt x="1006" y="409" on="0"/>
        <pt x="1003" y="565" on="0"/>
        <pt x="1003" y="634" on="1"/>
        <pt x="1003" y="1273" on="1"/>
        <pt x="1003" y="1323" on="0"/>
        <pt x="1032" y="1372" on="0"/>
        <pt x="1082" y="1372" on="1"/>
        <pt x="1133" y="1372" on="1"/>
      </contour>
    </TTGlyph>
    <TTGlyph name="Nacute" xMin="197" yMin="-6" xMax="1145" yMax="1765">
      <component glyphName="N" x="0" y="0" flags="0x204"/>
      <component glyphName="glyph00128" x="278" y="0" flags="0x4"/>
    </TTGlyph>
    <TTGlyph name="Ncaron" xMin="197" yMin="-6" xMax="1145" yMax="1755">
      <component glyphName="N" x="0" y="0" flags="0x204"/>
      <component glyphName="glyph00131" x="278" y="0" flags="0x4"/>
    </TTGlyph>
    <TTGlyph name="Ntilde" xMin="197" yMin="-6" xMax="1145" yMax="1720">
      <component glyphName="N" x="0" y="0" flags="0x204"/>
      <component glyphName="glyph00133" x="278" y="0" flags="0x4"/>
    </TTGlyph>
    <TTGlyph name="O" xMin="114" yMin="-24" xMax="1192" yMax="1390">
      <contour>
        <pt x="276" y="684" on="1"/>
        <pt x="276" y="587" on="0"/>
        <pt x="308" y="383" on="0"/>
        <pt x="391" y="211" on="0"/>
        <pt x="538" y="104" on="0"/>
        <pt x="653" y="104" on="1"/>
        <pt x="767" y="104" on="0"/>
        <pt x="914" y="211" on="0"/>
        <pt x="996" y="383" on="0"/>
        <pt x="1028" y="587" on="0"/>
        <pt x="1028" y="684" on="1"/>
        <pt x="1028" y="781" on="0"/>
        <pt x="996" y="984" on="0"/>
        <pt x="914" y="1156" on="0"/>
        <pt x="767" y="1262" on="0"/>
        <pt x="653" y="1262" on="1"/>
        <pt x="538" y="1262" on="0"/>
        <pt x="391" y="1156" on="0"/>
        <pt x="308" y="984" on="0"/>
        <pt x="276" y="781" on="0"/>
      </contour>
      <contour>
        <pt x="114" y="684" on="1"/>
        <pt x="114" y="879" on="0"/>
        <pt x="231" y="1200" on="0"/>
        <pt x="470" y="1390" on="0"/>
        <pt x="653" y="1390" on="1"/>
        <pt x="791" y="1390" on="0"/>
        <pt x="994" y="1280" on="0"/>
        <pt x="1127" y="1085" on="0"/>
        <pt x="1192" y="830" on="0"/>
        <pt x="1192" y="684" on="1"/>
        <pt x="1192" y="488" on="0"/>
        <pt x="1075" y="166" on="0"/>
        <pt x="836" y="-24" on="0"/>
        <pt x="653" y="-24" on="1"/>
        <pt x="514" y="-24" on="0"/>
        <pt x="311" y="86" on="0"/>
        <pt x="178" y="282" on="0"/>
        <pt x="114" y="538" on="0"/>
      </contour>
    </TTGlyph>
    <TTGlyph name="OE" xMin="114" yMin="-24" xMax="1661" yMax="1390">
      <contour>
        <pt x="939" y="5" on="1"/>
        <pt x="902" y="1" on="0"/>
        <pt x="811" y="-13" on="0"/>
        <pt x="710" y="-24" on="0"/>
        <pt x="655" y="-24" on="1"/>
        <pt x="470" y="-24" on="0"/>
        <pt x="230" y="167" on="0"/>
        <pt x="114" y="489" on="0"/>
        <pt x="114" y="684" on="1"/>
        <pt x="114" y="880" on="0"/>
        <pt x="231" y="1200" on="0"/>
        <pt x="471" y="1390" on="0"/>
        <pt x="655" y="1390" on="1"/>
        <pt x="707" y="1390" on="0"/>
        <pt x="809" y="1379" on="0"/>
        <pt x="902" y="1364" on="0"/>
        <pt x="939" y="1361" on="1"/>
        <pt x="939" y="1216" on="1"/>
        <pt x="909" y="1226" on="0"/>
        <pt x="813" y="1247" on="0"/>
        <pt x="705" y="1262" on="0"/>
        <pt x="655" y="1262" on="1"/>
        <pt x="540" y="1262" on="0"/>
        <pt x="391" y="1156" on="0"/>
        <pt x="308" y="984" on="0"/>
        <pt x="275" y="781" on="0"/>
        <pt x="275" y="684" on="1"/>
        <pt x="275" y="587" on="0"/>
        <pt x="308" y="383" on="0"/>
        <pt x="391" y="211" on="0"/>
        <pt x="538" y="104" on="0"/>
        <pt x="653" y="104" on="1"/>
        <pt x="707" y="104" on="0"/>
        <pt x="815" y="119" on="0"/>
        <pt x="909" y="140" on="0"/>
        <pt x="939" y="150" on="1"/>
      </contour>
      <contour>
        <pt x="843" y="1366" on="1"/>
        <pt x="990" y="1366" on="1"/>
        <pt x="990" y="1240" on="1"/>
        <pt x="990" y="1198" on="0"/>
        <pt x="992" y="1152" on="0"/>
        <pt x="992" y="1111" on="1"/>
        <pt x="992" y="206" on="1"/>
        <pt x="992" y="185" on="0"/>
        <pt x="990" y="150" on="0"/>
        <pt x="990" y="128" on="1"/>
        <pt x="990" y="0" on="1"/>
        <pt x="843" y="0" on="1"/>
      </contour>
      <contour>
        <pt x="1525" y="757" on="1"/>
        <pt x="1529" y="740" on="0"/>
        <pt x="1532" y="704" on="0"/>
        <pt x="1532" y="692" on="1"/>
        <pt x="1532" y="679" on="0"/>
        <pt x="1529" y="643" on="0"/>
        <pt x="1525" y="626" on="1"/>
        <pt x="1111" y="626" on="1"/>
        <pt x="1089" y="626" on="0"/>
        <pt x="1031" y="627" on="0"/>
        <pt x="968" y="628" on="0"/>
        <pt x="939" y="628" on="1"/>
        <pt x="939" y="755" on="1"/>
        <pt x="968" y="755" on="0"/>
        <pt x="1031" y="756" on="0"/>
        <pt x="1089" y="757" on="0"/>
        <pt x="1111" y="757" on="1"/>
      </contour>
      <contour>
        <pt x="1628" y="1366" on="1"/>
        <pt x="1631" y="1348" on="0"/>
        <pt x="1633" y="1317" on="0"/>
        <pt x="1633" y="1304" on="1"/>
        <pt x="1633" y="1291" on="0"/>
        <pt x="1628" y="1252" on="0"/>
        <pt x="1622" y="1234" on="1"/>
        <pt x="1111" y="1234" on="1"/>
        <pt x="1089" y="1234" on="0"/>
        <pt x="1031" y="1234" on="0"/>
        <pt x="968" y="1235" on="0"/>
        <pt x="939" y="1236" on="1"/>
        <pt x="939" y="1366" on="1"/>
      </contour>
      <contour>
        <pt x="1661" y="134" on="1"/>
        <pt x="1661" y="55" on="0"/>
        <pt x="1612" y="0" on="0"/>
        <pt x="1559" y="0" on="1"/>
        <pt x="939" y="0" on="1"/>
        <pt x="939" y="125" on="1"/>
        <pt x="978" y="128" on="0"/>
        <pt x="1059" y="134" on="0"/>
        <pt x="1114" y="134" on="1"/>
      </contour>
    </TTGlyph>
    <TTGlyph name="Oacute" xMin="114" yMin="-24" xMax="1192" yMax="1765">
      <component glyphName="O" x="0" y="0" flags="0x204"/>
      <component glyphName="glyph00128" x="255" y="0" flags="0x4"/>
    </TTGlyph>
    <TTGlyph name="Obreve" xMin="114" yMin="-24" xMax="1192" yMax="1731">
      <component glyphName="O" x="0" y="0" flags="0x204"/>
      <component glyphName="glyph00136" x="255" y="0" flags="0x4"/>
    </TTGlyph>
    <TTGlyph name="Ocircumflex" xMin="114" yMin="-24" xMax="1192" yMax="1757">
      <component glyphName="O" x="0" y="0" flags="0x204"/>
      <component glyphName="glyph00129" x="255" y="0" flags="0x4"/>
    </TTGlyph>
    <TTGlyph name="Odieresis" xMin="114" yMin="-24" xMax="1192" yMax="1653">
      <component glyphName="O" x="0" y="0" flags="0x204"/>
      <component glyphName="glyph00130" x="255" y="0" flags="0x4"/>
    </TTGlyph>
    <TTGlyph name="Ograve" xMin="114" yMin="-24" xMax="1192" yMax="1765">
      <component glyphName="O" x="0" y="0" flags="0x204"/>
      <component glyphName="glyph00127" x="255" y="0" flags="0x4"/>
    </TTGlyph>
    <TTGlyph name="Ohungarumlaut" xMin="114" yMin="-24" xMax="1192" yMax="1768">
      <component glyphName="O" x="0" y="0" flags="0x204"/>
      <component glyphName="glyph00137" x="255" y="0" flags="0x4"/>
    </TTGlyph>
    <TTGlyph name="Omacron" xMin="114" yMin="-24" xMax="1192" yMax="1645">
      <component glyphName="O" x="0" y="0" flags="0x204"/>
      <component glyphName="glyph00135" x="255" y="0" flags="0x4"/>
    </TTGlyph>
    <TTGlyph name="Omega" xMin="133" yMin="0" xMax="1372" yMax="1390">
      <contour>
        <pt x="578" y="156" on="1"/>
        <pt x="613" y="123" on="0"/>
        <pt x="613" y="95" on="1"/>
        <pt x="613" y="78" on="0"/>
        <pt x="593" y="26" on="0"/>
        <pt x="576" y="0" on="1"/>
        <pt x="566" y="25" on="0"/>
        <pt x="508" y="98" on="0"/>
        <pt x="432" y="156" on="1"/>
        <pt x="339" y="226" on="0"/>
        <pt x="205" y="411" on="0"/>
        <pt x="133" y="628" on="0"/>
        <pt x="133" y="745" on="1"/>
        <pt x="133" y="880" on="0"/>
        <pt x="225" y="1114" on="0"/>
        <pt x="392" y="1291" on="0"/>
        <pt x="618" y="1390" on="0"/>
        <pt x="753" y="1390" on="1"/>
        <pt x="888" y="1390" on="0"/>
        <pt x="1114" y="1290" on="0"/>
        <pt x="1281" y="1113" on="0"/>
        <pt x="1372" y="879" on="0"/>
        <pt x="1372" y="745" on="1"/>
        <pt x="1372" y="628" on="0"/>
        <pt x="1300" y="411" on="0"/>
        <pt x="1166" y="226" on="0"/>
        <pt x="1074" y="156" on="1"/>
        <pt x="997" y="98" on="0"/>
        <pt x="939" y="25" on="0"/>
        <pt x="930" y="0" on="1"/>
        <pt x="912" y="26" on="0"/>
        <pt x="892" y="78" on="0"/>
        <pt x="892" y="95" on="1"/>
        <pt x="892" y="123" on="0"/>
        <pt x="927" y="156" on="1"/>
        <pt x="1027" y="248" on="0"/>
        <pt x="1152" y="433" on="0"/>
        <pt x="1210" y="628" on="0"/>
        <pt x="1210" y="737" on="1"/>
        <pt x="1210" y="874" on="0"/>
        <pt x="1101" y="1115" on="0"/>
        <pt x="897" y="1264" on="0"/>
        <pt x="753" y="1264" on="1"/>
        <pt x="609" y="1264" on="0"/>
        <pt x="404" y="1115" on="0"/>
        <pt x="295" y="874" on="0"/>
        <pt x="295" y="737" on="1"/>
        <pt x="295" y="628" on="0"/>
        <pt x="353" y="433" on="0"/>
        <pt x="478" y="248" on="0"/>
      </contour>
      <contour>
        <pt x="930" y="0" on="1"/>
        <pt x="931" y="114" on="1"/>
        <pt x="976" y="119" on="0"/>
        <pt x="1109" y="135" on="0"/>
        <pt x="1183" y="135" on="1"/>
        <pt x="1361" y="135" on="1"/>
        <pt x="1364" y="122" on="0"/>
        <pt x="1367" y="87" on="0"/>
        <pt x="1367" y="66" on="1"/>
        <pt x="1367" y="45" on="0"/>
        <pt x="1364" y="12" on="0"/>
        <pt x="1361" y="0" on="1"/>
      </contour>
      <contour>
        <pt x="144" y="0" on="1"/>
        <pt x="141" y="12" on="0"/>
        <pt x="138" y="45" on="0"/>
        <pt x="138" y="66" on="1"/>
        <pt x="138" y="87" on="0"/>
        <pt x="141" y="122" on="0"/>
        <pt x="144" y="135" on="1"/>
        <pt x="322" y="135" on="1"/>
        <pt x="396" y="135" on="0"/>
        <pt x="529" y="119" on="0"/>
        <pt x="575" y="114" on="1"/>
        <pt x="576" y="0" on="1"/>
      </contour>
    </TTGlyph>
    <TTGlyph name="Oslash" xMin="114" yMin="-84" xMax="1192" yMax="1450">
      <contour>
        <pt x="881" y="1255" on="1"/>
        <pt x="992" y="1450" on="1"/>
        <pt x="1020" y="1447" on="0"/>
        <pt x="1085" y="1412" on="0"/>
        <pt x="1101" y="1391" on="1"/>
        <pt x="970" y="1156" on="1"/>
        <pt x="425" y="111" on="1"/>
        <pt x="314" y="-84" on="1"/>
        <pt x="286" y="-80" on="0"/>
        <pt x="221" y="-45" on="0"/>
        <pt x="205" y="-25" on="1"/>
        <pt x="336" y="210" on="1"/>
      </contour>
      <contour>
        <pt x="275" y="684" on="1"/>
        <pt x="275" y="587" on="0"/>
        <pt x="308" y="383" on="0"/>
        <pt x="391" y="210" on="0"/>
        <pt x="538" y="104" on="0"/>
        <pt x="653" y="104" on="1"/>
        <pt x="768" y="104" on="0"/>
        <pt x="915" y="210" on="0"/>
        <pt x="997" y="383" on="0"/>
        <pt x="1029" y="587" on="0"/>
        <pt x="1029" y="684" on="1"/>
        <pt x="1029" y="781" on="0"/>
        <pt x="997" y="984" on="0"/>
        <pt x="915" y="1156" on="0"/>
        <pt x="768" y="1262" on="0"/>
        <pt x="653" y="1262" on="1"/>
        <pt x="538" y="1262" on="0"/>
        <pt x="391" y="1156" on="0"/>
        <pt x="308" y="984" on="0"/>
        <pt x="275" y="781" on="0"/>
      </contour>
      <contour>
        <pt x="114" y="684" on="1"/>
        <pt x="114" y="879" on="0"/>
        <pt x="231" y="1200" on="0"/>
        <pt x="470" y="1390" on="0"/>
        <pt x="653" y="1390" on="1"/>
        <pt x="791" y="1390" on="0"/>
        <pt x="994" y="1280" on="0"/>
        <pt x="1127" y="1085" on="0"/>
        <pt x="1192" y="829" on="0"/>
        <pt x="1192" y="684" on="1"/>
        <pt x="1192" y="488" on="0"/>
        <pt x="1076" y="167" on="0"/>
        <pt x="837" y="-24" on="0"/>
        <pt x="653" y="-24" on="1"/>
        <pt x="515" y="-24" on="0"/>
        <pt x="311" y="86" on="0"/>
        <pt x="178" y="282" on="0"/>
        <pt x="114" y="538" on="0"/>
      </contour>
    </TTGlyph>
    <TTGlyph name="Otilde" xMin="114" yMin="-24" xMax="1192" yMax="1720">
      <component glyphName="O" x="0" y="0" flags="0x4"/>
      <component glyphName="glyph00133" x="255" y="0" flags="0x4"/>
    </TTGlyph>
    <TTGlyph name="P" xMin="197" yMin="-6" xMax="1033" yMax="1372">
      <contour>
        <pt x="1033" y="944" on="1"/>
        <pt x="1033" y="803" on="0"/>
        <pt x="921" y="611" on="0"/>
        <pt x="722" y="513" on="0"/>
        <pt x="592" y="513" on="1"/>
        <pt x="287" y="513" on="1"/>
        <pt x="287" y="639" on="1"/>
        <pt x="323" y="640" on="0"/>
        <pt x="444" y="641" on="0"/>
        <pt x="563" y="642" on="0"/>
        <pt x="596" y="642" on="1"/>
        <pt x="707" y="642" on="0"/>
        <pt x="825" y="737" on="0"/>
        <pt x="870" y="877" on="0"/>
        <pt x="870" y="944" on="1"/>
        <pt x="870" y="1012" on="0"/>
        <pt x="825" y="1151" on="0"/>
        <pt x="707" y="1244" on="0"/>
        <pt x="596" y="1244" on="1"/>
        <pt x="547" y="1244" on="0"/>
        <pt x="406" y="1244" on="0"/>
        <pt x="351" y="1246" on="1"/>
        <pt x="351" y="0" on="1"/>
        <pt x="335" y="-3" on="0"/>
        <pt x="294" y="-6" on="0"/>
        <pt x="272" y="-6" on="1"/>
        <pt x="252" y="-6" on="0"/>
        <pt x="212" y="-3" on="0"/>
        <pt x="197" y="0" on="1"/>
        <pt x="197" y="1354" on="1"/>
        <pt x="210" y="1366" on="1"/>
        <pt x="314" y="1368" on="0"/>
        <pt x="497" y="1372" on="0"/>
        <pt x="592" y="1372" on="1"/>
        <pt x="720" y="1372" on="0"/>
        <pt x="919" y="1276" on="0"/>
        <pt x="1033" y="1086" on="0"/>
      </contour>
    </TTGlyph>
    <TTGlyph name="Q" xMin="114" yMin="-237" xMax="1170" yMax="1390">
      <contour>
        <pt x="275" y="684" on="1"/>
        <pt x="275" y="585" on="0"/>
        <pt x="305" y="383" on="0"/>
        <pt x="383" y="214" on="0"/>
        <pt x="527" y="110" on="0"/>
        <pt x="642" y="110" on="1"/>
        <pt x="756" y="110" on="0"/>
        <pt x="900" y="214" on="0"/>
        <pt x="977" y="383" on="0"/>
        <pt x="1006" y="585" on="0"/>
        <pt x="1006" y="684" on="1"/>
        <pt x="1006" y="783" on="0"/>
        <pt x="977" y="986" on="0"/>
        <pt x="900" y="1157" on="0"/>
        <pt x="756" y="1262" on="0"/>
        <pt x="642" y="1262" on="1"/>
        <pt x="527" y="1262" on="0"/>
        <pt x="383" y="1157" on="0"/>
        <pt x="305" y="986" on="0"/>
        <pt x="275" y="783" on="0"/>
      </contour>
      <contour>
        <pt x="114" y="684" on="1"/>
        <pt x="114" y="883" on="0"/>
        <pt x="222" y="1203" on="0"/>
        <pt x="455" y="1390" on="0"/>
        <pt x="642" y="1390" on="1"/>
        <pt x="830" y="1390" on="0"/>
        <pt x="1062" y="1201" on="0"/>
        <pt x="1170" y="881" on="0"/>
        <pt x="1170" y="684" on="1"/>
        <pt x="1170" y="567" on="0"/>
        <pt x="1121" y="331" on="0"/>
        <pt x="1023" y="134" on="0"/>
        <pt x="872" y="13" on="0"/>
        <pt x="770" y="10" on="1"/>
        <pt x="744" y="-3" on="0"/>
        <pt x="701" y="-24" on="0"/>
        <pt x="653" y="-24" on="1"/>
        <pt x="459" y="-24" on="0"/>
        <pt x="222" y="162" on="0"/>
        <pt x="114" y="483" on="0"/>
      </contour>
      <contour>
        <pt x="609" y="28" on="1"/>
        <pt x="786" y="83" on="1"/>
        <pt x="904" y="-2" on="1"/>
        <pt x="973" y="-51" on="0"/>
        <pt x="1062" y="-103" on="0"/>
        <pt x="1126" y="-122" on="0"/>
        <pt x="1157" y="-122" on="1"/>
        <pt x="1153" y="-185" on="0"/>
        <pt x="1083" y="-237" on="0"/>
        <pt x="1046" y="-237" on="1"/>
        <pt x="1010" y="-237" on="0"/>
        <pt x="953" y="-216" on="0"/>
        <pt x="925" y="-197" on="1"/>
      </contour>
    </TTGlyph>
    <TTGlyph name="R" xMin="197" yMin="-12" xMax="1109" yMax="1372">
      <contour>
        <pt x="1049" y="976" on="1"/>
        <pt x="1049" y="886" on="0"/>
        <pt x="985" y="739" on="0"/>
        <pt x="867" y="636" on="0"/>
        <pt x="786" y="612" on="1"/>
        <pt x="832" y="597" on="0"/>
        <pt x="900" y="505" on="0"/>
        <pt x="921" y="451" on="1"/>
        <pt x="1025" y="181" on="1"/>
        <pt x="1050" y="115" on="0"/>
        <pt x="1085" y="57" on="0"/>
        <pt x="1109" y="38" on="1"/>
        <pt x="1093" y="12" on="0"/>
        <pt x="1029" y="-12" on="0"/>
        <pt x="1003" y="-12" on="1"/>
        <pt x="957" y="-12" on="0"/>
        <pt x="913" y="40" on="0"/>
        <pt x="894" y="89" on="1"/>
        <pt x="779" y="393" on="1"/>
        <pt x="749" y="471" on="0"/>
        <pt x="659" y="576" on="0"/>
        <pt x="558" y="576" on="1"/>
        <pt x="287" y="576" on="1"/>
        <pt x="287" y="702" on="1"/>
        <pt x="334" y="704" on="0"/>
        <pt x="448" y="707" on="0"/>
        <pt x="564" y="708" on="0"/>
        <pt x="612" y="708" on="1"/>
        <pt x="722" y="708" on="0"/>
        <pt x="842" y="790" on="0"/>
        <pt x="887" y="913" on="0"/>
        <pt x="887" y="976" on="1"/>
        <pt x="887" y="1041" on="0"/>
        <pt x="842" y="1164" on="0"/>
        <pt x="722" y="1244" on="0"/>
        <pt x="612" y="1244" on="1"/>
        <pt x="579" y="1244" on="0"/>
        <pt x="484" y="1244" on="0"/>
        <pt x="387" y="1245" on="0"/>
        <pt x="351" y="1246" on="1"/>
        <pt x="351" y="0" on="1"/>
        <pt x="334" y="-3" on="0"/>
        <pt x="294" y="-6" on="0"/>
        <pt x="272" y="-6" on="1"/>
        <pt x="252" y="-6" on="0"/>
        <pt x="212" y="-3" on="0"/>
        <pt x="197" y="0" on="1"/>
        <pt x="197" y="1354" on="1"/>
        <pt x="210" y="1366" on="1"/>
        <pt x="314" y="1368" on="0"/>
        <pt x="518" y="1372" on="0"/>
        <pt x="614" y="1372" on="1"/>
        <pt x="753" y="1372" on="0"/>
        <pt x="947" y="1276" on="0"/>
        <pt x="1049" y="1099" on="0"/>
      </contour>
    </TTGlyph>
    <TTGlyph name="Racute" xMin="197" yMin="-12" xMax="1109" yMax="1765">
      <component glyphName="R" x="0" y="0" flags="0x204"/>
      <component glyphName="glyph00128" x="193" y="0" flags="0x4"/>
    </TTGlyph>
    <TTGlyph name="Rcaron" xMin="197" yMin="-12" xMax="1109" yMax="1755">
      <component glyphName="R" x="0" y="0" flags="0x204"/>
      <component glyphName="glyph00131" x="193" y="0" flags="0x4"/>
    </TTGlyph>
    <TTGlyph name="S" xMin="77" yMin="-24" xMax="1013" yMax="1390">
      <contour>
        <pt x="77" y="126" on="1"/>
        <pt x="80" y="160" on="0"/>
        <pt x="123" y="229" on="0"/>
        <pt x="148" y="248" on="1"/>
        <pt x="237" y="187" on="0"/>
        <pt x="448" y="111" on="0"/>
        <pt x="549" y="111" on="1"/>
        <pt x="688" y="111" on="0"/>
        <pt x="854" y="228" on="0"/>
        <pt x="854" y="330" on="1"/>
        <pt x="854" y="421" on="0"/>
        <pt x="731" y="543" on="0"/>
        <pt x="641" y="582" on="1"/>
        <pt x="407" y="684" on="1"/>
        <pt x="280" y="739" on="0"/>
        <pt x="138" y="900" on="0"/>
        <pt x="138" y="1020" on="1"/>
        <pt x="138" y="1120" on="0"/>
        <pt x="244" y="1289" on="0"/>
        <pt x="438" y="1390" on="0"/>
        <pt x="571" y="1390" on="1"/>
        <pt x="687" y="1390" on="0"/>
        <pt x="892" y="1331" on="0"/>
        <pt x="970" y="1293" on="1"/>
        <pt x="969" y="1260" on="0"/>
        <pt x="935" y="1189" on="0"/>
        <pt x="909" y="1167" on="1"/>
        <pt x="829" y="1207" on="0"/>
        <pt x="652" y="1259" on="0"/>
        <pt x="577" y="1259" on="1"/>
        <pt x="452" y="1259" on="0"/>
        <pt x="294" y="1133" on="0"/>
        <pt x="294" y="1033" on="1"/>
        <pt x="294" y="952" on="0"/>
        <pt x="409" y="856" on="0"/>
        <pt x="488" y="822" on="1"/>
        <pt x="715" y="724" on="1"/>
        <pt x="794" y="690" on="0"/>
        <pt x="930" y="591" on="0"/>
        <pt x="1013" y="454" on="0"/>
        <pt x="1013" y="362" on="1"/>
        <pt x="1013" y="251" on="0"/>
        <pt x="910" y="76" on="0"/>
        <pt x="702" y="-24" on="0"/>
        <pt x="542" y="-24" on="1"/>
        <pt x="416" y="-24" on="0"/>
        <pt x="171" y="58" on="0"/>
      </contour>
    </TTGlyph>
    <TTGlyph name="Sacute" xMin="77" yMin="-24" xMax="1013" yMax="1765">
      <component glyphName="S" x="0" y="0" flags="0x204"/>
      <component glyphName="glyph00128" x="178" y="0" flags="0x4"/>
    </TTGlyph>
    <TTGlyph name="Scaron" xMin="77" yMin="-24" xMax="1013" yMax="1755">
      <component glyphName="S" x="0" y="0" flags="0x204"/>
      <component glyphName="glyph00131" x="178" y="0" flags="0x4"/>
    </TTGlyph>
    <TTGlyph name="Scedilla" xMin="77" yMin="-437" xMax="1013" yMax="1390">
      <component glyphName="S" x="0" y="0" flags="0x204"/>
      <component glyphName="cedilla" x="127" y="0" flags="0x4"/>
    </TTGlyph>
    <TTGlyph name="Scircumflex" xMin="77" yMin="-24" xMax="1013" yMax="1757">
      <component glyphName="S" x="0" y="0" flags="0x204"/>
      <component glyphName="glyph00129" x="178" y="0" flags="0x4"/>
    </TTGlyph>
    <TTGlyph name="T" xMin="36" yMin="-6" xMax="933" yMax="1366">
      <contour>
        <pt x="43" y="1234" on="1"/>
        <pt x="39" y="1250" on="0"/>
        <pt x="36" y="1284" on="0"/>
        <pt x="36" y="1300" on="1"/>
        <pt x="36" y="1316" on="0"/>
        <pt x="39" y="1348" on="0"/>
        <pt x="43" y="1366" on="1"/>
        <pt x="923" y="1366" on="1"/>
        <pt x="928" y="1352" on="0"/>
        <pt x="933" y="1318" on="0"/>
        <pt x="933" y="1303" on="1"/>
        <pt x="933" y="1266" on="0"/>
        <pt x="888" y="1234" on="0"/>
        <pt x="841" y="1234" on="1"/>
        <pt x="669" y="1234" on="1"/>
        <pt x="651" y="1234" on="0"/>
        <pt x="580" y="1236" on="0"/>
        <pt x="560" y="1236" on="1"/>
        <pt x="407" y="1236" on="1"/>
        <pt x="387" y="1236" on="0"/>
        <pt x="317" y="1234" on="0"/>
        <pt x="298" y="1234" on="1"/>
      </contour>
      <contour>
        <pt x="407" y="1088" on="1"/>
        <pt x="407" y="1129" on="0"/>
        <pt x="407" y="1194" on="0"/>
        <pt x="407" y="1236" on="1"/>
        <pt x="407" y="1300" on="1"/>
        <pt x="560" y="1300" on="1"/>
        <pt x="560" y="1236" on="1"/>
        <pt x="560" y="1194" on="0"/>
        <pt x="560" y="1129" on="0"/>
        <pt x="560" y="1088" on="1"/>
        <pt x="560" y="0" on="1"/>
        <pt x="544" y="-3" on="0"/>
        <pt x="502" y="-6" on="0"/>
        <pt x="484" y="-6" on="1"/>
        <pt x="465" y="-6" on="0"/>
        <pt x="423" y="-3" on="0"/>
        <pt x="407" y="0" on="1"/>
      </contour>
    </TTGlyph>
    <TTGlyph name="Tbar" xMin="36" yMin="-6" xMax="933" yMax="1366">
      <contour>
        <pt x="154" y="611" on="1"/>
        <pt x="147" y="639" on="0"/>
        <pt x="147" y="674" on="1"/>
        <pt x="147" y="695" on="0"/>
        <pt x="151" y="725" on="0"/>
        <pt x="154" y="741" on="1"/>
        <pt x="813" y="741" on="1"/>
        <pt x="817" y="725" on="0"/>
        <pt x="820" y="696" on="0"/>
        <pt x="820" y="674" on="1"/>
        <pt x="820" y="639" on="0"/>
        <pt x="813" y="611" on="1"/>
      </contour>
      <contour>
        <pt x="43" y="1234" on="1"/>
        <pt x="39" y="1250" on="0"/>
        <pt x="36" y="1284" on="0"/>
        <pt x="36" y="1300" on="1"/>
        <pt x="36" y="1316" on="0"/>
        <pt x="39" y="1348" on="0"/>
        <pt x="43" y="1366" on="1"/>
        <pt x="923" y="1366" on="1"/>
        <pt x="928" y="1352" on="0"/>
        <pt x="933" y="1318" on="0"/>
        <pt x="933" y="1303" on="1"/>
        <pt x="933" y="1266" on="0"/>
        <pt x="888" y="1234" on="0"/>
        <pt x="841" y="1234" on="1"/>
        <pt x="669" y="1234" on="1"/>
        <pt x="651" y="1234" on="0"/>
        <pt x="580" y="1236" on="0"/>
        <pt x="560" y="1236" on="1"/>
        <pt x="407" y="1236" on="1"/>
        <pt x="387" y="1236" on="0"/>
        <pt x="317" y="1234" on="0"/>
        <pt x="298" y="1234" on="1"/>
      </contour>
      <contour>
        <pt x="407" y="1088" on="1"/>
        <pt x="407" y="1129" on="0"/>
        <pt x="407" y="1194" on="0"/>
        <pt x="407" y="1236" on="1"/>
        <pt x="407" y="1300" on="1"/>
        <pt x="560" y="1300" on="1"/>
        <pt x="560" y="1236" on="1"/>
        <pt x="560" y="1194" on="0"/>
        <pt x="560" y="1129" on="0"/>
        <pt x="560" y="1088" on="1"/>
        <pt x="560" y="0" on="1"/>
        <pt x="544" y="-3" on="0"/>
        <pt x="502" y="-6" on="0"/>
        <pt x="484" y="-6" on="1"/>
        <pt x="465" y="-6" on="0"/>
        <pt x="423" y="-3" on="0"/>
        <pt x="407" y="0" on="1"/>
      </contour>
    </TTGlyph>
    <TTGlyph name="Tcaron" xMin="36" yMin="-6" xMax="933" yMax="1755">
      <component glyphName="T" x="0" y="0" flags="0x204"/>
      <component glyphName="glyph00131" x="84" y="0" flags="0x4"/>
    </TTGlyph>
    <TTGlyph name="Thorn" xMin="197" yMin="-6" xMax="1029" yMax="1372">
      <contour>
        <pt x="276" y="1151" on="1"/>
        <pt x="350" y="1153" on="0"/>
        <pt x="509" y="1157" on="0"/>
        <pt x="588" y="1157" on="1"/>
        <pt x="716" y="1157" on="0"/>
        <pt x="915" y="1062" on="0"/>
        <pt x="1029" y="872" on="0"/>
        <pt x="1029" y="730" on="1"/>
        <pt x="1029" y="589" on="0"/>
        <pt x="917" y="398" on="0"/>
        <pt x="718" y="300" on="0"/>
        <pt x="588" y="300" on="1"/>
        <pt x="276" y="300" on="1"/>
        <pt x="276" y="427" on="1"/>
        <pt x="303" y="427" on="0"/>
        <pt x="389" y="428" on="0"/>
        <pt x="484" y="429" on="0"/>
        <pt x="567" y="429" on="0"/>
        <pt x="592" y="429" on="1"/>
        <pt x="703" y="429" on="0"/>
        <pt x="821" y="524" on="0"/>
        <pt x="866" y="663" on="0"/>
        <pt x="866" y="730" on="1"/>
        <pt x="866" y="799" on="0"/>
        <pt x="821" y="936" on="0"/>
        <pt x="703" y="1029" on="0"/>
        <pt x="592" y="1029" on="1"/>
        <pt x="554" y="1029" on="0"/>
        <pt x="441" y="1030" on="0"/>
        <pt x="323" y="1032" on="0"/>
        <pt x="276" y="1033" on="1"/>
      </contour>
      <contour>
        <pt x="197" y="1366" on="1"/>
        <pt x="212" y="1369" on="0"/>
        <pt x="252" y="1372" on="0"/>
        <pt x="272" y="1372" on="1"/>
        <pt x="294" y="1372" on="0"/>
        <pt x="335" y="1369" on="0"/>
        <pt x="351" y="1366" on="1"/>
        <pt x="351" y="0" on="1"/>
        <pt x="335" y="-3" on="0"/>
        <pt x="294" y="-6" on="0"/>
        <pt x="272" y="-6" on="1"/>
        <pt x="252" y="-6" on="0"/>
        <pt x="212" y="-3" on="0"/>
        <pt x="197" y="0" on="1"/>
      </contour>
    </TTGlyph>
    <TTGlyph name="U" xMin="181" yMin="-24" xMax="1152" yMax="1372">
      <contour>
        <pt x="1152" y="466" on="1"/>
        <pt x="1152" y="303" on="0"/>
        <pt x="1027" y="85" on="0"/>
        <pt x="807" y="-24" on="0"/>
        <pt x="665" y="-24" on="1"/>
        <pt x="524" y="-24" on="0"/>
        <pt x="305" y="85" on="0"/>
        <pt x="181" y="303" on="0"/>
        <pt x="181" y="466" on="1"/>
        <pt x="181" y="1360" on="1"/>
        <pt x="193" y="1372" on="1"/>
        <pt x="255" y="1372" on="1"/>
        <pt x="305" y="1372" on="0"/>
        <pt x="335" y="1322" on="0"/>
        <pt x="335" y="1273" on="1"/>
        <pt x="335" y="468" on="1"/>
        <pt x="335" y="289" on="0"/>
        <pt x="509" y="103" on="0"/>
        <pt x="666" y="103" on="1"/>
        <pt x="823" y="103" on="0"/>
        <pt x="998" y="289" on="0"/>
        <pt x="998" y="468" on="1"/>
        <pt x="998" y="1366" on="1"/>
        <pt x="1013" y="1369" on="0"/>
        <pt x="1053" y="1372" on="0"/>
        <pt x="1073" y="1372" on="1"/>
        <pt x="1094" y="1372" on="0"/>
        <pt x="1135" y="1369" on="0"/>
        <pt x="1152" y="1366" on="1"/>
      </contour>
    </TTGlyph>
    <TTGlyph name="Uacute" xMin="181" yMin="-24" xMax="1152" yMax="1765">
      <component glyphName="U" x="0" y="0" flags="0x204"/>
      <component glyphName="glyph00128" x="268" y="0" flags="0x4"/>
    </TTGlyph>
    <TTGlyph name="Ubreve" xMin="181" yMin="-24" xMax="1152" yMax="1731">
      <component glyphName="U" x="0" y="0" flags="0x204"/>
      <component glyphName="glyph00136" x="268" y="0" flags="0x4"/>
    </TTGlyph>
    <TTGlyph name="Ucircumflex" xMin="181" yMin="-24" xMax="1152" yMax="1757">
      <component glyphName="U" x="0" y="0" flags="0x204"/>
      <component glyphName="glyph00129" x="268" y="0" flags="0x4"/>
    </TTGlyph>
    <TTGlyph name="Udieresis" xMin="181" yMin="-24" xMax="1152" yMax="1653">
      <component glyphName="U" x="0" y="0" flags="0x204"/>
      <component glyphName="glyph00130" x="268" y="0" flags="0x4"/>
    </TTGlyph>
    <TTGlyph name="Ugrave" xMin="181" yMin="-24" xMax="1152" yMax="1765">
      <component glyphName="U" x="0" y="0" flags="0x204"/>
      <component glyphName="glyph00127" x="268" y="0" flags="0x4"/>
    </TTGlyph>
    <TTGlyph name="Uhungarumlaut" xMin="181" yMin="-24" xMax="1152" yMax="1768">
      <component glyphName="U" x="0" y="0" flags="0x204"/>
      <component glyphName="glyph00137" x="268" y="0" flags="0x4"/>
    </TTGlyph>
    <TTGlyph name="Umacron" xMin="181" yMin="-24" xMax="1152" yMax="1645">
      <component glyphName="U" x="0" y="0" flags="0x204"/>
      <component glyphName="glyph00135" x="268" y="0" flags="0x4"/>
    </TTGlyph>
    <TTGlyph name="Uogonek" xMin="181" yMin="-434" xMax="1152" yMax="1372">
      <component glyphName="U" x="0" y="0" flags="0x204"/>
      <component glyphName="glyph00140" x="306" y="0" flags="0x4"/>
    </TTGlyph>
    <TTGlyph name="Uring" xMin="181" yMin="-24" xMax="1152" yMax="1764">
      <component glyphName="U" x="0" y="0" flags="0x204"/>
      <component glyphName="glyph00132" x="268" y="0" flags="0x4"/>
    </TTGlyph>
    <TTGlyph name="Utilde" xMin="181" yMin="-24" xMax="1152" yMax="1720">
      <component glyphName="U" x="0" y="0" flags="0x204"/>
      <component glyphName="glyph00133" x="268" y="0" flags="0x4"/>
    </TTGlyph>
    <TTGlyph name="V" xMin="54" yMin="-8" xMax="1071" yMax="1378">
      <contour>
        <pt x="928" y="1366" on="1"/>
        <pt x="941" y="1369" on="0"/>
        <pt x="974" y="1372" on="0"/>
        <pt x="994" y="1372" on="1"/>
        <pt x="1014" y="1372" on="0"/>
        <pt x="1052" y="1367" on="0"/>
        <pt x="1065" y="1364" on="1"/>
        <pt x="1071" y="1351" on="1"/>
        <pt x="663" y="-2" on="1"/>
        <pt x="633" y="-5" on="0"/>
        <pt x="579" y="-8" on="0"/>
        <pt x="549" y="-8" on="1"/>
        <pt x="503" y="-8" on="0"/>
        <pt x="454" y="26" on="0"/>
        <pt x="441" y="72" on="1"/>
        <pt x="54" y="1353" on="1"/>
        <pt x="76" y="1364" on="0"/>
        <pt x="125" y="1378" on="0"/>
        <pt x="150" y="1378" on="1"/>
        <pt x="179" y="1378" on="0"/>
        <pt x="222" y="1348" on="0"/>
        <pt x="235" y="1304" on="1"/>
        <pt x="472" y="499" on="1"/>
        <pt x="485" y="455" on="0"/>
        <pt x="518" y="337" on="0"/>
        <pt x="551" y="215" on="0"/>
        <pt x="565" y="165" on="1"/>
        <pt x="568" y="155" on="0"/>
        <pt x="575" y="149" on="0"/>
        <pt x="581" y="149" on="1"/>
      </contour>
    </TTGlyph>
    <TTGlyph name="W" xMin="77" yMin="-8" xMax="1577" yMax="1378">
      <contour>
        <pt x="77" y="1359" on="1"/>
        <pt x="103" y="1371" on="0"/>
        <pt x="145" y="1378" on="0"/>
        <pt x="166" y="1378" on="1"/>
        <pt x="202" y="1378" on="0"/>
        <pt x="238" y="1341" on="0"/>
        <pt x="246" y="1297" on="1"/>
        <pt x="394" y="529" on="1"/>
        <pt x="402" y="485" on="0"/>
        <pt x="428" y="341" on="0"/>
        <pt x="454" y="195" on="0"/>
        <pt x="463" y="147" on="1"/>
        <pt x="466" y="131" on="0"/>
        <pt x="472" y="126" on="0"/>
        <pt x="479" y="126" on="1"/>
        <pt x="727" y="1336" on="1"/>
        <pt x="749" y="1340" on="0"/>
        <pt x="809" y="1343" on="0"/>
        <pt x="828" y="1343" on="1"/>
        <pt x="849" y="1343" on="0"/>
        <pt x="912" y="1340" on="0"/>
        <pt x="928" y="1336" on="1"/>
        <pt x="1154" y="147" on="1"/>
        <pt x="1157" y="133" on="0"/>
        <pt x="1163" y="126" on="0"/>
        <pt x="1171" y="126" on="1"/>
        <pt x="1181" y="191" on="0"/>
        <pt x="1210" y="345" on="0"/>
        <pt x="1238" y="485" on="0"/>
        <pt x="1248" y="530" on="1"/>
        <pt x="1424" y="1366" on="1"/>
        <pt x="1439" y="1369" on="0"/>
        <pt x="1477" y="1372" on="0"/>
        <pt x="1494" y="1372" on="1"/>
        <pt x="1512" y="1372" on="0"/>
        <pt x="1551" y="1368" on="0"/>
        <pt x="1569" y="1364" on="1"/>
        <pt x="1577" y="1353" on="1"/>
        <pt x="1279" y="2" on="1"/>
        <pt x="1249" y="-4" on="0"/>
        <pt x="1162" y="-8" on="0"/>
        <pt x="1134" y="-8" on="1"/>
        <pt x="1098" y="-8" on="0"/>
        <pt x="1047" y="21" on="0"/>
        <pt x="1038" y="73" on="1"/>
        <pt x="926" y="666" on="1"/>
        <pt x="910" y="753" on="0"/>
        <pt x="858" y="1029" on="0"/>
        <pt x="832" y="1176" on="1"/>
        <pt x="820" y="1176" on="1"/>
        <pt x="793" y="1029" on="0"/>
        <pt x="740" y="756" on="0"/>
        <pt x="720" y="666" on="1"/>
        <pt x="579" y="0" on="1"/>
        <pt x="550" y="-4" on="0"/>
        <pt x="471" y="-8" on="0"/>
        <pt x="444" y="-8" on="1"/>
        <pt x="408" y="-8" on="0"/>
        <pt x="347" y="22" on="0"/>
        <pt x="336" y="75" on="1"/>
      </contour>
    </TTGlyph>
    <TTGlyph name="Wacute" xMin="77" yMin="-8" xMax="1577" yMax="1765">
      <component glyphName="W" x="0" y="0" flags="0x204"/>
      <component glyphName="glyph00128" x="430" y="0" flags="0x4"/>
    </TTGlyph>
    <TTGlyph name="Wcircumflex" xMin="77" yMin="-8" xMax="1577" yMax="1757">
      <component glyphName="W" x="0" y="0" flags="0x204"/>
      <component glyphName="glyph00129" x="430" y="0" flags="0x4"/>
    </TTGlyph>
    <TTGlyph name="Wdieresis" xMin="77" yMin="-8" xMax="1577" yMax="1653">
      <component glyphName="W" x="0" y="0" flags="0x204"/>
      <component glyphName="glyph00130" x="430" y="0" flags="0x4"/>
    </TTGlyph>
    <TTGlyph name="Wgrave" xMin="77" yMin="-8" xMax="1577" yMax="1765">
      <component glyphName="W" x="0" y="0" flags="0x204"/>
      <component glyphName="glyph00127" x="430" y="0" flags="0x4"/>
    </TTGlyph>
    <TTGlyph name="X" xMin="46" yMin="-12" xMax="1097" yMax="1378">
      <contour>
        <pt x="103" y="1343" on="1"/>
        <pt x="128" y="1361" on="0"/>
        <pt x="183" y="1378" on="0"/>
        <pt x="207" y="1378" on="1"/>
        <pt x="232" y="1378" on="0"/>
        <pt x="281" y="1350" on="0"/>
        <pt x="303" y="1315" on="1"/>
        <pt x="1097" y="24" on="1"/>
        <pt x="1072" y="5" on="0"/>
        <pt x="1017" y="-12" on="0"/>
        <pt x="993" y="-12" on="1"/>
        <pt x="968" y="-12" on="0"/>
        <pt x="919" y="16" on="0"/>
        <pt x="897" y="51" on="1"/>
      </contour>
      <contour>
        <pt x="904" y="1366" on="1"/>
        <pt x="912" y="1369" on="0"/>
        <pt x="951" y="1374" on="0"/>
        <pt x="968" y="1374" on="1"/>
        <pt x="992" y="1374" on="0"/>
        <pt x="1035" y="1366" on="0"/>
        <pt x="1047" y="1360" on="1"/>
        <pt x="1053" y="1347" on="1"/>
        <pt x="646" y="693" on="1"/>
        <pt x="582" y="628" on="1"/>
        <pt x="200" y="0" on="1"/>
        <pt x="191" y="-3" on="0"/>
        <pt x="148" y="-8" on="0"/>
        <pt x="132" y="-8" on="1"/>
        <pt x="108" y="-8" on="0"/>
        <pt x="64" y="0" on="0"/>
        <pt x="52" y="7" on="1"/>
        <pt x="46" y="19" on="1"/>
        <pt x="505" y="752" on="1"/>
        <pt x="569" y="819" on="1"/>
      </contour>
    </TTGlyph>
    <TTGlyph name="Y" xMin="30" yMin="-6" xMax="937" yMax="1380">
      <contour>
        <pt x="407" y="542" on="1"/>
        <pt x="560" y="542" on="1"/>
        <pt x="560" y="0" on="1"/>
        <pt x="544" y="-3" on="0"/>
        <pt x="503" y="-6" on="0"/>
        <pt x="482" y="-6" on="1"/>
        <pt x="462" y="-6" on="0"/>
        <pt x="421" y="-3" on="0"/>
        <pt x="407" y="0" on="1"/>
      </contour>
      <contour>
        <pt x="788" y="1366" on="1"/>
        <pt x="804" y="1371" on="0"/>
        <pt x="840" y="1374" on="0"/>
        <pt x="856" y="1374" on="1"/>
        <pt x="876" y="1374" on="0"/>
        <pt x="913" y="1368" on="0"/>
        <pt x="930" y="1364" on="1"/>
        <pt x="937" y="1351" on="1"/>
        <pt x="542" y="403" on="1"/>
        <pt x="427" y="403" on="1"/>
        <pt x="30" y="1349" on="1"/>
        <pt x="62" y="1367" on="0"/>
        <pt x="110" y="1380" on="0"/>
        <pt x="130" y="1380" on="1"/>
        <pt x="162" y="1380" on="0"/>
        <pt x="200" y="1343" on="0"/>
        <pt x="214" y="1307" on="1"/>
        <pt x="407" y="842" on="1"/>
        <pt x="427" y="795" on="0"/>
        <pt x="472" y="663" on="0"/>
        <pt x="487" y="613" on="1"/>
        <pt x="497" y="613" on="1"/>
        <pt x="508" y="647" on="0"/>
        <pt x="541" y="740" on="0"/>
        <pt x="573" y="823" on="0"/>
        <pt x="580" y="843" on="1"/>
      </contour>
    </TTGlyph>
    <TTGlyph name="Yacute" xMin="30" yMin="-6" xMax="937" yMax="1765">
      <component glyphName="Y" x="0" y="0" flags="0x204"/>
      <component glyphName="glyph00128" x="91" y="0" flags="0x4"/>
    </TTGlyph>
    <TTGlyph name="Ycircumflex" xMin="30" yMin="-6" xMax="937" yMax="1757">
      <component glyphName="Y" x="0" y="0" flags="0x204"/>
      <component glyphName="glyph00129" x="91" y="0" flags="0x4"/>
    </TTGlyph>
    <TTGlyph name="Ydieresis" xMin="30" yMin="-6" xMax="937" yMax="1653">
      <component glyphName="Y" x="0" y="0" flags="0x204"/>
      <component glyphName="glyph00130" x="91" y="0" flags="0x4"/>
    </TTGlyph>
    <TTGlyph name="Ygrave" xMin="30" yMin="-6" xMax="937" yMax="1765">
      <component glyphName="Y" x="0" y="0" flags="0x204"/>
      <component glyphName="glyph00127" x="91" y="0" flags="0x4"/>
    </TTGlyph>
    <TTGlyph name="Z" xMin="106" yMin="0" xMax="999" yMax="1366">
      <contour>
        <pt x="668" y="1018" on="1"/>
        <pt x="700" y="1069" on="0"/>
        <pt x="777" y="1176" on="0"/>
        <pt x="822" y="1239" on="1"/>
        <pt x="816" y="1245" on="1"/>
        <pt x="798" y="1241" on="0"/>
        <pt x="711" y="1236" on="0"/>
        <pt x="608" y="1232" on="0"/>
        <pt x="521" y="1231" on="0"/>
        <pt x="502" y="1231" on="1"/>
        <pt x="162" y="1231" on="1"/>
        <pt x="158" y="1244" on="0"/>
        <pt x="155" y="1271" on="0"/>
        <pt x="155" y="1284" on="1"/>
        <pt x="155" y="1305" on="0"/>
        <pt x="161" y="1345" on="0"/>
        <pt x="168" y="1366" on="1"/>
        <pt x="959" y="1366" on="1"/>
        <pt x="969" y="1334" on="0"/>
        <pt x="979" y="1294" on="0"/>
        <pt x="982" y="1270" on="0"/>
        <pt x="982" y="1261" on="1"/>
        <pt x="982" y="1245" on="0"/>
        <pt x="970" y="1210" on="0"/>
        <pt x="958" y="1190" on="1"/>
        <pt x="425" y="363" on="1"/>
        <pt x="391" y="310" on="0"/>
        <pt x="306" y="189" on="0"/>
        <pt x="267" y="133" on="1"/>
        <pt x="273" y="127" on="1"/>
        <pt x="336" y="133" on="0"/>
        <pt x="445" y="137" on="0"/>
        <pt x="482" y="137" on="1"/>
        <pt x="743" y="137" on="1"/>
        <pt x="825" y="137" on="0"/>
        <pt x="945" y="152" on="0"/>
        <pt x="985" y="170" on="1"/>
        <pt x="991" y="152" on="0"/>
        <pt x="999" y="111" on="0"/>
        <pt x="999" y="91" on="1"/>
        <pt x="999" y="49" on="0"/>
        <pt x="949" y="0" on="0"/>
        <pt x="885" y="0" on="1"/>
        <pt x="129" y="0" on="1"/>
        <pt x="119" y="33" on="0"/>
        <pt x="109" y="71" on="0"/>
        <pt x="106" y="94" on="0"/>
        <pt x="106" y="103" on="1"/>
        <pt x="106" y="120" on="0"/>
        <pt x="117" y="160" on="0"/>
        <pt x="129" y="180" on="1"/>
      </contour>
    </TTGlyph>
    <TTGlyph name="Zacute" xMin="106" yMin="0" xMax="999" yMax="1765">
      <component glyphName="Z" x="0" y="0" flags="0x204"/>
      <component glyphName="glyph00128" x="165" y="0" flags="0x4"/>
    </TTGlyph>
    <TTGlyph name="Zcaron" xMin="106" yMin="0" xMax="999" yMax="1755">
      <component glyphName="Z" x="0" y="0" flags="0x204"/>
      <component glyphName="glyph00131" x="165" y="0" flags="0x4"/>
    </TTGlyph>
    <TTGlyph name="Zdotaccent" xMin="106" yMin="0" xMax="999" yMax="1678">
      <component glyphName="Z" x="0" y="0" flags="0x204"/>
      <component glyphName="glyph00134" x="165" y="0" flags="0x4"/>
    </TTGlyph>
    <TTGlyph name="a" xMin="36" yMin="-12" xMax="1017" yMax="1093">
      <contour>
        <pt x="440" y="1085" on="1"/>
        <pt x="452" y="1088" on="0"/>
        <pt x="510" y="1093" on="0"/>
        <pt x="529" y="1093" on="1"/>
        <pt x="547" y="1093" on="0"/>
        <pt x="601" y="1088" on="0"/>
        <pt x="613" y="1085" on="1"/>
        <pt x="1017" y="7" on="1"/>
        <pt x="1000" y="-3" on="0"/>
        <pt x="954" y="-12" on="0"/>
        <pt x="928" y="-12" on="1"/>
        <pt x="893" y="-12" on="0"/>
        <pt x="856" y="19" on="0"/>
        <pt x="839" y="65" on="1"/>
        <pt x="622" y="656" on="1"/>
        <pt x="608" y="694" on="0"/>
        <pt x="572" y="800" on="0"/>
        <pt x="536" y="907" on="0"/>
        <pt x="523" y="949" on="1"/>
        <pt x="515" y="949" on="1"/>
        <pt x="498" y="889" on="0"/>
        <pt x="453" y="753" on="0"/>
        <pt x="439" y="714" on="1"/>
        <pt x="177" y="-2" on="1"/>
        <pt x="163" y="-5" on="0"/>
        <pt x="127" y="-8" on="0"/>
        <pt x="111" y="-8" on="1"/>
        <pt x="91" y="-8" on="0"/>
        <pt x="54" y="-2" on="0"/>
        <pt x="41" y="2" on="1"/>
        <pt x="36" y="9" on="1"/>
      </contour>
      <contour>
        <pt x="407" y="270" on="1"/>
        <pt x="401" y="270" on="0"/>
        <pt x="338" y="271" on="0"/>
        <pt x="276" y="272" on="0"/>
        <pt x="268" y="272" on="1"/>
        <pt x="208" y="272" on="1"/>
        <pt x="258" y="397" on="1"/>
        <pt x="312" y="397" on="1"/>
        <pt x="320" y="397" on="0"/>
        <pt x="372" y="398" on="0"/>
        <pt x="424" y="399" on="0"/>
        <pt x="430" y="399" on="1"/>
        <pt x="622" y="399" on="1"/>
        <pt x="629" y="399" on="0"/>
        <pt x="675" y="398" on="0"/>
        <pt x="721" y="397" on="0"/>
        <pt x="729" y="397" on="1"/>
        <pt x="785" y="397" on="1"/>
        <pt x="833" y="272" on="1"/>
        <pt x="770" y="272" on="1"/>
        <pt x="764" y="272" on="0"/>
        <pt x="707" y="271" on="0"/>
        <pt x="649" y="270" on="0"/>
        <pt x="643" y="270" on="1"/>
      </contour>
    </TTGlyph>
    <TTGlyph name="aacute" xMin="36" yMin="-12" xMax="1017" yMax="1548">
      <component glyphName="a" x="0" y="0" flags="0x204"/>
      <component glyphName="acute" x="130" y="104" flags="0x4"/>
    </TTGlyph>
    <TTGlyph name="abreve" xMin="36" yMin="-12" xMax="1017" yMax="1476">
      <component glyphName="a" x="0" y="0" flags="0x204"/>
      <component glyphName="breve" x="129" y="104" flags="0x4"/>
    </TTGlyph>
    <TTGlyph name="acircumflex" xMin="36" yMin="-12" xMax="1017" yMax="1522">
      <component glyphName="a" x="0" y="0" flags="0x204"/>
      <component glyphName="circumflex" x="129" y="104" flags="0x4"/>
    </TTGlyph>
    <TTGlyph name="acute" xMin="269" yMin="1073" xMax="664" yMax="1444">
      <contour>
        <pt x="543" y="1444" on="1"/>
        <pt x="583" y="1431" on="0"/>
        <pt x="649" y="1367" on="0"/>
        <pt x="664" y="1332" on="1"/>
        <pt x="338" y="1073" on="1"/>
        <pt x="316" y="1079" on="0"/>
        <pt x="278" y="1115" on="0"/>
        <pt x="269" y="1136" on="1"/>
      </contour>
    </TTGlyph>
    <TTGlyph name="acutecomb" xMin="-138" yMin="1073" xMax="257" yMax="1444">
      <component glyphName="acute" x="-407" y="0" flags="0x4"/>
    </TTGlyph>
    <TTGlyph name="adieresis" xMin="36" yMin="-12" xMax="1017" yMax="1403">
      <component glyphName="a" x="0" y="0" flags="0x204"/>
      <component glyphName="dieresis" x="129" y="104" flags="0x4"/>
    </TTGlyph>
    <TTGlyph name="ae" xMin="29" yMin="-8" xMax="1449" yMax="1085">
      <contour>
        <pt x="645" y="1070" on="1"/>
        <pt x="662" y="1078" on="0"/>
        <pt x="717" y="1085" on="0"/>
        <pt x="735" y="1085" on="1"/>
        <pt x="847" y="1085" on="1"/>
        <pt x="721" y="958" on="1"/>
        <pt x="711" y="958" on="1"/>
        <pt x="690" y="917" on="0"/>
        <pt x="632" y="805" on="0"/>
        <pt x="573" y="693" on="0"/>
        <pt x="550" y="652" on="1"/>
        <pt x="177" y="-2" on="1"/>
        <pt x="160" y="-5" on="0"/>
        <pt x="122" y="-8" on="0"/>
        <pt x="105" y="-8" on="1"/>
        <pt x="87" y="-8" on="0"/>
        <pt x="49" y="-4" on="0"/>
        <pt x="33" y="2" on="1"/>
        <pt x="29" y="11" on="1"/>
      </contour>
      <contour>
        <pt x="448" y="270" on="1"/>
        <pt x="441" y="270" on="0"/>
        <pt x="388" y="271" on="0"/>
        <pt x="335" y="272" on="0"/>
        <pt x="327" y="272" on="1"/>
        <pt x="267" y="272" on="1"/>
        <pt x="332" y="394" on="1"/>
        <pt x="386" y="394" on="1"/>
        <pt x="393" y="394" on="0"/>
        <pt x="437" y="395" on="0"/>
        <pt x="480" y="396" on="0"/>
        <pt x="487" y="396" on="1"/>
        <pt x="610" y="396" on="1"/>
        <pt x="617" y="396" on="0"/>
        <pt x="672" y="395" on="0"/>
        <pt x="728" y="394" on="0"/>
        <pt x="736" y="394" on="1"/>
        <pt x="790" y="394" on="1"/>
        <pt x="790" y="272" on="1"/>
        <pt x="736" y="272" on="1"/>
        <pt x="729" y="272" on="0"/>
        <pt x="672" y="271" on="0"/>
        <pt x="617" y="270" on="0"/>
        <pt x="610" y="270" on="1"/>
      </contour>
      <contour>
        <pt x="721" y="1075" on="1"/>
        <pt x="735" y="1085" on="1"/>
        <pt x="870" y="1085" on="1"/>
        <pt x="868" y="962" on="1"/>
        <pt x="868" y="943" on="0"/>
        <pt x="870" y="889" on="0"/>
        <pt x="870" y="857" on="1"/>
        <pt x="870" y="198" on="1"/>
        <pt x="870" y="179" on="0"/>
        <pt x="868" y="135" on="0"/>
        <pt x="868" y="125" on="1"/>
        <pt x="868" y="0" on="1"/>
        <pt x="808" y="0" on="1"/>
        <pt x="768" y="0" on="0"/>
        <pt x="721" y="50" on="0"/>
        <pt x="721" y="95" on="1"/>
      </contour>
      <contour>
        <pt x="1324" y="615" on="1"/>
        <pt x="1328" y="600" on="0"/>
        <pt x="1330" y="564" on="0"/>
        <pt x="1330" y="552" on="1"/>
        <pt x="1330" y="539" on="0"/>
        <pt x="1328" y="505" on="0"/>
        <pt x="1324" y="489" on="1"/>
        <pt x="976" y="489" on="1"/>
        <pt x="956" y="489" on="0"/>
        <pt x="902" y="489" on="0"/>
        <pt x="843" y="490" on="0"/>
        <pt x="817" y="491" on="1"/>
        <pt x="817" y="613" on="1"/>
        <pt x="843" y="613" on="0"/>
        <pt x="902" y="614" on="0"/>
        <pt x="956" y="615" on="0"/>
        <pt x="976" y="615" on="1"/>
      </contour>
      <contour>
        <pt x="1418" y="1085" on="1"/>
        <pt x="1422" y="1069" on="0"/>
        <pt x="1423" y="1038" on="0"/>
        <pt x="1423" y="1025" on="1"/>
        <pt x="1423" y="1012" on="0"/>
        <pt x="1418" y="975" on="0"/>
        <pt x="1412" y="958" on="1"/>
        <pt x="976" y="958" on="1"/>
        <pt x="956" y="958" on="0"/>
        <pt x="902" y="958" on="0"/>
        <pt x="843" y="959" on="0"/>
        <pt x="817" y="960" on="1"/>
        <pt x="817" y="1085" on="1"/>
      </contour>
      <contour>
        <pt x="1449" y="129" on="1"/>
        <pt x="1449" y="57" on="0"/>
        <pt x="1401" y="0" on="0"/>
        <pt x="1349" y="0" on="1"/>
        <pt x="819" y="0" on="1"/>
        <pt x="819" y="123" on="1"/>
        <pt x="841" y="125" on="0"/>
        <pt x="886" y="127" on="0"/>
        <pt x="941" y="129" on="0"/>
        <pt x="979" y="129" on="1"/>
      </contour>
    </TTGlyph>
    <TTGlyph name="agrave" xMin="36" yMin="-12" xMax="1017" yMax="1548">
      <component glyphName="a" x="0" y="0" flags="0x204"/>
      <component glyphName="grave" x="137" y="104" flags="0x4"/>
    </TTGlyph>
    <TTGlyph name="amacron" xMin="36" yMin="-12" xMax="1017" yMax="1393">
      <component glyphName="a" x="0" y="0" flags="0x204"/>
      <component glyphName="macron" x="129" y="104" flags="0x4"/>
    </TTGlyph>
    <TTGlyph name="ampersand" xMin="112" yMin="-24" xMax="1160" yMax="1390">
      <contour>
        <pt x="961" y="793" on="1"/>
        <pt x="1013" y="793" on="0"/>
        <pt x="1110" y="806" on="0"/>
        <pt x="1139" y="820" on="1"/>
        <pt x="1150" y="806" on="0"/>
        <pt x="1160" y="764" on="0"/>
        <pt x="1160" y="746" on="1"/>
        <pt x="1160" y="693" on="0"/>
        <pt x="1084" y="662" on="0"/>
        <pt x="1031" y="662" on="1"/>
        <pt x="585" y="662" on="1"/>
        <pt x="469" y="662" on="0"/>
        <pt x="333" y="567" on="0"/>
        <pt x="274" y="427" on="0"/>
        <pt x="274" y="362" on="1"/>
        <pt x="274" y="243" on="0"/>
        <pt x="402" y="104" on="0"/>
        <pt x="517" y="104" on="1"/>
        <pt x="604" y="104" on="0"/>
        <pt x="763" y="166" on="0"/>
        <pt x="811" y="207" on="1"/>
        <pt x="811" y="534" on="1"/>
        <pt x="811" y="572" on="0"/>
        <pt x="814" y="688" on="0"/>
        <pt x="816" y="728" on="1"/>
        <pt x="956" y="728" on="1"/>
        <pt x="958" y="688" on="0"/>
        <pt x="961" y="571" on="0"/>
        <pt x="961" y="536" on="1"/>
        <pt x="961" y="294" on="1"/>
        <pt x="961" y="223" on="0"/>
        <pt x="967" y="66" on="0"/>
        <pt x="973" y="0" on="1"/>
        <pt x="958" y="-3" on="0"/>
        <pt x="923" y="-7" on="0"/>
        <pt x="901" y="-7" on="1"/>
        <pt x="879" y="-7" on="0"/>
        <pt x="843" y="-3" on="0"/>
        <pt x="829" y="0" on="1"/>
        <pt x="816" y="78" on="1"/>
        <pt x="746" y="32" on="0"/>
        <pt x="577" y="-24" on="0"/>
        <pt x="491" y="-24" on="1"/>
        <pt x="367" y="-24" on="0"/>
        <pt x="198" y="75" on="0"/>
        <pt x="112" y="248" on="0"/>
        <pt x="112" y="360" on="1"/>
        <pt x="112" y="468" on="0"/>
        <pt x="214" y="642" on="0"/>
        <pt x="373" y="744" on="0"/>
        <pt x="458" y="746" on="1"/>
        <pt x="458" y="718" on="1"/>
        <pt x="381" y="721" on="0"/>
        <pt x="249" y="808" on="0"/>
        <pt x="168" y="951" on="0"/>
        <pt x="168" y="1038" on="1"/>
        <pt x="168" y="1132" on="0"/>
        <pt x="263" y="1293" on="0"/>
        <pt x="446" y="1390" on="0"/>
        <pt x="578" y="1390" on="1"/>
        <pt x="671" y="1390" on="0"/>
        <pt x="852" y="1358" on="0"/>
        <pt x="913" y="1336" on="1"/>
        <pt x="913" y="1304" on="0"/>
        <pt x="891" y="1234" on="0"/>
        <pt x="871" y="1211" on="1"/>
        <pt x="805" y="1231" on="0"/>
        <pt x="662" y="1262" on="0"/>
        <pt x="577" y="1262" on="1"/>
        <pt x="460" y="1262" on="0"/>
        <pt x="330" y="1132" on="0"/>
        <pt x="330" y="1031" on="1"/>
        <pt x="330" y="928" on="0"/>
        <pt x="460" y="793" on="0"/>
        <pt x="604" y="793" on="1"/>
      </contour>
    </TTGlyph>
    <TTGlyph name="aogonek" xMin="36" yMin="-434" xMax="1107" yMax="1093">
      <contour>
        <pt x="1069" y="-290" on="1"/>
        <pt x="1084" y="-302" on="0"/>
        <pt x="1106" y="-343" on="0"/>
        <pt x="1107" y="-369" on="1"/>
        <pt x="1073" y="-396" on="0"/>
        <pt x="965" y="-434" on="0"/>
        <pt x="908" y="-434" on="1"/>
        <pt x="822" y="-434" on="0"/>
        <pt x="706" y="-340" on="0"/>
        <pt x="706" y="-253" on="1"/>
        <pt x="706" y="-194" on="0"/>
        <pt x="763" y="-84" on="0"/>
        <pt x="858" y="11" on="0"/>
        <pt x="914" y="47" on="1"/>
        <pt x="1017" y="7" on="1"/>
        <pt x="943" y="-42" on="0"/>
        <pt x="838" y="-157" on="0"/>
        <pt x="838" y="-225" on="1"/>
        <pt x="838" y="-274" on="0"/>
        <pt x="897" y="-325" on="0"/>
        <pt x="942" y="-325" on="1"/>
        <pt x="978" y="-325" on="0"/>
        <pt x="1045" y="-303" on="0"/>
      </contour>
      <contour>
        <pt x="440" y="1085" on="1"/>
        <pt x="452" y="1088" on="0"/>
        <pt x="510" y="1093" on="0"/>
        <pt x="529" y="1093" on="1"/>
        <pt x="547" y="1093" on="0"/>
        <pt x="601" y="1088" on="0"/>
        <pt x="613" y="1085" on="1"/>
        <pt x="1017" y="7" on="1"/>
        <pt x="1000" y="-3" on="0"/>
        <pt x="954" y="-12" on="0"/>
        <pt x="928" y="-12" on="1"/>
        <pt x="893" y="-12" on="0"/>
        <pt x="856" y="19" on="0"/>
        <pt x="839" y="65" on="1"/>
        <pt x="622" y="656" on="1"/>
        <pt x="608" y="694" on="0"/>
        <pt x="572" y="800" on="0"/>
        <pt x="536" y="907" on="0"/>
        <pt x="523" y="949" on="1"/>
        <pt x="515" y="949" on="1"/>
        <pt x="498" y="889" on="0"/>
        <pt x="453" y="753" on="0"/>
        <pt x="439" y="714" on="1"/>
        <pt x="177" y="-2" on="1"/>
        <pt x="163" y="-5" on="0"/>
        <pt x="127" y="-8" on="0"/>
        <pt x="111" y="-8" on="1"/>
        <pt x="91" y="-8" on="0"/>
        <pt x="54" y="-2" on="0"/>
        <pt x="41" y="2" on="1"/>
        <pt x="36" y="9" on="1"/>
      </contour>
      <contour>
        <pt x="407" y="270" on="1"/>
        <pt x="401" y="270" on="0"/>
        <pt x="338" y="271" on="0"/>
        <pt x="276" y="272" on="0"/>
        <pt x="268" y="272" on="1"/>
        <pt x="208" y="272" on="1"/>
        <pt x="258" y="397" on="1"/>
        <pt x="312" y="397" on="1"/>
        <pt x="320" y="397" on="0"/>
        <pt x="372" y="398" on="0"/>
        <pt x="424" y="399" on="0"/>
        <pt x="430" y="399" on="1"/>
        <pt x="622" y="399" on="1"/>
        <pt x="629" y="399" on="0"/>
        <pt x="675" y="398" on="0"/>
        <pt x="721" y="397" on="0"/>
        <pt x="729" y="397" on="1"/>
        <pt x="785" y="397" on="1"/>
        <pt x="833" y="272" on="1"/>
        <pt x="770" y="272" on="1"/>
        <pt x="764" y="272" on="0"/>
        <pt x="707" y="271" on="0"/>
        <pt x="649" y="270" on="0"/>
        <pt x="643" y="270" on="1"/>
      </contour>
    </TTGlyph>
    <TTGlyph name="approxequal" xMin="89" yMin="284" xMax="993" yMax="879">
      <component glyphName="asciitilde" x="4" y="178" scalex="0.958" scaley="0.975" flags="0x4"/>
      <component glyphName="asciitilde" x="4" y="-148" scalex="0.958" scaley="0.975" flags="0x4"/>
    </TTGlyph>
    <TTGlyph name="aring" xMin="36" yMin="-12" xMax="1017" yMax="1598">
      <component glyphName="a" x="0" y="0" flags="0x204"/>
      <component glyphName="ring" x="129" y="104" flags="0x4"/>
    </TTGlyph>
    <TTGlyph name="asciicircum" xMin="105" yMin="604" xMax="955" yMax="1304">
      <contour>
        <pt x="955" y="612" on="1"/>
        <pt x="930" y="604" on="0"/>
        <pt x="879" y="604" on="1"/>
        <pt x="858" y="604" on="0"/>
        <pt x="817" y="607" on="0"/>
        <pt x="803" y="612" on="1"/>
        <pt x="601" y="1026" on="1"/>
        <pt x="589" y="1051" on="0"/>
        <pt x="567" y="1099" on="0"/>
        <pt x="546" y="1147" on="0"/>
        <pt x="536" y="1170" on="1"/>
        <pt x="524" y="1170" on="1"/>
        <pt x="514" y="1147" on="0"/>
        <pt x="493" y="1099" on="0"/>
        <pt x="471" y="1051" on="0"/>
        <pt x="459" y="1026" on="1"/>
        <pt x="258" y="612" on="1"/>
        <pt x="243" y="607" on="0"/>
        <pt x="202" y="604" on="0"/>
        <pt x="181" y="604" on="1"/>
        <pt x="130" y="604" on="0"/>
        <pt x="105" y="612" on="1"/>
        <pt x="449" y="1296" on="1"/>
        <pt x="465" y="1300" on="0"/>
        <pt x="508" y="1304" on="0"/>
        <pt x="530" y="1304" on="1"/>
        <pt x="553" y="1304" on="0"/>
        <pt x="595" y="1300" on="0"/>
        <pt x="611" y="1296" on="1"/>
      </contour>
    </TTGlyph>
    <TTGlyph name="asciitilde" xMin="89" yMin="443" xMax="1032" yMax="719">
      <contour>
        <pt x="675" y="611" on="1"/>
        <pt x="704" y="599" on="0"/>
        <pt x="759" y="585" on="0"/>
        <pt x="786" y="585" on="1"/>
        <pt x="825" y="585" on="0"/>
        <pt x="888" y="623" on="0"/>
        <pt x="913" y="656" on="1"/>
        <pt x="944" y="695" on="1"/>
        <pt x="969" y="693" on="0"/>
        <pt x="1022" y="661" on="0"/>
        <pt x="1032" y="637" on="1"/>
        <pt x="1013" y="601" on="1"/>
        <pt x="971" y="523" on="0"/>
        <pt x="846" y="443" on="0"/>
        <pt x="763" y="443" on="1"/>
        <pt x="722" y="443" on="0"/>
        <pt x="637" y="465" on="0"/>
        <pt x="598" y="483" on="1"/>
        <pt x="445" y="551" on="1"/>
        <pt x="417" y="563" on="0"/>
        <pt x="361" y="577" on="0"/>
        <pt x="334" y="577" on="1"/>
        <pt x="296" y="577" on="0"/>
        <pt x="233" y="539" on="0"/>
        <pt x="207" y="506" on="1"/>
        <pt x="176" y="467" on="1"/>
        <pt x="151" y="469" on="0"/>
        <pt x="98" y="501" on="0"/>
        <pt x="89" y="525" on="1"/>
        <pt x="108" y="561" on="1"/>
        <pt x="149" y="639" on="0"/>
        <pt x="274" y="719" on="0"/>
        <pt x="358" y="719" on="1"/>
        <pt x="398" y="719" on="0"/>
        <pt x="483" y="697" on="0"/>
        <pt x="523" y="679" on="1"/>
      </contour>
    </TTGlyph>
    <TTGlyph name="asterisk" xMin="96" yMin="708" xMax="894" yMax="1476">
      <contour>
        <pt x="424" y="1462" on="1"/>
        <pt x="442" y="1470" on="0"/>
        <pt x="495" y="1476" on="0"/>
        <pt x="548" y="1470" on="0"/>
        <pt x="567" y="1462" on="1"/>
        <pt x="568" y="1360" on="1"/>
        <pt x="569" y="1291" on="0"/>
        <pt x="541" y="1147" on="0"/>
        <pt x="530" y="1090" on="1"/>
        <pt x="511" y="1068" on="0"/>
        <pt x="495" y="1068" on="1"/>
        <pt x="477" y="1068" on="0"/>
        <pt x="461" y="1090" on="1"/>
        <pt x="448" y="1147" on="0"/>
        <pt x="422" y="1291" on="0"/>
        <pt x="423" y="1360" on="1"/>
      </contour>
      <contour>
        <pt x="99" y="1123" on="1"/>
        <pt x="96" y="1142" on="0"/>
        <pt x="108" y="1193" on="0"/>
        <pt x="130" y="1242" on="0"/>
        <pt x="144" y="1257" on="1"/>
        <pt x="240" y="1228" on="1"/>
        <pt x="306" y="1207" on="0"/>
        <pt x="434" y="1135" on="0"/>
        <pt x="486" y="1108" on="1"/>
        <pt x="501" y="1083" on="0"/>
        <pt x="495" y="1068" on="1"/>
        <pt x="492" y="1060" on="0"/>
        <pt x="478" y="1046" on="0"/>
        <pt x="463" y="1043" on="1"/>
        <pt x="405" y="1049" on="0"/>
        <pt x="260" y="1066" on="0"/>
        <pt x="194" y="1090" on="1"/>
      </contour>
      <contour>
        <pt x="321" y="708" on="1"/>
        <pt x="302" y="712" on="0"/>
        <pt x="257" y="738" on="0"/>
        <pt x="217" y="773" on="0"/>
        <pt x="206" y="792" on="1"/>
        <pt x="263" y="873" on="1"/>
        <pt x="304" y="930" on="0"/>
        <pt x="412" y="1031" on="0"/>
        <pt x="453" y="1070" on="1"/>
        <pt x="481" y="1079" on="0"/>
        <pt x="495" y="1068" on="1"/>
        <pt x="502" y="1063" on="0"/>
        <pt x="511" y="1045" on="0"/>
        <pt x="510" y="1031" on="1"/>
        <pt x="486" y="977" on="0"/>
        <pt x="424" y="844" on="0"/>
        <pt x="381" y="788" on="1"/>
      </contour>
      <contour>
        <pt x="783" y="790" on="1"/>
        <pt x="774" y="773" on="0"/>
        <pt x="736" y="739" on="0"/>
        <pt x="690" y="712" on="0"/>
        <pt x="668" y="708" on="1"/>
        <pt x="610" y="788" on="1"/>
        <pt x="566" y="843" on="0"/>
        <pt x="506" y="976" on="0"/>
        <pt x="481" y="1029" on="1"/>
        <pt x="481" y="1057" on="0"/>
        <pt x="495" y="1068" on="1"/>
        <pt x="502" y="1073" on="0"/>
        <pt x="523" y="1076" on="0"/>
        <pt x="536" y="1070" on="1"/>
        <pt x="580" y="1031" on="0"/>
        <pt x="688" y="930" on="0"/>
        <pt x="728" y="873" on="1"/>
      </contour>
      <contour>
        <pt x="848" y="1255" on="1"/>
        <pt x="861" y="1243" on="0"/>
        <pt x="882" y="1196" on="0"/>
        <pt x="894" y="1143" on="0"/>
        <pt x="892" y="1122" on="1"/>
        <pt x="797" y="1089" on="1"/>
        <pt x="731" y="1067" on="0"/>
        <pt x="586" y="1050" on="0"/>
        <pt x="530" y="1043" on="1"/>
        <pt x="502" y="1051" on="0"/>
        <pt x="495" y="1068" on="1"/>
        <pt x="488" y="1086" on="0"/>
        <pt x="505" y="1107" on="1"/>
        <pt x="557" y="1137" on="0"/>
        <pt x="685" y="1208" on="0"/>
        <pt x="751" y="1228" on="1"/>
      </contour>
    </TTGlyph>
    <TTGlyph name="at" xMin="114" yMin="-361" xMax="1769" yMax="1346">
      <contour>
        <pt x="1288" y="307" on="1"/>
        <pt x="1288" y="219" on="0"/>
        <pt x="1338" y="147" on="0"/>
        <pt x="1390" y="147" on="1"/>
        <pt x="1445" y="147" on="0"/>
        <pt x="1552" y="230" on="0"/>
        <pt x="1622" y="419" on="0"/>
        <pt x="1622" y="579" on="1"/>
        <pt x="1622" y="774" on="0"/>
        <pt x="1460" y="1068" on="0"/>
        <pt x="1164" y="1233" on="0"/>
        <pt x="965" y="1233" on="1"/>
        <pt x="805" y="1233" on="0"/>
        <pt x="547" y="1114" on="0"/>
        <pt x="362" y="903" on="0"/>
        <pt x="263" y="620" on="0"/>
        <pt x="263" y="455" on="1"/>
        <pt x="263" y="232" on="0"/>
        <pt x="421" y="-79" on="0"/>
        <pt x="701" y="-242" on="0"/>
        <pt x="884" y="-242" on="1"/>
        <pt x="998" y="-242" on="0"/>
        <pt x="1206" y="-207" on="0"/>
        <pt x="1296" y="-170" on="1"/>
        <pt x="1314" y="-185" on="0"/>
        <pt x="1340" y="-248" on="0"/>
        <pt x="1340" y="-278" on="1"/>
        <pt x="1266" y="-305" on="0"/>
        <pt x="1113" y="-342" on="0"/>
        <pt x="957" y="-361" on="0"/>
        <pt x="877" y="-361" on="1"/>
        <pt x="656" y="-361" on="0"/>
        <pt x="312" y="-171" on="0"/>
        <pt x="114" y="194" on="0"/>
        <pt x="114" y="455" on="1"/>
        <pt x="114" y="644" on="0"/>
        <pt x="238" y="968" on="0"/>
        <pt x="464" y="1211" on="0"/>
        <pt x="776" y="1346" on="0"/>
        <pt x="965" y="1346" on="1"/>
        <pt x="1144" y="1346" on="0"/>
        <pt x="1440" y="1235" on="0"/>
        <pt x="1654" y="1030" on="0"/>
        <pt x="1769" y="746" on="0"/>
        <pt x="1769" y="573" on="1"/>
        <pt x="1769" y="399" on="0"/>
        <pt x="1658" y="156" on="0"/>
        <pt x="1481" y="28" on="0"/>
        <pt x="1380" y="28" on="1"/>
        <pt x="1305" y="28" on="0"/>
        <pt x="1199" y="88" on="0"/>
        <pt x="1144" y="195" on="0"/>
        <pt x="1144" y="267" on="1"/>
        <pt x="1144" y="769" on="1"/>
        <pt x="1117" y="797" on="0"/>
        <pt x="1017" y="843" on="0"/>
        <pt x="959" y="843" on="1"/>
        <pt x="879" y="843" on="0"/>
        <pt x="769" y="737" on="0"/>
        <pt x="711" y="559" on="0"/>
        <pt x="711" y="453" on="1"/>
        <pt x="711" y="321" on="0"/>
        <pt x="803" y="143" on="0"/>
        <pt x="906" y="143" on="1"/>
        <pt x="955" y="143" on="0"/>
        <pt x="1061" y="201" on="0"/>
        <pt x="1147" y="292" on="0"/>
        <pt x="1166" y="341" on="1"/>
        <pt x="1225" y="258" on="1"/>
        <pt x="1201" y="199" on="0"/>
        <pt x="1095" y="89" on="0"/>
        <pt x="954" y="19" on="0"/>
        <pt x="877" y="19" on="1"/>
        <pt x="782" y="19" on="0"/>
        <pt x="640" y="124" on="0"/>
        <pt x="563" y="318" on="0"/>
        <pt x="563" y="452" on="1"/>
        <pt x="563" y="587" on="0"/>
        <pt x="654" y="817" on="0"/>
        <pt x="831" y="957" on="0"/>
        <pt x="959" y="957" on="1"/>
        <pt x="1059" y="957" on="0"/>
        <pt x="1227" y="881" on="0"/>
        <pt x="1288" y="826" on="1"/>
      </contour>
    </TTGlyph>
    <TTGlyph name="atilde" xMin="36" yMin="-12" xMax="1017" yMax="1459">
      <component glyphName="a" x="0" y="0" flags="0x204"/>
      <component glyphName="tilde" x="129" y="104" flags="0x4"/>
    </TTGlyph>
    <TTGlyph name="b" xMin="182" yMin="-6" xMax="979" yMax="1091">
      <contour>
        <pt x="192" y="1085" on="1"/>
        <pt x="254" y="1086" on="0"/>
        <pt x="368" y="1089" on="0"/>
        <pt x="479" y="1091" on="0"/>
        <pt x="536" y="1091" on="1"/>
        <pt x="672" y="1091" on="0"/>
        <pt x="841" y="1022" on="0"/>
        <pt x="919" y="894" on="0"/>
        <pt x="919" y="807" on="1"/>
        <pt x="919" y="746" on="0"/>
        <pt x="859" y="642" on="0"/>
        <pt x="750" y="575" on="0"/>
        <pt x="676" y="569" on="1"/>
        <pt x="676" y="591" on="1"/>
        <pt x="751" y="591" on="0"/>
        <pt x="890" y="516" on="0"/>
        <pt x="979" y="386" on="0"/>
        <pt x="979" y="303" on="1"/>
        <pt x="979" y="220" on="0"/>
        <pt x="897" y="79" on="0"/>
        <pt x="712" y="-6" on="0"/>
        <pt x="558" y="-6" on="1"/>
        <pt x="484" y="-6" on="0"/>
        <pt x="367" y="-4" on="0"/>
        <pt x="257" y="-1" on="0"/>
        <pt x="192" y="0" on="1"/>
        <pt x="182" y="10" on="1"/>
        <pt x="182" y="1075" on="1"/>
      </contour>
      <contour>
        <pt x="333" y="113" on="1"/>
        <pt x="394" y="113" on="0"/>
        <pt x="506" y="115" on="0"/>
        <pt x="568" y="115" on="1"/>
        <pt x="674" y="115" on="0"/>
        <pt x="783" y="179" on="0"/>
        <pt x="822" y="270" on="0"/>
        <pt x="822" y="311" on="1"/>
        <pt x="822" y="353" on="0"/>
        <pt x="774" y="446" on="0"/>
        <pt x="656" y="512" on="0"/>
        <pt x="550" y="512" on="1"/>
        <pt x="271" y="512" on="1"/>
        <pt x="271" y="635" on="1"/>
        <pt x="533" y="635" on="1"/>
        <pt x="628" y="635" on="0"/>
        <pt x="728" y="686" on="0"/>
        <pt x="764" y="764" on="0"/>
        <pt x="764" y="803" on="1"/>
        <pt x="764" y="844" on="0"/>
        <pt x="729" y="921" on="0"/>
        <pt x="631" y="970" on="0"/>
        <pt x="537" y="970" on="1"/>
        <pt x="495" y="970" on="0"/>
        <pt x="380" y="970" on="0"/>
        <pt x="333" y="972" on="1"/>
      </contour>
    </TTGlyph>
    <TTGlyph name="backslash" xMin="27" yMin="-212" xMax="792" yMax="1515">
      <contour>
        <pt x="661" y="-212" on="1"/>
        <pt x="691" y="-210" on="0"/>
        <pt x="765" y="-183" on="0"/>
        <pt x="792" y="-163" on="1"/>
        <pt x="159" y="1515" on="1"/>
        <pt x="126" y="1515" on="0"/>
        <pt x="55" y="1488" on="0"/>
        <pt x="27" y="1466" on="1"/>
      </contour>
    </TTGlyph>
    <TTGlyph name="bar" xMin="177" yMin="-287" xMax="318" yMax="1556">
      <contour>
        <pt x="177" y="1550" on="1"/>
        <pt x="192" y="1553" on="0"/>
        <pt x="229" y="1556" on="0"/>
        <pt x="246" y="1556" on="1"/>
        <pt x="266" y="1556" on="0"/>
        <pt x="301" y="1553" on="0"/>
        <pt x="318" y="1550" on="1"/>
        <pt x="318" y="-280" on="1"/>
        <pt x="301" y="-283" on="0"/>
        <pt x="266" y="-287" on="0"/>
        <pt x="246" y="-287" on="1"/>
        <pt x="229" y="-287" on="0"/>
        <pt x="192" y="-283" on="0"/>
        <pt x="177" y="-280" on="1"/>
      </contour>
    </TTGlyph>
    <TTGlyph name="braceleft" xMin="75" yMin="-324" xMax="621" yMax="1619">
      <contour>
        <pt x="82" y="699" on="1"/>
        <pt x="149" y="725" on="0"/>
        <pt x="243" y="849" on="0"/>
        <pt x="243" y="944" on="1"/>
        <pt x="243" y="1294" on="1"/>
        <pt x="243" y="1430" on="0"/>
        <pt x="392" y="1585" on="0"/>
        <pt x="506" y="1605" on="1"/>
        <pt x="591" y="1619" on="1"/>
        <pt x="602" y="1607" on="0"/>
        <pt x="616" y="1570" on="0"/>
        <pt x="621" y="1528" on="0"/>
        <pt x="617" y="1510" on="1"/>
        <pt x="529" y="1483" on="1"/>
        <pt x="462" y="1463" on="0"/>
        <pt x="396" y="1366" on="0"/>
        <pt x="396" y="1292" on="1"/>
        <pt x="396" y="948" on="1"/>
        <pt x="396" y="857" on="0"/>
        <pt x="309" y="692" on="0"/>
        <pt x="235" y="656" on="1"/>
        <pt x="235" y="640" on="1"/>
        <pt x="309" y="604" on="0"/>
        <pt x="396" y="440" on="0"/>
        <pt x="396" y="349" on="1"/>
        <pt x="396" y="3" on="1"/>
        <pt x="396" y="-71" on="0"/>
        <pt x="462" y="-168" on="0"/>
        <pt x="529" y="-188" on="1"/>
        <pt x="617" y="-215" on="1"/>
        <pt x="621" y="-233" on="0"/>
        <pt x="616" y="-275" on="0"/>
        <pt x="602" y="-312" on="0"/>
        <pt x="591" y="-324" on="1"/>
        <pt x="506" y="-310" on="1"/>
        <pt x="392" y="-290" on="0"/>
        <pt x="243" y="-135" on="0"/>
        <pt x="243" y="1" on="1"/>
        <pt x="243" y="353" on="1"/>
        <pt x="243" y="447" on="0"/>
        <pt x="149" y="571" on="0"/>
        <pt x="82" y="598" on="1"/>
        <pt x="75" y="615" on="0"/>
        <pt x="75" y="682" on="0"/>
      </contour>
    </TTGlyph>
    <TTGlyph name="braceright" xMin="14" yMin="-324" xMax="561" yMax="1619">
      <contour>
        <pt x="553" y="699" on="1"/>
        <pt x="486" y="725" on="0"/>
        <pt x="392" y="849" on="0"/>
        <pt x="392" y="944" on="1"/>
        <pt x="392" y="1294" on="1"/>
        <pt x="392" y="1430" on="0"/>
        <pt x="243" y="1585" on="0"/>
        <pt x="129" y="1605" on="1"/>
        <pt x="44" y="1619" on="1"/>
        <pt x="34" y="1607" on="0"/>
        <pt x="19" y="1570" on="0"/>
        <pt x="14" y="1528" on="0"/>
        <pt x="18" y="1510" on="1"/>
        <pt x="106" y="1483" on="1"/>
        <pt x="173" y="1463" on="0"/>
        <pt x="239" y="1366" on="0"/>
        <pt x="239" y="1292" on="1"/>
        <pt x="239" y="948" on="1"/>
        <pt x="239" y="857" on="0"/>
        <pt x="326" y="692" on="0"/>
        <pt x="400" y="656" on="1"/>
        <pt x="400" y="640" on="1"/>
        <pt x="326" y="604" on="0"/>
        <pt x="239" y="440" on="0"/>
        <pt x="239" y="349" on="1"/>
        <pt x="239" y="3" on="1"/>
        <pt x="239" y="-71" on="0"/>
        <pt x="173" y="-168" on="0"/>
        <pt x="106" y="-188" on="1"/>
        <pt x="18" y="-215" on="1"/>
        <pt x="14" y="-233" on="0"/>
        <pt x="19" y="-275" on="0"/>
        <pt x="34" y="-312" on="0"/>
        <pt x="44" y="-324" on="1"/>
        <pt x="129" y="-310" on="1"/>
        <pt x="243" y="-290" on="0"/>
        <pt x="392" y="-135" on="0"/>
        <pt x="392" y="1" on="1"/>
        <pt x="392" y="353" on="1"/>
        <pt x="392" y="447" on="0"/>
        <pt x="486" y="571" on="0"/>
        <pt x="553" y="598" on="1"/>
        <pt x="561" y="615" on="0"/>
        <pt x="561" y="682" on="0"/>
      </contour>
    </TTGlyph>
    <TTGlyph name="bracketleft" xMin="200" yMin="-283" xMax="571" yMax="1616">
      <contour>
        <pt x="200" y="1604" on="1"/>
        <pt x="353" y="1549" on="1"/>
        <pt x="353" y="-221" on="1"/>
        <pt x="200" y="-270" on="1"/>
      </contour>
      <contour>
        <pt x="212" y="-283" on="1"/>
        <pt x="200" y="-270" on="1"/>
        <pt x="213" y="-146" on="1"/>
        <pt x="558" y="-155" on="1"/>
        <pt x="563" y="-168" on="0"/>
        <pt x="571" y="-206" on="0"/>
        <pt x="571" y="-222" on="1"/>
        <pt x="571" y="-233" on="0"/>
        <pt x="570" y="-256" on="0"/>
        <pt x="566" y="-268" on="1"/>
      </contour>
      <contour>
        <pt x="566" y="1602" on="1"/>
        <pt x="570" y="1590" on="0"/>
        <pt x="571" y="1567" on="0"/>
        <pt x="571" y="1556" on="1"/>
        <pt x="571" y="1540" on="0"/>
        <pt x="563" y="1502" on="0"/>
        <pt x="558" y="1488" on="1"/>
        <pt x="213" y="1480" on="1"/>
        <pt x="200" y="1604" on="1"/>
        <pt x="212" y="1616" on="1"/>
      </contour>
    </TTGlyph>
    <TTGlyph name="bracketright" xMin="60" yMin="-283" xMax="431" yMax="1616">
      <contour>
        <pt x="431" y="1604" on="1"/>
        <pt x="279" y="1549" on="1"/>
        <pt x="279" y="-221" on="1"/>
        <pt x="431" y="-270" on="1"/>
      </contour>
      <contour>
        <pt x="419" y="-283" on="1"/>
        <pt x="431" y="-270" on="1"/>
        <pt x="419" y="-146" on="1"/>
        <pt x="73" y="-155" on="1"/>
        <pt x="68" y="-168" on="0"/>
        <pt x="60" y="-206" on="0"/>
        <pt x="60" y="-222" on="1"/>
        <pt x="60" y="-233" on="0"/>
        <pt x="62" y="-256" on="0"/>
        <pt x="65" y="-268" on="1"/>
      </contour>
      <contour>
        <pt x="65" y="1602" on="1"/>
        <pt x="62" y="1590" on="0"/>
        <pt x="60" y="1567" on="0"/>
        <pt x="60" y="1556" on="1"/>
        <pt x="60" y="1540" on="0"/>
        <pt x="68" y="1502" on="0"/>
        <pt x="73" y="1488" on="1"/>
        <pt x="419" y="1480" on="1"/>
        <pt x="431" y="1604" on="1"/>
        <pt x="419" y="1616" on="1"/>
      </contour>
    </TTGlyph>
    <TTGlyph name="breve" xMin="98" yMin="1102" xMax="699" yMax="1372">
      <contour>
        <pt x="699" y="1337" on="1"/>
        <pt x="667" y="1229" on="0"/>
        <pt x="507" y="1102" on="0"/>
        <pt x="398" y="1102" on="1"/>
        <pt x="289" y="1102" on="0"/>
        <pt x="129" y="1229" on="0"/>
        <pt x="98" y="1337" on="1"/>
        <pt x="112" y="1354" on="0"/>
        <pt x="160" y="1371" on="0"/>
        <pt x="184" y="1372" on="1"/>
        <pt x="209" y="1310" on="0"/>
        <pt x="328" y="1243" on="0"/>
        <pt x="398" y="1243" on="1"/>
        <pt x="468" y="1243" on="0"/>
        <pt x="587" y="1310" on="0"/>
        <pt x="612" y="1372" on="1"/>
        <pt x="636" y="1371" on="0"/>
        <pt x="684" y="1354" on="0"/>
      </contour>
    </TTGlyph>
    <TTGlyph name="brokenbar" xMin="171" yMin="-287" xMax="312" yMax="1556">
      <contour>
        <pt x="171" y="494" on="1"/>
        <pt x="186" y="497" on="0"/>
        <pt x="223" y="500" on="0"/>
        <pt x="240" y="500" on="1"/>
        <pt x="260" y="500" on="0"/>
        <pt x="295" y="497" on="0"/>
        <pt x="312" y="494" on="1"/>
        <pt x="312" y="-280" on="1"/>
        <pt x="295" y="-283" on="0"/>
        <pt x="260" y="-287" on="0"/>
        <pt x="240" y="-287" on="1"/>
        <pt x="223" y="-287" on="0"/>
        <pt x="186" y="-283" on="0"/>
        <pt x="171" y="-280" on="1"/>
      </contour>
      <contour>
        <pt x="171" y="1550" on="1"/>
        <pt x="186" y="1553" on="0"/>
        <pt x="223" y="1556" on="0"/>
        <pt x="240" y="1556" on="1"/>
        <pt x="260" y="1556" on="0"/>
        <pt x="295" y="1553" on="0"/>
        <pt x="312" y="1550" on="1"/>
        <pt x="312" y="776" on="1"/>
        <pt x="295" y="772" on="0"/>
        <pt x="260" y="769" on="0"/>
        <pt x="240" y="769" on="1"/>
        <pt x="223" y="769" on="0"/>
        <pt x="186" y="772" on="0"/>
        <pt x="171" y="776" on="1"/>
      </contour>
    </TTGlyph>
    <TTGlyph name="bullet" xMin="238" yMin="350" xMax="642" yMax="738">
      <component glyphName="period" x="17" y="375" scalex="1.69" scaley="1.7905" flags="0x4"/>
    </TTGlyph>
    <TTGlyph name="c" xMin="90" yMin="-24" xMax="986" yMax="1109">
      <contour>
        <pt x="839" y="697" on="1"/>
        <pt x="838" y="766" on="0"/>
        <pt x="790" y="899" on="0"/>
        <pt x="672" y="984" on="0"/>
        <pt x="567" y="984" on="1"/>
        <pt x="415" y="984" on="0"/>
        <pt x="250" y="761" on="0"/>
        <pt x="250" y="540" on="1"/>
        <pt x="250" y="402" on="0"/>
        <pt x="328" y="208" on="0"/>
        <pt x="471" y="107" on="0"/>
        <pt x="568" y="107" on="1"/>
        <pt x="648" y="107" on="0"/>
        <pt x="810" y="171" on="0"/>
        <pt x="894" y="234" on="1"/>
        <pt x="912" y="223" on="0"/>
        <pt x="944" y="189" on="0"/>
        <pt x="968" y="151" on="0"/>
        <pt x="974" y="134" on="1"/>
        <pt x="901" y="68" on="0"/>
        <pt x="681" y="-24" on="0"/>
        <pt x="547" y="-24" on="1"/>
        <pt x="423" y="-24" on="0"/>
        <pt x="249" y="70" on="0"/>
        <pt x="140" y="231" on="0"/>
        <pt x="90" y="433" on="0"/>
        <pt x="90" y="540" on="1"/>
        <pt x="90" y="740" on="0"/>
        <pt x="224" y="991" on="0"/>
        <pt x="442" y="1109" on="0"/>
        <pt x="569" y="1109" on="1"/>
        <pt x="713" y="1109" on="0"/>
        <pt x="897" y="1006" on="0"/>
        <pt x="986" y="852" on="0"/>
        <pt x="986" y="777" on="1"/>
        <pt x="986" y="743" on="0"/>
        <pt x="955" y="687" on="0"/>
        <pt x="903" y="687" on="1"/>
        <pt x="885" y="687" on="0"/>
        <pt x="856" y="692" on="0"/>
      </contour>
    </TTGlyph>
    <TTGlyph name="cacute" xMin="90" yMin="-24" xMax="986" yMax="1548">
      <component glyphName="c" x="0" y="0" flags="0x204"/>
      <component glyphName="acute" x="172" y="104" flags="0x4"/>
    </TTGlyph>
    <TTGlyph name="caron" xMin="130" yMin="1095" xMax="668" yMax="1426">
      <contour>
        <pt x="331" y="1103" on="1"/>
        <pt x="130" y="1355" on="1"/>
        <pt x="143" y="1380" on="0"/>
        <pt x="188" y="1420" on="0"/>
        <pt x="209" y="1426" on="1"/>
        <pt x="399" y="1239" on="1"/>
        <pt x="589" y="1426" on="1"/>
        <pt x="610" y="1420" on="0"/>
        <pt x="655" y="1380" on="0"/>
        <pt x="668" y="1355" on="1"/>
        <pt x="467" y="1103" on="1"/>
        <pt x="453" y="1099" on="0"/>
        <pt x="417" y="1095" on="0"/>
        <pt x="399" y="1095" on="1"/>
        <pt x="381" y="1095" on="0"/>
        <pt x="345" y="1099" on="0"/>
      </contour>
    </TTGlyph>
    <TTGlyph name="ccaron" xMin="90" yMin="-24" xMax="986" yMax="1530">
      <component glyphName="c" x="0" y="0" flags="0x204"/>
      <component glyphName="caron" x="171" y="104" flags="0x4"/>
    </TTGlyph>
    <TTGlyph name="ccedilla" xMin="90" yMin="-437" xMax="986" yMax="1109">
      <component glyphName="c" x="0" y="0" flags="0x204"/>
      <component glyphName="cedilla" x="162" y="0" flags="0x4"/>
    </TTGlyph>
    <TTGlyph name="ccircumflex" xMin="90" yMin="-24" xMax="986" yMax="1522">
      <component glyphName="c" x="0" y="0" flags="0x204"/>
      <component glyphName="circumflex" x="171" y="104" flags="0x4"/>
    </TTGlyph>
    <TTGlyph name="cdotaccent" xMin="90" yMin="-24" xMax="986" yMax="1449">
      <component glyphName="c" x="0" y="0" flags="0x204"/>
      <component glyphName="dotaccent" x="171" y="104" flags="0x4"/>
    </TTGlyph>
    <TTGlyph name="cedilla" xMin="240" yMin="-437" xMax="609" yMax="0">
      <contour>
        <pt x="302" y="-145" on="1"/>
        <pt x="311" y="-112" on="0"/>
        <pt x="341" y="-29" on="0"/>
        <pt x="354" y="0" on="1"/>
        <pt x="467" y="0" on="1"/>
        <pt x="459" y="-15" on="0"/>
        <pt x="437" y="-61" on="0"/>
        <pt x="431" y="-79" on="1"/>
        <pt x="506" y="-85" on="0"/>
        <pt x="609" y="-176" on="0"/>
        <pt x="609" y="-253" on="1"/>
        <pt x="609" y="-334" on="0"/>
        <pt x="482" y="-437" on="0"/>
        <pt x="389" y="-437" on="1"/>
        <pt x="344" y="-437" on="0"/>
        <pt x="264" y="-416" on="0"/>
        <pt x="240" y="-401" on="1"/>
        <pt x="241" y="-375" on="0"/>
        <pt x="263" y="-331" on="0"/>
        <pt x="277" y="-312" on="1"/>
        <pt x="296" y="-324" on="0"/>
        <pt x="353" y="-340" on="0"/>
        <pt x="380" y="-340" on="1"/>
        <pt x="433" y="-340" on="0"/>
        <pt x="479" y="-286" on="0"/>
        <pt x="479" y="-252" on="1"/>
        <pt x="479" y="-217" on="0"/>
        <pt x="432" y="-165" on="0"/>
        <pt x="382" y="-165" on="1"/>
        <pt x="370" y="-165" on="0"/>
        <pt x="343" y="-171" on="0"/>
        <pt x="333" y="-175" on="1"/>
        <pt x="309" y="-165" on="0"/>
      </contour>
    </TTGlyph>
    <TTGlyph name="cent" xMin="103" yMin="-64" xMax="852" yMax="1366">
      <contour>
        <pt x="710" y="797" on="1"/>
        <pt x="713" y="854" on="0"/>
        <pt x="679" y="970" on="0"/>
        <pt x="585" y="1048" on="0"/>
        <pt x="501" y="1048" on="1"/>
        <pt x="392" y="1048" on="0"/>
        <pt x="262" y="844" on="0"/>
        <pt x="262" y="646" on="1"/>
        <pt x="262" y="454" on="0"/>
        <pt x="394" y="266" on="0"/>
        <pt x="514" y="266" on="1"/>
        <pt x="588" y="266" on="0"/>
        <pt x="715" y="333" on="0"/>
        <pt x="766" y="380" on="1"/>
        <pt x="789" y="369" on="0"/>
        <pt x="835" y="318" on="0"/>
        <pt x="844" y="293" on="1"/>
        <pt x="781" y="220" on="0"/>
        <pt x="599" y="137" on="0"/>
        <pt x="494" y="137" on="1"/>
        <pt x="385" y="137" on="0"/>
        <pt x="236" y="225" on="0"/>
        <pt x="144" y="372" on="0"/>
        <pt x="103" y="553" on="0"/>
        <pt x="103" y="646" on="1"/>
        <pt x="103" y="827" on="0"/>
        <pt x="218" y="1058" on="0"/>
        <pt x="402" y="1169" on="0"/>
        <pt x="506" y="1169" on="1"/>
        <pt x="601" y="1169" on="0"/>
        <pt x="733" y="1111" on="0"/>
        <pt x="815" y="1021" on="0"/>
        <pt x="852" y="924" on="0"/>
        <pt x="852" y="885" on="1"/>
        <pt x="852" y="846" on="0"/>
        <pt x="822" y="791" on="0"/>
        <pt x="773" y="791" on="1"/>
        <pt x="757" y="791" on="0"/>
        <pt x="727" y="794" on="0"/>
      </contour>
      <contour>
        <pt x="432" y="202" on="1"/>
        <pt x="443" y="205" on="0"/>
        <pt x="485" y="208" on="0"/>
        <pt x="499" y="208" on="1"/>
        <pt x="516" y="208" on="0"/>
        <pt x="553" y="205" on="0"/>
        <pt x="566" y="202" on="1"/>
        <pt x="566" y="-60" on="1"/>
        <pt x="553" y="-62" on="0"/>
        <pt x="516" y="-64" on="0"/>
        <pt x="499" y="-64" on="1"/>
        <pt x="485" y="-64" on="0"/>
        <pt x="443" y="-62" on="0"/>
        <pt x="432" y="-60" on="1"/>
      </contour>
      <contour>
        <pt x="438" y="1360" on="1"/>
        <pt x="449" y="1363" on="0"/>
        <pt x="491" y="1366" on="0"/>
        <pt x="505" y="1366" on="1"/>
        <pt x="522" y="1366" on="0"/>
        <pt x="559" y="1363" on="0"/>
        <pt x="572" y="1360" on="1"/>
        <pt x="572" y="1104" on="1"/>
        <pt x="559" y="1102" on="0"/>
        <pt x="522" y="1099" on="0"/>
        <pt x="505" y="1099" on="1"/>
        <pt x="491" y="1099" on="0"/>
        <pt x="449" y="1102" on="0"/>
        <pt x="438" y="1104" on="1"/>
      </contour>
    </TTGlyph>
    <TTGlyph name="circumflex" xMin="130" yMin="1087" xMax="667" yMax="1418">
      <contour>
        <pt x="466" y="1410" on="1"/>
        <pt x="667" y="1158" on="1"/>
        <pt x="655" y="1131" on="0"/>
        <pt x="610" y="1093" on="0"/>
        <pt x="588" y="1087" on="1"/>
        <pt x="399" y="1274" on="1"/>
        <pt x="209" y="1087" on="1"/>
        <pt x="187" y="1093" on="0"/>
        <pt x="142" y="1131" on="0"/>
        <pt x="130" y="1158" on="1"/>
        <pt x="331" y="1410" on="1"/>
        <pt x="344" y="1414" on="0"/>
        <pt x="380" y="1418" on="0"/>
        <pt x="399" y="1418" on="1"/>
        <pt x="417" y="1418" on="0"/>
        <pt x="453" y="1414" on="0"/>
      </contour>
    </TTGlyph>
    <TTGlyph name="colon" xMin="135" yMin="-14" xMax="374" yMax="883">
      <component glyphName="period" x="4" y="0" flags="0x4"/>
      <component glyphName="period" x="4" y="680" flags="0x4"/>
    </TTGlyph>
    <TTGlyph name="comma" xMin="78" yMin="-301" xMax="383" yMax="203">
      <contour>
        <pt x="363" y="182" on="1"/>
        <pt x="372" y="163" on="0"/>
        <pt x="383" y="96" on="0"/>
        <pt x="383" y="64" on="1"/>
        <pt x="383" y="-14" on="0"/>
        <pt x="326" y="-157" on="0"/>
        <pt x="210" y="-269" on="0"/>
        <pt x="122" y="-301" on="1"/>
        <pt x="101" y="-290" on="0"/>
        <pt x="78" y="-242" on="0"/>
        <pt x="80" y="-220" on="1"/>
        <pt x="148" y="-187" on="0"/>
        <pt x="233" y="-81" on="0"/>
        <pt x="234" y="-18" on="1"/>
        <pt x="217" y="-15" on="0"/>
        <pt x="169" y="-1" on="0"/>
        <pt x="157" y="8" on="1"/>
        <pt x="151" y="19" on="0"/>
        <pt x="141" y="69" on="0"/>
        <pt x="141" y="92" on="1"/>
        <pt x="141" y="115" on="0"/>
        <pt x="150" y="171" on="0"/>
        <pt x="157" y="182" on="1"/>
        <pt x="170" y="189" on="0"/>
        <pt x="236" y="203" on="0"/>
        <pt x="262" y="203" on="1"/>
        <pt x="287" y="203" on="0"/>
        <pt x="350" y="192" on="0"/>
      </contour>
    </TTGlyph>
    <TTGlyph name="copyright" xMin="90" yMin="-36" xMax="1529" yMax="1402">
      <contour>
        <pt x="90" y="682" on="1"/>
        <pt x="90" y="834" on="0"/>
        <pt x="200" y="1096" on="0"/>
        <pt x="395" y="1293" on="0"/>
        <pt x="656" y="1402" on="0"/>
        <pt x="809" y="1402" on="1"/>
        <pt x="961" y="1402" on="0"/>
        <pt x="1223" y="1293" on="0"/>
        <pt x="1419" y="1096" on="0"/>
        <pt x="1529" y="834" on="0"/>
        <pt x="1529" y="682" on="1"/>
        <pt x="1529" y="530" on="0"/>
        <pt x="1419" y="268" on="0"/>
        <pt x="1223" y="73" on="0"/>
        <pt x="961" y="-36" on="0"/>
        <pt x="809" y="-36" on="1"/>
        <pt x="656" y="-36" on="0"/>
        <pt x="395" y="73" on="0"/>
        <pt x="200" y="268" on="0"/>
        <pt x="90" y="530" on="0"/>
      </contour>
      <contour>
        <pt x="230" y="682" on="1"/>
        <pt x="230" y="558" on="0"/>
        <pt x="316" y="339" on="0"/>
        <pt x="472" y="173" on="0"/>
        <pt x="684" y="79" on="0"/>
        <pt x="809" y="79" on="1"/>
        <pt x="934" y="79" on="0"/>
        <pt x="1146" y="173" on="0"/>
        <pt x="1303" y="339" on="0"/>
        <pt x="1390" y="558" on="0"/>
        <pt x="1390" y="682" on="1"/>
        <pt x="1390" y="806" on="0"/>
        <pt x="1303" y="1025" on="0"/>
        <pt x="1146" y="1192" on="0"/>
        <pt x="934" y="1287" on="0"/>
        <pt x="809" y="1287" on="1"/>
        <pt x="684" y="1287" on="0"/>
        <pt x="472" y="1192" on="0"/>
        <pt x="316" y="1025" on="0"/>
        <pt x="230" y="806" on="0"/>
      </contour>
      <contour>
        <pt x="982" y="777" on="1"/>
        <pt x="986" y="823" on="0"/>
        <pt x="955" y="915" on="0"/>
        <pt x="877" y="976" on="0"/>
        <pt x="811" y="976" on="1"/>
        <pt x="718" y="976" on="0"/>
        <pt x="607" y="826" on="0"/>
        <pt x="607" y="682" on="1"/>
        <pt x="607" y="543" on="0"/>
        <pt x="722" y="393" on="0"/>
        <pt x="821" y="393" on="1"/>
        <pt x="878" y="393" on="0"/>
        <pt x="994" y="445" on="0"/>
        <pt x="1038" y="484" on="1"/>
        <pt x="1059" y="474" on="0"/>
        <pt x="1096" y="428" on="0"/>
        <pt x="1105" y="406" on="1"/>
        <pt x="1052" y="352" on="0"/>
        <pt x="890" y="281" on="0"/>
        <pt x="803" y="281" on="1"/>
        <pt x="699" y="281" on="0"/>
        <pt x="545" y="381" on="0"/>
        <pt x="461" y="562" on="0"/>
        <pt x="461" y="682" on="1"/>
        <pt x="461" y="819" on="0"/>
        <pt x="565" y="999" on="0"/>
        <pt x="727" y="1087" on="0"/>
        <pt x="815" y="1087" on="1"/>
        <pt x="920" y="1087" on="0"/>
        <pt x="1051" y="1006" on="0"/>
        <pt x="1113" y="893" on="0"/>
        <pt x="1113" y="846" on="1"/>
        <pt x="1113" y="815" on="0"/>
        <pt x="1082" y="767" on="0"/>
        <pt x="1041" y="767" on="1"/>
        <pt x="1023" y="767" on="0"/>
        <pt x="994" y="773" on="0"/>
      </contour>
    </TTGlyph>
    <TTGlyph name="currency" xMin="74" yMin="181" xMax="1058" yMax="1163">
      <contour>
        <pt x="143" y="670" on="1"/>
        <pt x="143" y="790" on="0"/>
        <pt x="253" y="981" on="0"/>
        <pt x="444" y="1093" on="0"/>
        <pt x="565" y="1093" on="1"/>
        <pt x="688" y="1093" on="0"/>
        <pt x="880" y="981" on="0"/>
        <pt x="990" y="790" on="0"/>
        <pt x="990" y="670" on="1"/>
        <pt x="990" y="551" on="0"/>
        <pt x="880" y="360" on="0"/>
        <pt x="688" y="249" on="0"/>
        <pt x="565" y="249" on="1"/>
        <pt x="444" y="249" on="0"/>
        <pt x="253" y="360" on="0"/>
        <pt x="143" y="551" on="0"/>
      </contour>
      <contour>
        <pt x="298" y="670" on="1"/>
        <pt x="298" y="588" on="0"/>
        <pt x="363" y="449" on="0"/>
        <pt x="484" y="365" on="0"/>
        <pt x="565" y="365" on="1"/>
        <pt x="648" y="365" on="0"/>
        <pt x="769" y="449" on="0"/>
        <pt x="835" y="588" on="0"/>
        <pt x="835" y="670" on="1"/>
        <pt x="835" y="752" on="0"/>
        <pt x="769" y="891" on="0"/>
        <pt x="648" y="977" on="0"/>
        <pt x="565" y="977" on="1"/>
        <pt x="484" y="977" on="0"/>
        <pt x="363" y="891" on="0"/>
        <pt x="298" y="752" on="0"/>
      </contour>
      <contour>
        <pt x="74" y="1073" on="1"/>
        <pt x="88" y="1098" on="0"/>
        <pt x="136" y="1145" on="0"/>
        <pt x="162" y="1161" on="1"/>
        <pt x="363" y="973" on="1"/>
        <pt x="352" y="957" on="0"/>
        <pt x="317" y="919" on="0"/>
        <pt x="279" y="884" on="0"/>
        <pt x="262" y="872" on="1"/>
      </contour>
      <contour>
        <pt x="162" y="181" on="1"/>
        <pt x="137" y="195" on="0"/>
        <pt x="90" y="241" on="0"/>
        <pt x="74" y="269" on="1"/>
        <pt x="270" y="477" on="1"/>
        <pt x="286" y="465" on="0"/>
        <pt x="323" y="430" on="0"/>
        <pt x="359" y="392" on="0"/>
        <pt x="371" y="374" on="1"/>
      </contour>
      <contour>
        <pt x="1058" y="269" on="1"/>
        <pt x="1028" y="214" on="0"/>
        <pt x="970" y="181" on="1"/>
        <pt x="769" y="369" on="1"/>
        <pt x="786" y="392" on="0"/>
        <pt x="845" y="451" on="0"/>
        <pt x="870" y="469" on="1"/>
      </contour>
      <contour>
        <pt x="969" y="1163" on="1"/>
        <pt x="994" y="1149" on="0"/>
        <pt x="1042" y="1101" on="0"/>
        <pt x="1057" y="1075" on="1"/>
        <pt x="863" y="866" on="1"/>
        <pt x="838" y="885" on="0"/>
        <pt x="780" y="942" on="0"/>
        <pt x="760" y="967" on="1"/>
      </contour>
    </TTGlyph>
    <TTGlyph name="d" xMin="182" yMin="-6" xMax="1046" yMax="1091">
      <contour>
        <pt x="1046" y="541" on="1"/>
        <pt x="1046" y="275" on="0"/>
        <pt x="814" y="-6" on="0"/>
        <pt x="547" y="-6" on="1"/>
        <pt x="476" y="-6" on="0"/>
        <pt x="373" y="-5" on="0"/>
        <pt x="267" y="-2" on="0"/>
        <pt x="192" y="0" on="1"/>
        <pt x="182" y="10" on="1"/>
        <pt x="182" y="1075" on="1"/>
        <pt x="192" y="1085" on="1"/>
        <pt x="268" y="1087" on="0"/>
        <pt x="374" y="1090" on="0"/>
        <pt x="476" y="1091" on="0"/>
        <pt x="547" y="1091" on="1"/>
        <pt x="814" y="1091" on="0"/>
        <pt x="1046" y="803" on="0"/>
      </contour>
      <contour>
        <pt x="887" y="541" on="1"/>
        <pt x="887" y="615" on="0"/>
        <pt x="862" y="765" on="0"/>
        <pt x="791" y="891" on="0"/>
        <pt x="656" y="966" on="0"/>
        <pt x="545" y="966" on="1"/>
        <pt x="485" y="966" on="0"/>
        <pt x="386" y="968" on="0"/>
        <pt x="333" y="968" on="1"/>
        <pt x="333" y="115" on="1"/>
        <pt x="387" y="115" on="0"/>
        <pt x="485" y="117" on="0"/>
        <pt x="545" y="117" on="1"/>
        <pt x="656" y="117" on="0"/>
        <pt x="791" y="192" on="0"/>
        <pt x="862" y="317" on="0"/>
        <pt x="887" y="467" on="0"/>
      </contour>
    </TTGlyph>
    <TTGlyph name="dagger" xMin="39" yMin="-228" xMax="672" yMax="1375">
      <contour>
        <pt x="274" y="548" on="1"/>
        <pt x="273" y="601" on="0"/>
        <pt x="280" y="734" on="0"/>
        <pt x="291" y="864" on="0"/>
        <pt x="294" y="914" on="1"/>
        <pt x="293" y="965" on="0"/>
        <pt x="280" y="1101" on="0"/>
        <pt x="270" y="1237" on="0"/>
        <pt x="274" y="1287" on="1"/>
        <pt x="279" y="1366" on="1"/>
        <pt x="297" y="1371" on="0"/>
        <pt x="335" y="1375" on="0"/>
        <pt x="353" y="1375" on="1"/>
        <pt x="374" y="1375" on="0"/>
        <pt x="411" y="1371" on="0"/>
        <pt x="430" y="1366" on="1"/>
        <pt x="436" y="1285" on="1"/>
        <pt x="439" y="1237" on="0"/>
        <pt x="429" y="1101" on="0"/>
        <pt x="417" y="965" on="0"/>
        <pt x="416" y="914" on="1"/>
        <pt x="420" y="863" on="0"/>
        <pt x="430" y="730" on="0"/>
        <pt x="437" y="597" on="0"/>
        <pt x="436" y="546" on="1"/>
        <pt x="414" y="-221" on="1"/>
        <pt x="404" y="-224" on="0"/>
        <pt x="370" y="-228" on="0"/>
        <pt x="355" y="-228" on="1"/>
        <pt x="339" y="-228" on="0"/>
        <pt x="307" y="-224" on="0"/>
        <pt x="295" y="-221" on="1"/>
      </contour>
      <contour>
        <pt x="604" y="841" on="1"/>
        <pt x="581" y="840" on="0"/>
        <pt x="483" y="849" on="0"/>
        <pt x="382" y="858" on="0"/>
        <pt x="357" y="858" on="1"/>
        <pt x="333" y="858" on="0"/>
        <pt x="235" y="849" on="0"/>
        <pt x="135" y="840" on="0"/>
        <pt x="108" y="841" on="1"/>
        <pt x="46" y="843" on="1"/>
        <pt x="42" y="857" on="0"/>
        <pt x="39" y="891" on="0"/>
        <pt x="39" y="910" on="1"/>
        <pt x="39" y="931" on="0"/>
        <pt x="42" y="965" on="0"/>
        <pt x="46" y="981" on="1"/>
        <pt x="108" y="983" on="1"/>
        <pt x="132" y="984" on="0"/>
        <pt x="231" y="975" on="0"/>
        <pt x="331" y="966" on="0"/>
        <pt x="357" y="966" on="1"/>
        <pt x="381" y="966" on="0"/>
        <pt x="480" y="975" on="0"/>
        <pt x="579" y="984" on="0"/>
        <pt x="604" y="983" on="1"/>
        <pt x="666" y="981" on="1"/>
        <pt x="669" y="966" on="0"/>
        <pt x="672" y="931" on="0"/>
        <pt x="672" y="910" on="1"/>
        <pt x="672" y="891" on="0"/>
        <pt x="669" y="857" on="0"/>
        <pt x="666" y="843" on="1"/>
      </contour>
    </TTGlyph>
    <TTGlyph name="daggerdbl" xMin="41" yMin="-228" xMax="674" yMax="1375">
      <contour>
        <pt x="276" y="559" on="1"/>
        <pt x="275" y="611" on="0"/>
        <pt x="282" y="744" on="0"/>
        <pt x="293" y="874" on="0"/>
        <pt x="296" y="924" on="1"/>
        <pt x="295" y="975" on="0"/>
        <pt x="282" y="1106" on="0"/>
        <pt x="272" y="1237" on="0"/>
        <pt x="276" y="1287" on="1"/>
        <pt x="281" y="1366" on="1"/>
        <pt x="299" y="1371" on="0"/>
        <pt x="337" y="1375" on="0"/>
        <pt x="355" y="1375" on="1"/>
        <pt x="376" y="1375" on="0"/>
        <pt x="413" y="1371" on="0"/>
        <pt x="432" y="1366" on="1"/>
        <pt x="438" y="1285" on="1"/>
        <pt x="441" y="1237" on="0"/>
        <pt x="431" y="1106" on="0"/>
        <pt x="419" y="975" on="0"/>
        <pt x="418" y="924" on="1"/>
        <pt x="422" y="873" on="0"/>
        <pt x="432" y="740" on="0"/>
        <pt x="439" y="607" on="0"/>
        <pt x="438" y="557" on="1"/>
        <pt x="416" y="-221" on="1"/>
        <pt x="406" y="-224" on="0"/>
        <pt x="372" y="-228" on="0"/>
        <pt x="357" y="-228" on="1"/>
        <pt x="341" y="-228" on="0"/>
        <pt x="309" y="-224" on="0"/>
        <pt x="297" y="-221" on="1"/>
      </contour>
      <contour>
        <pt x="606" y="851" on="1"/>
        <pt x="574" y="850" on="0"/>
        <pt x="477" y="860" on="0"/>
        <pt x="384" y="870" on="0"/>
        <pt x="359" y="870" on="1"/>
        <pt x="335" y="870" on="0"/>
        <pt x="244" y="860" on="0"/>
        <pt x="146" y="850" on="0"/>
        <pt x="110" y="851" on="1"/>
        <pt x="48" y="853" on="1"/>
        <pt x="44" y="867" on="0"/>
        <pt x="41" y="901" on="0"/>
        <pt x="41" y="920" on="1"/>
        <pt x="41" y="941" on="0"/>
        <pt x="44" y="975" on="0"/>
        <pt x="48" y="991" on="1"/>
        <pt x="110" y="993" on="1"/>
        <pt x="143" y="994" on="0"/>
        <pt x="241" y="984" on="0"/>
        <pt x="333" y="974" on="0"/>
        <pt x="359" y="974" on="1"/>
        <pt x="383" y="974" on="0"/>
        <pt x="474" y="984" on="0"/>
        <pt x="572" y="994" on="0"/>
        <pt x="606" y="993" on="1"/>
        <pt x="668" y="991" on="1"/>
        <pt x="671" y="976" on="0"/>
        <pt x="674" y="941" on="0"/>
        <pt x="674" y="920" on="1"/>
        <pt x="674" y="901" on="0"/>
        <pt x="671" y="867" on="0"/>
        <pt x="668" y="853" on="1"/>
      </contour>
      <contour>
        <pt x="606" y="299" on="1"/>
        <pt x="574" y="298" on="0"/>
        <pt x="477" y="309" on="0"/>
        <pt x="384" y="320" on="0"/>
        <pt x="359" y="320" on="1"/>
        <pt x="335" y="320" on="0"/>
        <pt x="244" y="309" on="0"/>
        <pt x="146" y="298" on="0"/>
        <pt x="110" y="299" on="1"/>
        <pt x="48" y="301" on="1"/>
        <pt x="44" y="315" on="0"/>
        <pt x="41" y="349" on="0"/>
        <pt x="41" y="368" on="1"/>
        <pt x="41" y="389" on="0"/>
        <pt x="44" y="423" on="0"/>
        <pt x="48" y="439" on="1"/>
        <pt x="110" y="441" on="1"/>
        <pt x="143" y="442" on="0"/>
        <pt x="241" y="431" on="0"/>
        <pt x="333" y="420" on="0"/>
        <pt x="359" y="420" on="1"/>
        <pt x="383" y="420" on="0"/>
        <pt x="474" y="431" on="0"/>
        <pt x="572" y="442" on="0"/>
        <pt x="606" y="441" on="1"/>
        <pt x="668" y="439" on="1"/>
        <pt x="671" y="424" on="0"/>
        <pt x="674" y="389" on="0"/>
        <pt x="674" y="368" on="1"/>
        <pt x="674" y="349" on="0"/>
        <pt x="671" y="315" on="0"/>
        <pt x="668" y="301" on="1"/>
      </contour>
    </TTGlyph>
    <TTGlyph name="dcaron" xMin="182" yMin="-6" xMax="1046" yMax="1530">
      <component glyphName="d" x="0" y="0" flags="0x204"/>
      <component glyphName="caron" x="143" y="104" flags="0x4"/>
    </TTGlyph>
    <TTGlyph name="dcroat" xMin="60" yMin="-6" xMax="1056" yMax="1091">
      <component glyphName="eth" x="0" y="0" flags="0x204"/>
    </TTGlyph>
    <TTGlyph name="degree" xMin="39" yMin="784" xMax="589" yMax="1341">
      <contour>
        <pt x="39" y="1062" on="1"/>
        <pt x="39" y="1141" on="0"/>
        <pt x="112" y="1267" on="0"/>
        <pt x="236" y="1341" on="0"/>
        <pt x="314" y="1341" on="1"/>
        <pt x="392" y="1341" on="0"/>
        <pt x="516" y="1267" on="0"/>
        <pt x="589" y="1141" on="0"/>
        <pt x="589" y="1062" on="1"/>
        <pt x="589" y="983" on="0"/>
        <pt x="516" y="857" on="0"/>
        <pt x="392" y="784" on="0"/>
        <pt x="314" y="784" on="1"/>
        <pt x="236" y="784" on="0"/>
        <pt x="112" y="857" on="0"/>
        <pt x="39" y="983" on="0"/>
      </contour>
      <contour>
        <pt x="165" y="1062" on="1"/>
        <pt x="165" y="991" on="0"/>
        <pt x="245" y="896" on="0"/>
        <pt x="314" y="896" on="1"/>
        <pt x="382" y="896" on="0"/>
        <pt x="462" y="991" on="0"/>
        <pt x="462" y="1062" on="1"/>
        <pt x="462" y="1132" on="0"/>
        <pt x="382" y="1228" on="0"/>
        <pt x="314" y="1228" on="1"/>
        <pt x="245" y="1228" on="0"/>
        <pt x="165" y="1132" on="0"/>
      </contour>
    </TTGlyph>
    <TTGlyph name="dieresis" xMin="128" yMin="1125" xMax="669" yMax="1299">
      <contour>
        <pt x="482" y="1212" on="1"/>
        <pt x="482" y="1230" on="0"/>
        <pt x="490" y="1266" on="0"/>
        <pt x="497" y="1280" on="1"/>
        <pt x="509" y="1288" on="0"/>
        <pt x="557" y="1299" on="0"/>
        <pt x="575" y="1299" on="1"/>
        <pt x="624" y="1299" on="0"/>
        <pt x="654" y="1280" on="1"/>
        <pt x="661" y="1266" on="0"/>
        <pt x="669" y="1230" on="0"/>
        <pt x="669" y="1212" on="1"/>
        <pt x="669" y="1194" on="0"/>
        <pt x="661" y="1157" on="0"/>
        <pt x="654" y="1144" on="1"/>
        <pt x="643" y="1136" on="0"/>
        <pt x="596" y="1125" on="0"/>
        <pt x="575" y="1125" on="1"/>
        <pt x="557" y="1125" on="0"/>
        <pt x="508" y="1136" on="0"/>
        <pt x="497" y="1144" on="1"/>
        <pt x="490" y="1158" on="0"/>
        <pt x="482" y="1194" on="0"/>
      </contour>
      <contour>
        <pt x="128" y="1212" on="1"/>
        <pt x="128" y="1230" on="0"/>
        <pt x="135" y="1266" on="0"/>
        <pt x="142" y="1280" on="1"/>
        <pt x="154" y="1288" on="0"/>
        <pt x="202" y="1299" on="0"/>
        <pt x="221" y="1299" on="1"/>
        <pt x="269" y="1299" on="0"/>
        <pt x="300" y="1280" on="1"/>
        <pt x="306" y="1266" on="0"/>
        <pt x="314" y="1230" on="0"/>
        <pt x="314" y="1212" on="1"/>
        <pt x="314" y="1194" on="0"/>
        <pt x="306" y="1157" on="0"/>
        <pt x="300" y="1144" on="1"/>
        <pt x="288" y="1136" on="0"/>
        <pt x="241" y="1125" on="0"/>
        <pt x="221" y="1125" on="1"/>
        <pt x="202" y="1125" on="0"/>
        <pt x="153" y="1136" on="0"/>
        <pt x="142" y="1144" on="1"/>
        <pt x="135" y="1158" on="0"/>
        <pt x="128" y="1194" on="0"/>
      </contour>
    </TTGlyph>
    <TTGlyph name="divide" xMin="111" yMin="129" xMax="949" yMax="1030">
      <contour>
        <pt x="427" y="935" on="1"/>
        <pt x="427" y="980" on="0"/>
        <pt x="441" y="1009" on="1"/>
        <pt x="455" y="1018" on="0"/>
        <pt x="507" y="1030" on="0"/>
        <pt x="530" y="1030" on="1"/>
        <pt x="550" y="1030" on="0"/>
        <pt x="606" y="1018" on="0"/>
        <pt x="619" y="1009" on="1"/>
        <pt x="625" y="996" on="0"/>
        <pt x="633" y="954" on="0"/>
        <pt x="633" y="935" on="1"/>
        <pt x="633" y="917" on="0"/>
        <pt x="625" y="874" on="0"/>
        <pt x="619" y="861" on="1"/>
        <pt x="607" y="852" on="0"/>
        <pt x="550" y="841" on="0"/>
        <pt x="530" y="841" on="1"/>
        <pt x="507" y="841" on="0"/>
        <pt x="455" y="852" on="0"/>
        <pt x="441" y="861" on="1"/>
        <pt x="427" y="890" on="0"/>
      </contour>
      <contour>
        <pt x="427" y="223" on="1"/>
        <pt x="427" y="268" on="0"/>
        <pt x="441" y="297" on="1"/>
        <pt x="455" y="306" on="0"/>
        <pt x="507" y="317" on="0"/>
        <pt x="530" y="317" on="1"/>
        <pt x="550" y="317" on="0"/>
        <pt x="606" y="306" on="0"/>
        <pt x="619" y="297" on="1"/>
        <pt x="625" y="284" on="0"/>
        <pt x="633" y="241" on="0"/>
        <pt x="633" y="223" on="1"/>
        <pt x="633" y="205" on="0"/>
        <pt x="625" y="162" on="0"/>
        <pt x="619" y="149" on="1"/>
        <pt x="607" y="140" on="0"/>
        <pt x="550" y="129" on="0"/>
        <pt x="530" y="129" on="1"/>
        <pt x="507" y="129" on="0"/>
        <pt x="455" y="140" on="0"/>
        <pt x="441" y="149" on="1"/>
        <pt x="427" y="178" on="0"/>
      </contour>
      <contour>
        <pt x="117" y="514" on="1"/>
        <pt x="114" y="528" on="0"/>
        <pt x="111" y="561" on="0"/>
        <pt x="111" y="581" on="1"/>
        <pt x="111" y="602" on="0"/>
        <pt x="114" y="636" on="0"/>
        <pt x="117" y="652" on="1"/>
        <pt x="943" y="652" on="1"/>
        <pt x="946" y="636" on="0"/>
        <pt x="949" y="602" on="0"/>
        <pt x="949" y="581" on="1"/>
        <pt x="949" y="561" on="0"/>
        <pt x="946" y="528" on="0"/>
        <pt x="943" y="514" on="1"/>
      </contour>
    </TTGlyph>
    <TTGlyph name="dollar" xMin="78" yMin="-80" xMax="894" yMax="1381">
      <contour>
        <pt x="403" y="146" on="1"/>
        <pt x="414" y="149" on="0"/>
        <pt x="456" y="152" on="0"/>
        <pt x="470" y="152" on="1"/>
        <pt x="487" y="152" on="0"/>
        <pt x="524" y="149" on="0"/>
        <pt x="537" y="146" on="1"/>
        <pt x="537" y="-76" on="1"/>
        <pt x="524" y="-78" on="0"/>
        <pt x="487" y="-80" on="0"/>
        <pt x="470" y="-80" on="1"/>
        <pt x="456" y="-80" on="0"/>
        <pt x="414" y="-78" on="0"/>
        <pt x="403" y="-76" on="1"/>
      </contour>
      <contour>
        <pt x="411" y="1374" on="1"/>
        <pt x="422" y="1377" on="0"/>
        <pt x="464" y="1381" on="0"/>
        <pt x="478" y="1381" on="1"/>
        <pt x="495" y="1381" on="0"/>
        <pt x="532" y="1377" on="0"/>
        <pt x="545" y="1374" on="1"/>
        <pt x="545" y="1149" on="1"/>
        <pt x="532" y="1148" on="0"/>
        <pt x="495" y="1145" on="0"/>
        <pt x="478" y="1145" on="1"/>
        <pt x="464" y="1145" on="0"/>
        <pt x="422" y="1148" on="0"/>
        <pt x="411" y="1149" on="1"/>
      </contour>
      <contour>
        <pt x="78" y="201" on="1"/>
        <pt x="79" y="223" on="0"/>
        <pt x="98" y="270" on="0"/>
        <pt x="127" y="310" on="0"/>
        <pt x="143" y="322" on="1"/>
        <pt x="211" y="281" on="0"/>
        <pt x="394" y="208" on="0"/>
        <pt x="508" y="208" on="1"/>
        <pt x="602" y="208" on="0"/>
        <pt x="740" y="289" on="0"/>
        <pt x="740" y="369" on="1"/>
        <pt x="740" y="436" on="0"/>
        <pt x="640" y="536" on="0"/>
        <pt x="563" y="564" on="1"/>
        <pt x="358" y="637" on="1"/>
        <pt x="241" y="681" on="0"/>
        <pt x="124" y="813" on="0"/>
        <pt x="124" y="912" on="1"/>
        <pt x="124" y="995" on="0"/>
        <pt x="212" y="1132" on="0"/>
        <pt x="378" y="1213" on="0"/>
        <pt x="494" y="1213" on="1"/>
        <pt x="598" y="1213" on="0"/>
        <pt x="787" y="1160" on="0"/>
        <pt x="855" y="1127" on="1"/>
        <pt x="855" y="1093" on="0"/>
        <pt x="823" y="1026" on="0"/>
        <pt x="798" y="1006" on="1"/>
        <pt x="727" y="1040" on="0"/>
        <pt x="563" y="1082" on="0"/>
        <pt x="490" y="1082" on="1"/>
        <pt x="393" y="1082" on="0"/>
        <pt x="274" y="998" on="0"/>
        <pt x="274" y="923" on="1"/>
        <pt x="274" y="863" on="0"/>
        <pt x="356" y="799" on="0"/>
        <pt x="436" y="771" on="1"/>
        <pt x="635" y="699" on="1"/>
        <pt x="743" y="661" on="0"/>
        <pt x="894" y="505" on="0"/>
        <pt x="894" y="395" on="1"/>
        <pt x="894" y="302" on="0"/>
        <pt x="806" y="160" on="0"/>
        <pt x="633" y="79" on="0"/>
        <pt x="508" y="79" on="1"/>
        <pt x="415" y="79" on="0"/>
        <pt x="252" y="116" on="0"/>
        <pt x="122" y="172" on="0"/>
      </contour>
    </TTGlyph>
    <TTGlyph name="dotaccent" xMin="294" yMin="1155" xMax="502" yMax="1345">
      <contour>
        <pt x="294" y="1250" on="1"/>
        <pt x="294" y="1295" on="0"/>
        <pt x="309" y="1324" on="1"/>
        <pt x="323" y="1334" on="0"/>
        <pt x="375" y="1345" on="0"/>
        <pt x="398" y="1345" on="1"/>
        <pt x="419" y="1345" on="0"/>
        <pt x="475" y="1334" on="0"/>
        <pt x="487" y="1324" on="1"/>
        <pt x="494" y="1312" on="0"/>
        <pt x="502" y="1268" on="0"/>
        <pt x="502" y="1250" on="1"/>
        <pt x="502" y="1205" on="0"/>
        <pt x="487" y="1176" on="1"/>
        <pt x="476" y="1166" on="0"/>
        <pt x="419" y="1155" on="0"/>
        <pt x="398" y="1155" on="1"/>
        <pt x="375" y="1155" on="0"/>
        <pt x="323" y="1166" on="0"/>
        <pt x="309" y="1176" on="1"/>
        <pt x="294" y="1205" on="0"/>
      </contour>
    </TTGlyph>
    <TTGlyph name="dotlessi" xMin="85" yMin="-6" xMax="340" yMax="987">
      <contour>
        <pt x="340" y="0" on="1"/>
        <pt x="325" y="-3" on="0"/>
        <pt x="288" y="-6" on="0"/>
        <pt x="267" y="-6" on="1"/>
        <pt x="245" y="-6" on="0"/>
        <pt x="207" y="-3" on="0"/>
        <pt x="193" y="0" on="1"/>
        <pt x="193" y="772" on="1"/>
        <pt x="193" y="827" on="0"/>
        <pt x="157" y="869" on="0"/>
        <pt x="110" y="869" on="1"/>
        <pt x="91" y="869" on="1"/>
        <pt x="85" y="897" on="0"/>
        <pt x="85" y="924" on="1"/>
        <pt x="85" y="938" on="0"/>
        <pt x="88" y="963" on="0"/>
        <pt x="91" y="979" on="1"/>
        <pt x="125" y="984" on="0"/>
        <pt x="176" y="987" on="0"/>
        <pt x="192" y="987" on="1"/>
        <pt x="209" y="987" on="1"/>
        <pt x="271" y="987" on="0"/>
        <pt x="340" y="911" on="0"/>
        <pt x="340" y="844" on="1"/>
      </contour>
    </TTGlyph>
    <TTGlyph name="e" xMin="182" yMin="0" xMax="910" yMax="1085">
      <contour>
        <pt x="182" y="1075" on="1"/>
        <pt x="192" y="1085" on="1"/>
        <pt x="329" y="1085" on="1"/>
        <pt x="329" y="962" on="1"/>
        <pt x="329" y="943" on="0"/>
        <pt x="331" y="889" on="0"/>
        <pt x="331" y="857" on="1"/>
        <pt x="331" y="198" on="1"/>
        <pt x="331" y="179" on="0"/>
        <pt x="329" y="136" on="0"/>
        <pt x="329" y="125" on="1"/>
        <pt x="329" y="0" on="1"/>
        <pt x="269" y="0" on="1"/>
        <pt x="229" y="0" on="0"/>
        <pt x="182" y="50" on="0"/>
        <pt x="182" y="95" on="1"/>
      </contour>
      <contour>
        <pt x="785" y="616" on="1"/>
        <pt x="790" y="600" on="0"/>
        <pt x="792" y="564" on="0"/>
        <pt x="792" y="552" on="1"/>
        <pt x="792" y="539" on="0"/>
        <pt x="790" y="504" on="0"/>
        <pt x="785" y="489" on="1"/>
        <pt x="438" y="489" on="1"/>
        <pt x="418" y="489" on="0"/>
        <pt x="363" y="489" on="0"/>
        <pt x="304" y="490" on="0"/>
        <pt x="278" y="491" on="1"/>
        <pt x="278" y="614" on="1"/>
        <pt x="304" y="614" on="0"/>
        <pt x="363" y="615" on="0"/>
        <pt x="418" y="616" on="0"/>
        <pt x="438" y="616" on="1"/>
      </contour>
      <contour>
        <pt x="880" y="1085" on="1"/>
        <pt x="883" y="1069" on="0"/>
        <pt x="884" y="1038" on="0"/>
        <pt x="884" y="1025" on="1"/>
        <pt x="884" y="1012" on="0"/>
        <pt x="880" y="975" on="0"/>
        <pt x="873" y="958" on="1"/>
        <pt x="438" y="958" on="1"/>
        <pt x="418" y="958" on="0"/>
        <pt x="363" y="958" on="0"/>
        <pt x="304" y="959" on="0"/>
        <pt x="278" y="960" on="1"/>
        <pt x="278" y="1085" on="1"/>
      </contour>
      <contour>
        <pt x="910" y="129" on="1"/>
        <pt x="910" y="55" on="0"/>
        <pt x="864" y="0" on="0"/>
        <pt x="811" y="0" on="1"/>
        <pt x="280" y="0" on="1"/>
        <pt x="280" y="123" on="1"/>
        <pt x="302" y="125" on="0"/>
        <pt x="348" y="128" on="0"/>
        <pt x="403" y="129" on="0"/>
        <pt x="441" y="129" on="1"/>
      </contour>
    </TTGlyph>
    <TTGlyph name="eacute" xMin="182" yMin="0" xMax="910" yMax="1548">
      <component glyphName="e" x="0" y="0" flags="0x204"/>
      <component glyphName="acute" x="143" y="104" flags="0x4"/>
    </TTGlyph>
    <TTGlyph name="ebreve" xMin="182" yMin="0" xMax="910" yMax="1476">
      <component glyphName="e" x="0" y="0" flags="0x204"/>
      <component glyphName="breve" x="143" y="104" flags="0x4"/>
    </TTGlyph>
    <TTGlyph name="ecaron" xMin="182" yMin="0" xMax="910" yMax="1530">
      <component glyphName="e" x="0" y="0" flags="0x204"/>
      <component glyphName="caron" x="143" y="104" flags="0x4"/>
    </TTGlyph>
    <TTGlyph name="ecircumflex" xMin="182" yMin="0" xMax="910" yMax="1522">
      <component glyphName="e" x="0" y="0" flags="0x204"/>
      <component glyphName="circumflex" x="143" y="104" flags="0x4"/>
    </TTGlyph>
    <TTGlyph name="edieresis" xMin="182" yMin="0" xMax="910" yMax="1403">
      <component glyphName="e" x="0" y="0" flags="0x204"/>
      <component glyphName="dieresis" x="143" y="104" flags="0x4"/>
    </TTGlyph>
    <TTGlyph name="edotaccent" xMin="182" yMin="0" xMax="910" yMax="1449">
      <component glyphName="e" x="0" y="0" flags="0x204"/>
      <component glyphName="dotaccent" x="143" y="104" flags="0x4"/>
    </TTGlyph>
    <TTGlyph name="egrave" xMin="182" yMin="0" xMax="910" yMax="1548">
      <component glyphName="e" x="0" y="0" flags="0x204"/>
      <component glyphName="grave" x="150" y="104" flags="0x4"/>
    </TTGlyph>
    <TTGlyph name="eight" xMin="109" yMin="-24" xMax="949" yMax="1320">
      <contour>
        <pt x="109" y="324" on="1"/>
        <pt x="109" y="419" on="0"/>
        <pt x="200" y="576" on="0"/>
        <pt x="345" y="684" on="0"/>
        <pt x="425" y="707" on="1"/>
        <pt x="559" y="660" on="1"/>
        <pt x="419" y="629" on="0"/>
        <pt x="264" y="444" on="0"/>
        <pt x="264" y="337" on="1"/>
        <pt x="264" y="214" on="0"/>
        <pt x="420" y="91" on="0"/>
        <pt x="526" y="91" on="1"/>
        <pt x="596" y="91" on="0"/>
        <pt x="718" y="150" on="0"/>
        <pt x="792" y="262" on="0"/>
        <pt x="792" y="342" on="1"/>
        <pt x="792" y="425" on="0"/>
        <pt x="705" y="538" on="0"/>
        <pt x="571" y="607" on="0"/>
        <pt x="501" y="626" on="1"/>
        <pt x="476" y="632" on="1"/>
        <pt x="387" y="655" on="0"/>
        <pt x="236" y="748" on="0"/>
        <pt x="145" y="889" on="0"/>
        <pt x="145" y="983" on="1"/>
        <pt x="145" y="1083" on="0"/>
        <pt x="248" y="1235" on="0"/>
        <pt x="422" y="1320" on="0"/>
        <pt x="528" y="1320" on="1"/>
        <pt x="640" y="1320" on="0"/>
        <pt x="814" y="1238" on="0"/>
        <pt x="913" y="1091" on="0"/>
        <pt x="913" y="995" on="1"/>
        <pt x="913" y="912" on="0"/>
        <pt x="837" y="778" on="0"/>
        <pt x="711" y="684" on="0"/>
        <pt x="637" y="662" on="1"/>
        <pt x="509" y="708" on="1"/>
        <pt x="623" y="736" on="0"/>
        <pt x="759" y="891" on="0"/>
        <pt x="759" y="987" on="1"/>
        <pt x="759" y="1091" on="0"/>
        <pt x="622" y="1204" on="0"/>
        <pt x="528" y="1204" on="1"/>
        <pt x="434" y="1204" on="0"/>
        <pt x="299" y="1087" on="0"/>
        <pt x="299" y="987" on="1"/>
        <pt x="299" y="889" on="0"/>
        <pt x="445" y="773" on="0"/>
        <pt x="565" y="744" on="1"/>
        <pt x="591" y="737" on="1"/>
        <pt x="690" y="712" on="0"/>
        <pt x="853" y="606" on="0"/>
        <pt x="949" y="446" on="0"/>
        <pt x="949" y="340" on="1"/>
        <pt x="949" y="226" on="0"/>
        <pt x="832" y="63" on="0"/>
        <pt x="637" y="-24" on="0"/>
        <pt x="522" y="-24" on="1"/>
        <pt x="339" y="-24" on="0"/>
        <pt x="109" y="156" on="0"/>
      </contour>
    </TTGlyph>
    <TTGlyph name="ellipsis" xMin="131" yMin="-14" xMax="1378" yMax="203">
      <component glyphName="period" x="0" y="0" flags="0x4"/>
      <component glyphName="period" x="504" y="0" flags="0x4"/>
      <component glyphName="period" x="1008" y="0" flags="0x4"/>
    </TTGlyph>
    <TTGlyph name="emacron" xMin="182" yMin="0" xMax="910" yMax="1393">
      <component glyphName="e" x="0" y="0" flags="0x204"/>
      <component glyphName="macron" x="143" y="104" flags="0x4"/>
    </TTGlyph>
    <TTGlyph name="emdash" xMin="159" yMin="463" xMax="1420" yMax="593">
      <contour>
        <pt x="165" y="463" on="1"/>
        <pt x="162" y="478" on="0"/>
        <pt x="159" y="507" on="0"/>
        <pt x="159" y="526" on="1"/>
        <pt x="159" y="547" on="0"/>
        <pt x="162" y="577" on="0"/>
        <pt x="165" y="593" on="1"/>
        <pt x="1414" y="593" on="1"/>
        <pt x="1417" y="577" on="0"/>
        <pt x="1420" y="547" on="0"/>
        <pt x="1420" y="526" on="1"/>
        <pt x="1420" y="507" on="0"/>
        <pt x="1417" y="478" on="0"/>
        <pt x="1414" y="463" on="1"/>
      </contour>
    </TTGlyph>
    <TTGlyph name="endash" xMin="127" yMin="463" xMax="907" yMax="593">
      <contour>
        <pt x="134" y="463" on="1"/>
        <pt x="130" y="478" on="0"/>
        <pt x="127" y="507" on="0"/>
        <pt x="127" y="526" on="1"/>
        <pt x="127" y="547" on="0"/>
        <pt x="130" y="577" on="0"/>
        <pt x="134" y="593" on="1"/>
        <pt x="901" y="593" on="1"/>
        <pt x="904" y="577" on="0"/>
        <pt x="907" y="547" on="0"/>
        <pt x="907" y="526" on="1"/>
        <pt x="907" y="507" on="0"/>
        <pt x="904" y="478" on="0"/>
        <pt x="901" y="463" on="1"/>
      </contour>
    </TTGlyph>
    <TTGlyph name="eng" xMin="182" yMin="-383" xMax="1040" yMax="1091">
      <contour>
        <pt x="601" y="-233" on="1"/>
        <pt x="635" y="-246" on="0"/>
        <pt x="701" y="-263" on="0"/>
        <pt x="732" y="-263" on="1"/>
        <pt x="771" y="-263" on="0"/>
        <pt x="849" y="-227" on="0"/>
        <pt x="902" y="-124" on="0"/>
        <pt x="902" y="-21" on="1"/>
        <pt x="902" y="68" on="1"/>
        <pt x="916" y="72" on="0"/>
        <pt x="957" y="75" on="0"/>
        <pt x="976" y="75" on="1"/>
        <pt x="991" y="75" on="0"/>
        <pt x="1028" y="72" on="0"/>
        <pt x="1040" y="68" on="1"/>
        <pt x="1040" y="4" on="1"/>
        <pt x="1040" y="-121" on="0"/>
        <pt x="974" y="-294" on="0"/>
        <pt x="842" y="-383" on="0"/>
        <pt x="741" y="-383" on="1"/>
        <pt x="699" y="-383" on="0"/>
        <pt x="598" y="-362" on="0"/>
        <pt x="557" y="-343" on="1"/>
        <pt x="563" y="-312" on="0"/>
        <pt x="584" y="-255" on="0"/>
      </contour>
      <contour>
        <pt x="182" y="1085" on="1"/>
        <pt x="201" y="1088" on="0"/>
        <pt x="258" y="1091" on="0"/>
        <pt x="271" y="1091" on="1"/>
        <pt x="287" y="1091" on="0"/>
        <pt x="341" y="1088" on="0"/>
        <pt x="358" y="1085" on="1"/>
        <pt x="334" y="896" on="1"/>
        <pt x="318" y="894" on="1"/>
        <pt x="321" y="843" on="0"/>
        <pt x="325" y="710" on="0"/>
        <pt x="328" y="585" on="0"/>
        <pt x="328" y="546" on="1"/>
        <pt x="328" y="0" on="1"/>
        <pt x="308" y="-3" on="0"/>
        <pt x="270" y="-6" on="0"/>
        <pt x="254" y="-6" on="1"/>
        <pt x="241" y="-6" on="0"/>
        <pt x="201" y="-3" on="0"/>
        <pt x="182" y="0" on="1"/>
      </contour>
      <contour>
        <pt x="447" y="684" on="1"/>
        <pt x="431" y="710" on="0"/>
        <pt x="399" y="764" on="0"/>
        <pt x="369" y="817" on="0"/>
        <pt x="340" y="870" on="0"/>
        <pt x="326" y="896" on="1"/>
        <pt x="257" y="976" on="1"/>
        <pt x="358" y="1085" on="1"/>
        <pt x="778" y="398" on="1"/>
        <pt x="794" y="371" on="0"/>
        <pt x="825" y="316" on="0"/>
        <pt x="856" y="260" on="0"/>
        <pt x="886" y="206" on="0"/>
        <pt x="900" y="181" on="1"/>
        <pt x="963" y="113" on="1"/>
        <pt x="863" y="0" on="1"/>
      </contour>
      <contour>
        <pt x="1040" y="1081" on="1"/>
        <pt x="1040" y="0" on="1"/>
        <pt x="1020" y="-3" on="0"/>
        <pt x="965" y="-6" on="0"/>
        <pt x="951" y="-6" on="1"/>
        <pt x="941" y="-6" on="0"/>
        <pt x="908" y="-5" on="0"/>
        <pt x="875" y="-2" on="0"/>
        <pt x="863" y="0" on="1"/>
        <pt x="894" y="181" on="1"/>
        <pt x="910" y="183" on="1"/>
        <pt x="906" y="230" on="0"/>
        <pt x="898" y="365" on="0"/>
        <pt x="893" y="496" on="0"/>
        <pt x="893" y="536" on="1"/>
        <pt x="893" y="997" on="1"/>
        <pt x="893" y="1047" on="0"/>
        <pt x="924" y="1091" on="0"/>
        <pt x="973" y="1091" on="1"/>
        <pt x="1030" y="1091" on="1"/>
      </contour>
    </TTGlyph>
    <TTGlyph name="eogonek" xMin="182" yMin="-434" xMax="919" yMax="1085">
      <contour>
        <pt x="182" y="1075" on="1"/>
        <pt x="192" y="1085" on="1"/>
        <pt x="329" y="1085" on="1"/>
        <pt x="329" y="962" on="1"/>
        <pt x="329" y="943" on="0"/>
        <pt x="331" y="889" on="0"/>
        <pt x="331" y="857" on="1"/>
        <pt x="331" y="198" on="1"/>
        <pt x="331" y="179" on="0"/>
        <pt x="329" y="136" on="0"/>
        <pt x="329" y="125" on="1"/>
        <pt x="329" y="0" on="1"/>
        <pt x="269" y="0" on="1"/>
        <pt x="229" y="0" on="0"/>
        <pt x="182" y="50" on="0"/>
        <pt x="182" y="95" on="1"/>
      </contour>
      <contour>
        <pt x="785" y="616" on="1"/>
        <pt x="790" y="600" on="0"/>
        <pt x="792" y="564" on="0"/>
        <pt x="792" y="552" on="1"/>
        <pt x="792" y="539" on="0"/>
        <pt x="790" y="504" on="0"/>
        <pt x="785" y="489" on="1"/>
        <pt x="438" y="489" on="1"/>
        <pt x="418" y="489" on="0"/>
        <pt x="363" y="489" on="0"/>
        <pt x="304" y="490" on="0"/>
        <pt x="278" y="491" on="1"/>
        <pt x="278" y="614" on="1"/>
        <pt x="304" y="614" on="0"/>
        <pt x="363" y="615" on="0"/>
        <pt x="418" y="616" on="0"/>
        <pt x="438" y="616" on="1"/>
      </contour>
      <contour>
        <pt x="880" y="1085" on="1"/>
        <pt x="883" y="1069" on="0"/>
        <pt x="884" y="1038" on="0"/>
        <pt x="884" y="1025" on="1"/>
        <pt x="884" y="1012" on="0"/>
        <pt x="880" y="975" on="0"/>
        <pt x="873" y="958" on="1"/>
        <pt x="438" y="958" on="1"/>
        <pt x="418" y="958" on="0"/>
        <pt x="363" y="958" on="0"/>
        <pt x="304" y="959" on="0"/>
        <pt x="278" y="960" on="1"/>
        <pt x="278" y="1085" on="1"/>
      </contour>
      <contour>
        <pt x="910" y="129" on="1"/>
        <pt x="910" y="70" on="0"/>
        <pt x="883" y="18" on="0"/>
        <pt x="853" y="6" on="1"/>
        <pt x="834" y="0" on="0"/>
        <pt x="811" y="0" on="1"/>
        <pt x="280" y="0" on="1"/>
        <pt x="280" y="123" on="1"/>
        <pt x="302" y="125" on="0"/>
        <pt x="348" y="128" on="0"/>
        <pt x="403" y="129" on="0"/>
        <pt x="441" y="129" on="1"/>
      </contour>
      <contour>
        <pt x="881" y="-290" on="1"/>
        <pt x="897" y="-302" on="0"/>
        <pt x="919" y="-343" on="0"/>
        <pt x="919" y="-369" on="1"/>
        <pt x="885" y="-396" on="0"/>
        <pt x="777" y="-434" on="0"/>
        <pt x="721" y="-434" on="1"/>
        <pt x="634" y="-434" on="0"/>
        <pt x="518" y="-340" on="0"/>
        <pt x="518" y="-253" on="1"/>
        <pt x="518" y="-165" on="0"/>
        <pt x="642" y="-10" on="0"/>
        <pt x="734" y="35" on="1"/>
        <pt x="853" y="6" on="1"/>
        <pt x="762" y="-33" on="0"/>
        <pt x="650" y="-163" on="0"/>
        <pt x="650" y="-225" on="1"/>
        <pt x="650" y="-274" on="0"/>
        <pt x="709" y="-325" on="0"/>
        <pt x="755" y="-325" on="1"/>
        <pt x="790" y="-325" on="0"/>
        <pt x="856" y="-303" on="0"/>
      </contour>
    </TTGlyph>
    <TTGlyph name="equal" xMin="111" yMin="343" xMax="949" yMax="825">
      <contour>
        <pt x="117" y="343" on="1"/>
        <pt x="114" y="357" on="0"/>
        <pt x="111" y="390" on="0"/>
        <pt x="111" y="410" on="1"/>
        <pt x="111" y="431" on="0"/>
        <pt x="114" y="465" on="0"/>
        <pt x="117" y="481" on="1"/>
        <pt x="943" y="481" on="1"/>
        <pt x="946" y="465" on="0"/>
        <pt x="949" y="431" on="0"/>
        <pt x="949" y="410" on="1"/>
        <pt x="949" y="390" on="0"/>
        <pt x="946" y="357" on="0"/>
        <pt x="943" y="343" on="1"/>
      </contour>
      <contour>
        <pt x="117" y="687" on="1"/>
        <pt x="114" y="701" on="0"/>
        <pt x="111" y="735" on="0"/>
        <pt x="111" y="754" on="1"/>
        <pt x="111" y="775" on="0"/>
        <pt x="114" y="810" on="0"/>
        <pt x="117" y="825" on="1"/>
        <pt x="943" y="825" on="1"/>
        <pt x="946" y="810" on="0"/>
        <pt x="949" y="775" on="0"/>
        <pt x="949" y="754" on="1"/>
        <pt x="949" y="735" on="0"/>
        <pt x="946" y="701" on="0"/>
        <pt x="943" y="687" on="1"/>
      </contour>
    </TTGlyph>
    <TTGlyph name="estimated" xMin="124" yMin="-16" xMax="1212" yMax="964">
      <contour>
        <pt x="330" y="460" on="1"/>
        <pt x="324" y="460" on="0"/>
        <pt x="324" y="456" on="1"/>
        <pt x="324" y="188" on="1"/>
        <pt x="324" y="179" on="0"/>
        <pt x="332" y="164" on="0"/>
        <pt x="336" y="158" on="1"/>
        <pt x="399" y="91" on="0"/>
        <pt x="571" y="12" on="0"/>
        <pt x="670" y="12" on="1"/>
        <pt x="775" y="12" on="0"/>
        <pt x="955" y="101" on="0"/>
        <pt x="1018" y="176" on="1"/>
        <pt x="1100" y="176" on="1"/>
        <pt x="1027" y="89" on="0"/>
        <pt x="801" y="-16" on="0"/>
        <pt x="670" y="-16" on="1"/>
        <pt x="519" y="-16" on="0"/>
        <pt x="271" y="117" on="0"/>
        <pt x="124" y="339" on="0"/>
        <pt x="124" y="474" on="1"/>
        <pt x="124" y="610" on="0"/>
        <pt x="271" y="832" on="0"/>
        <pt x="519" y="964" on="0"/>
        <pt x="670" y="964" on="1"/>
        <pt x="820" y="964" on="0"/>
        <pt x="1066" y="832" on="0"/>
        <pt x="1212" y="610" on="0"/>
        <pt x="1212" y="474" on="1"/>
        <pt x="1212" y="460" on="1"/>
      </contour>
      <contour>
        <pt x="1014" y="764" on="1"/>
        <pt x="1014" y="782" on="0"/>
        <pt x="1000" y="796" on="1"/>
        <pt x="937" y="859" on="0"/>
        <pt x="766" y="934" on="0"/>
        <pt x="670" y="934" on="1"/>
        <pt x="571" y="934" on="0"/>
        <pt x="403" y="858" on="0"/>
        <pt x="338" y="792" on="1"/>
        <pt x="324" y="778" on="0"/>
        <pt x="324" y="758" on="1"/>
        <pt x="324" y="496" on="1"/>
        <pt x="324" y="490" on="0"/>
        <pt x="330" y="490" on="1"/>
        <pt x="1008" y="490" on="1"/>
        <pt x="1014" y="490" on="0"/>
        <pt x="1014" y="496" on="1"/>
      </contour>
    </TTGlyph>
    <TTGlyph name="eth" xMin="60" yMin="-6" xMax="1056" yMax="1091">
      <contour>
        <pt x="66" y="479" on="1"/>
        <pt x="63" y="494" on="0"/>
        <pt x="60" y="522" on="0"/>
        <pt x="60" y="542" on="1"/>
        <pt x="60" y="564" on="0"/>
        <pt x="63" y="594" on="0"/>
        <pt x="66" y="609" on="1"/>
        <pt x="626" y="609" on="1"/>
        <pt x="629" y="594" on="0"/>
        <pt x="633" y="564" on="0"/>
        <pt x="633" y="543" on="1"/>
        <pt x="633" y="508" on="0"/>
        <pt x="626" y="479" on="1"/>
      </contour>
      <contour>
        <pt x="1056" y="541" on="1"/>
        <pt x="1056" y="276" on="0"/>
        <pt x="815" y="-6" on="0"/>
        <pt x="558" y="-6" on="1"/>
        <pt x="486" y="-6" on="0"/>
        <pt x="383" y="-5" on="0"/>
        <pt x="278" y="-2" on="0"/>
        <pt x="202" y="0" on="1"/>
        <pt x="192" y="10" on="1"/>
        <pt x="192" y="1075" on="1"/>
        <pt x="202" y="1085" on="1"/>
        <pt x="279" y="1087" on="0"/>
        <pt x="384" y="1090" on="0"/>
        <pt x="486" y="1091" on="0"/>
        <pt x="558" y="1091" on="1"/>
        <pt x="818" y="1091" on="0"/>
        <pt x="1056" y="797" on="0"/>
      </contour>
      <contour>
        <pt x="897" y="541" on="1"/>
        <pt x="897" y="680" on="0"/>
        <pt x="827" y="870" on="0"/>
        <pt x="676" y="967" on="0"/>
        <pt x="556" y="967" on="1"/>
        <pt x="495" y="967" on="0"/>
        <pt x="397" y="969" on="0"/>
        <pt x="343" y="969" on="1"/>
        <pt x="343" y="114" on="1"/>
        <pt x="397" y="114" on="0"/>
        <pt x="495" y="116" on="0"/>
        <pt x="556" y="116" on="1"/>
        <pt x="664" y="116" on="0"/>
        <pt x="816" y="202" on="0"/>
        <pt x="897" y="388" on="0"/>
      </contour>
    </TTGlyph>
    <TTGlyph name="exclam" xMin="168" yMin="-14" xMax="383" yMax="1375">
      <contour>
        <pt x="216" y="373" on="1"/>
        <pt x="208" y="576" on="0"/>
        <pt x="190" y="978" on="0"/>
        <pt x="190" y="1181" on="1"/>
        <pt x="190" y="1366" on="1"/>
        <pt x="212" y="1371" on="0"/>
        <pt x="275" y="1375" on="0"/>
        <pt x="339" y="1370" on="0"/>
        <pt x="361" y="1364" on="1"/>
        <pt x="361" y="1180" on="1"/>
        <pt x="361" y="978" on="0"/>
        <pt x="344" y="575" on="0"/>
        <pt x="335" y="373" on="1"/>
        <pt x="322" y="368" on="0"/>
        <pt x="291" y="364" on="0"/>
        <pt x="275" y="364" on="1"/>
        <pt x="260" y="364" on="0"/>
        <pt x="229" y="368" on="0"/>
      </contour>
      <contour>
        <pt x="275" y="187" on="1"/>
        <pt x="300" y="187" on="0"/>
        <pt x="353" y="176" on="0"/>
        <pt x="369" y="167" on="1"/>
        <pt x="375" y="156" on="0"/>
        <pt x="383" y="103" on="0"/>
        <pt x="383" y="86" on="1"/>
        <pt x="383" y="69" on="0"/>
        <pt x="375" y="17" on="0"/>
        <pt x="369" y="6" on="1"/>
        <pt x="353" y="-3" on="0"/>
        <pt x="300" y="-14" on="0"/>
        <pt x="275" y="-14" on="1"/>
        <pt x="249" y="-14" on="0"/>
        <pt x="198" y="-3" on="0"/>
        <pt x="182" y="6" on="1"/>
        <pt x="176" y="17" on="0"/>
        <pt x="168" y="69" on="0"/>
        <pt x="168" y="86" on="1"/>
        <pt x="168" y="103" on="0"/>
        <pt x="176" y="156" on="0"/>
        <pt x="182" y="167" on="1"/>
        <pt x="198" y="176" on="0"/>
        <pt x="249" y="187" on="0"/>
      </contour>
    </TTGlyph>
    <TTGlyph name="exclamdown" xMin="171" yMin="-394" xMax="386" yMax="995">
      <component glyphName="exclam" x="554" y="981" scale="-1.0" flags="0x4"/>
    </TTGlyph>
    <TTGlyph name="f" xMin="182" yMin="-6" xMax="876" yMax="1085">
      <contour>
        <pt x="333" y="0" on="1"/>
        <pt x="317" y="-3" on="0"/>
        <pt x="277" y="-6" on="0"/>
        <pt x="257" y="-6" on="1"/>
        <pt x="236" y="-6" on="0"/>
        <pt x="197" y="-3" on="0"/>
        <pt x="182" y="0" on="1"/>
        <pt x="182" y="1077" on="1"/>
        <pt x="192" y="1085" on="1"/>
        <pt x="331" y="1085" on="1"/>
        <pt x="331" y="1000" on="1"/>
        <pt x="331" y="939" on="0"/>
        <pt x="333" y="817" on="0"/>
        <pt x="333" y="758" on="1"/>
      </contour>
      <contour>
        <pt x="866" y="1085" on="1"/>
        <pt x="870" y="1072" on="0"/>
        <pt x="876" y="1038" on="0"/>
        <pt x="876" y="1026" on="1"/>
        <pt x="876" y="992" on="0"/>
        <pt x="841" y="956" on="0"/>
        <pt x="790" y="956" on="1"/>
        <pt x="521" y="956" on="1"/>
        <pt x="445" y="956" on="0"/>
        <pt x="322" y="958" on="0"/>
        <pt x="275" y="961" on="1"/>
        <pt x="275" y="1085" on="1"/>
      </contour>
      <contour>
        <pt x="776" y="609" on="1"/>
        <pt x="780" y="593" on="0"/>
        <pt x="783" y="558" on="0"/>
        <pt x="783" y="545" on="1"/>
        <pt x="783" y="533" on="0"/>
        <pt x="780" y="499" on="0"/>
        <pt x="776" y="484" on="1"/>
        <pt x="427" y="484" on="1"/>
        <pt x="397" y="484" on="0"/>
        <pt x="314" y="486" on="0"/>
        <pt x="276" y="486" on="1"/>
        <pt x="276" y="607" on="1"/>
        <pt x="314" y="607" on="0"/>
        <pt x="397" y="609" on="0"/>
        <pt x="427" y="609" on="1"/>
      </contour>
    </TTGlyph>
    <TTGlyph name="five" xMin="133" yMin="-24" xMax="932" yMax="1296">
      <contour>
        <pt x="330" y="871" on="1"/>
        <pt x="329" y="833" on="0"/>
        <pt x="318" y="748" on="0"/>
        <pt x="309" y="713" on="1"/>
        <pt x="282" y="702" on="0"/>
        <pt x="223" y="689" on="0"/>
        <pt x="175" y="682" on="1"/>
        <pt x="202" y="1284" on="1"/>
        <pt x="336" y="1266" on="1"/>
        <pt x="338" y="1239" on="0"/>
        <pt x="340" y="1151" on="0"/>
        <pt x="339" y="1063" on="0"/>
        <pt x="338" y="1037" on="1"/>
      </contour>
      <contour>
        <pt x="133" y="97" on="1"/>
        <pt x="137" y="123" on="0"/>
        <pt x="176" y="183" on="0"/>
        <pt x="200" y="200" on="1"/>
        <pt x="261" y="158" on="0"/>
        <pt x="401" y="101" on="0"/>
        <pt x="490" y="101" on="1"/>
        <pt x="562" y="101" on="0"/>
        <pt x="691" y="171" on="0"/>
        <pt x="773" y="319" on="0"/>
        <pt x="773" y="438" on="1"/>
        <pt x="773" y="556" on="0"/>
        <pt x="688" y="684" on="0"/>
        <pt x="563" y="734" on="0"/>
        <pt x="503" y="734" on="1"/>
        <pt x="438" y="734" on="0"/>
        <pt x="303" y="682" on="0"/>
        <pt x="246" y="632" on="1"/>
        <pt x="225" y="636" on="0"/>
        <pt x="185" y="667" on="0"/>
        <pt x="175" y="682" on="1"/>
        <pt x="212" y="730" on="0"/>
        <pt x="326" y="810" on="0"/>
        <pt x="464" y="859" on="0"/>
        <pt x="538" y="859" on="1"/>
        <pt x="711" y="859" on="0"/>
        <pt x="932" y="644" on="0"/>
        <pt x="932" y="448" on="1"/>
        <pt x="932" y="285" on="0"/>
        <pt x="805" y="76" on="0"/>
        <pt x="605" y="-24" on="0"/>
        <pt x="495" y="-24" on="1"/>
        <pt x="375" y="-24" on="0"/>
        <pt x="192" y="49" on="0"/>
      </contour>
      <contour>
        <pt x="864" y="1296" on="1"/>
        <pt x="869" y="1281" on="0"/>
        <pt x="875" y="1247" on="0"/>
        <pt x="875" y="1234" on="1"/>
        <pt x="875" y="1163" on="0"/>
        <pt x="805" y="1163" on="1"/>
        <pt x="449" y="1163" on="1"/>
        <pt x="396" y="1163" on="0"/>
        <pt x="303" y="1166" on="0"/>
        <pt x="230" y="1171" on="0"/>
        <pt x="206" y="1173" on="1"/>
        <pt x="202" y="1284" on="1"/>
        <pt x="214" y="1296" on="1"/>
      </contour>
    </TTGlyph>
    <TTGlyph name="florin" xMin="-126" yMin="-332" xMax="800" yMax="1320">
      <contour>
        <pt x="364" y="775" on="1"/>
        <pt x="656" y="779" on="1"/>
        <pt x="663" y="748" on="0"/>
        <pt x="663" y="722" on="1"/>
        <pt x="663" y="707" on="0"/>
        <pt x="660" y="679" on="0"/>
        <pt x="656" y="665" on="1"/>
        <pt x="366" y="669" on="1"/>
        <pt x="133" y="665" on="1"/>
        <pt x="129" y="679" on="0"/>
        <pt x="126" y="707" on="0"/>
        <pt x="126" y="722" on="1"/>
        <pt x="126" y="748" on="0"/>
        <pt x="133" y="779" on="1"/>
      </contour>
      <contour>
        <pt x="323" y="1009" on="1"/>
        <pt x="343" y="1168" on="0"/>
        <pt x="466" y="1320" on="0"/>
        <pt x="593" y="1320" on="1"/>
        <pt x="642" y="1320" on="0"/>
        <pt x="760" y="1294" on="0"/>
        <pt x="800" y="1278" on="1"/>
        <pt x="800" y="1251" on="0"/>
        <pt x="781" y="1194" on="0"/>
        <pt x="764" y="1176" on="1"/>
        <pt x="725" y="1189" on="0"/>
        <pt x="643" y="1207" on="0"/>
        <pt x="605" y="1207" on="1"/>
        <pt x="545" y="1207" on="0"/>
        <pt x="482" y="1116" on="0"/>
        <pt x="468" y="1004" on="1"/>
        <pt x="346" y="58" on="1"/>
        <pt x="327" y="-89" on="0"/>
        <pt x="247" y="-259" on="0"/>
        <pt x="122" y="-332" on="0"/>
        <pt x="34" y="-332" on="1"/>
        <pt x="-13" y="-332" on="0"/>
        <pt x="-100" y="-315" on="0"/>
        <pt x="-124" y="-305" on="1"/>
        <pt x="-126" y="-278" on="0"/>
        <pt x="-105" y="-214" on="0"/>
        <pt x="-90" y="-197" on="1"/>
        <pt x="-73" y="-204" on="0"/>
        <pt x="-8" y="-217" on="0"/>
        <pt x="19" y="-217" on="1"/>
        <pt x="73" y="-217" on="0"/>
        <pt x="143" y="-165" on="0"/>
        <pt x="190" y="-19" on="0"/>
        <pt x="209" y="122" on="1"/>
      </contour>
    </TTGlyph>
</ttFont>
